<svg xmlns="http://www.w3.org/2000/svg" width="654" height="654" fill="none"><g opacity=".85"><path fill="#FEECD1" d="M515.93 89.69c.088 1.316.351 2.806.736 4.139a622.023 622.023 0 0 1-4.577 4.963c2.297 2.087 4.295 4.156 6.47 6.365 1.069 2.367 2.016 4.857 2.91 7.084 5.12-2 6.436-3.455 11.627-4.123 1.104 1.631 2.209 3.262 3.173 4.998-2.28 2.455-4.683 5.068-7.121 7.682-1.21 1.315-2.543 2.753-3.753 4.069-1.491-.158-2.631-.316-3.981-.613-.386 3.226-.79 6.611-1.194 9.82l-1.982 2.192c-1.806.579-3.332 1.158-5.085 2.035 3.734 2.648-2.351 3.648-.896 6.296-4.875 3.929-12.434 4.088-9.33 8.489-2.596 0-5.507 2.21-7.594 4.858 4.646 6.295-7.085.037-2.579 6.472-3.454-1.175-8.067 3.999-6.332 7.068-7.331 7.05-14.224 16.714-18.732 26.167-2.649 5.173-8.788 13.907-15.347 15.662-.403 1.911 2.104 2.314 3.191 3.612-1.175.614-2.017 3.42-3.419 2.122-1.544-.421-2.14.632-2.789 1.386-.193 1.315 1.087 2.034 2.051 2.753-16.836 7.718-8.579 25.586-25.362 33.147 4.647 2.647-2.052 4.612 2.524 7.716-2.385 4.629-4.964 9.102-7.157 13.609-2.333 6.12-8.454 11.189-12.54 16.784-3.596 1.315-3.649 3.963-1.755 5.787-2.894 3.771-5.49 7.734-8.349 11.54-4.297 1.807-5.805 3.666-5.595 8.646-2.035 2.456-4.175 5.051-6.086 7.349-4.858 3.595-6.472 6.366-2.965 7.348l-1.14 1.385c-1.684 2.456-3.052 4.876-4.543 7.454-.298.754-.526 1.789-.965 2.718-1.579 1.544-3.473 3.122-5.051 4.701-3.139 1.21-.615 4.156-.246 5.611-2 2.456-3.999 4.946-5.999 7.401-4.121 2.474-1.719 4.841-3.122 5.788l-10.805 13.504c.175 3.227-1.316 5.104-2.947 7.121-.859-.088-1.56-.333-2.402-.439-.632.772-1.123 1.404-1.737 2.193-.263 3.419-1.456 5.699-1.035 8.645-.492.632-1.105 1.386-1.719 2.175-.754.193-1.333.526-2.228.895-1.105 1.42-2.332 2.964-3.437 4.384-.72 1.666-1.369 2.911-1.965 4.42-.018 1.175-.018 2.367.14 3.682-1.158-.07-2.14.001-3.104.053-.912 1.544-1.368 2.912-1.965 4.42-1.105 1.42-1.982 2.508-2.947 3.753.123 1.771.228 3.244.35 5.015-1.122 2.596-3.665 3.526-7.821 2.667.035 1.929.052 3.84-.124 5.629l-1.227 1.579c-.299 3.139-.931 6.295-1.247 9.417-2.859 4.051-2.684 8.926-7.946 11.873.404 1.455.807 2.911 1.315 4.191-.877 1.543-1.333 2.911-1.895 4.454 2.823 4.191-5.63 6.998-3.175 11.662-1.684 2.21-3.508 4.595-5.192 6.805-2.017-1.315-3.84-2.472-5.839-3.769-.631-1.122-1.28-2.262-1.736-3.244 1.175-1.14 2.543-2.158 3.701-3.28 3.42-1.351-1.35-3.735-.403-4.998.702-2.876 1.369-5.752 2.369-8.645 1.579-2.07 3.017-3.964 4.595-6.034 1.124-5.436 2.177-10.697 3.545-15.993 1.228-1.579 2.333-2.999 3.526-4.578 1.315-2.472 2.754-5.103 4.244-7.436-2.209-.28-4.419-.56-6.488-.981-1.7-3.279 3.964-6.699-2.384-8.276 3.754-8.033 14.172-14.978 7.86-24.763-3.313-5.839-2.033-7.891-.945-10.03 1.49.052 3.086-.071 4.507-.334 2.595.561 4.208.455 5.699.507 2.595-1.368-.28-3.542-.49-5.155-1.684-2.104-3.226-4.384-4.787-6.646 4.455-7.12 8.998-13.942 13.629-20.922 5.314-1.667 1.772-5.314 1.983-7.839.754-.93 1.631-2.017 2.403-2.964 1.455-1.421 3.121-2.701 4.437-3.982 4.981-3.087.544-4.472 1.895-5.752-.018-.719-.035-1.473.263-2.227 7.559-3.245 2.439-6.822 5.069-8.155a73.594 73.594 0 0 1 4.349-1.579c-.403-1-.631-1.894-.841-2.771.509-.613.877-1.087 1.245-1.561 5.77-3.981-1.419-4.681 1.58-7.19.719-.473 1.736-.964 2.771-1.473.245-1.789.667-3.437 1.088-5.086.964-.052 4.208-.211 7.102.403.245-.316.386-.456.631-.772-1.665-5.103 2.492-12.416 5.737-15.976.281-3.718 5.578-7.787 9.226-11.05-1.578-4.804 2.473-7.804 5.367-10.136l6.156-7.349 6.192-7.314c-3.367-3.436 1.158-4.314-.578-6.33-.192-2.367 3.701-6.927 7.173-6.577.386-.456.772-.912 1.281-1.526-1.139-5.278.982-4.454.931-9.943 5.121-5.613 10.628-11.225 15.96-16.662.649-1.491-2.367-2.016-.631-2.946.755-4.156 4.507.648 6.682-2.228-2.911-4.664 3.718-6.138.983-9.926 8.277-.737 6.49-9.54 12.751-13.066 4.719-8.646 9.367-17.573 14.313-26.306 2.228-3.561 7.156-7.297 12.225-8.648.526-.596 1.192-1.333 1.859-2.069 1.648-1.474 3.613-2.982 5.454-4.297-1.21-1.175-2.069-2.35-3.068-3.384a8040.334 8040.334 0 0 1 16.802-17.083c1.194-7.366 6.595-9.436 11.155-15.434.001-1.753-1.332-3.822-.139-5.155.807-.877 1.754-1.894 2.56-2.771 2.211-5.577 4.789-8.366 8.279-10.383 1.754-1.894 3.508-3.788 5.121-5.542 6.752 2.086 2.349 6.137-.352 9.048z"/><path fill="#FEE4BF" d="M500.584 99.285c-1.21 1.315.123 3.384.14 5.155-4.56 5.998-9.962 8.068-11.155 15.434a7252.18 7252.18 0 0 1-16.803 17.083c1 1.034 1.894 2.209 3.069 3.384-1.824 1.333-3.806 2.824-5.455 4.297-.666.736-1.315 1.491-1.859 2.069-5.068 1.351-9.996 5.087-12.224 8.648-4.946 8.733-9.595 17.66-14.313 26.306-6.244 3.508-4.456 12.311-12.751 13.066 2.735 3.788-3.929 5.262-.983 9.926-2.158 2.859-5.927-1.928-6.682 2.228-1.754.912 1.28 1.455.631 2.946-5.332 5.437-10.839 11.05-15.961 16.662.052 5.489-2.07 4.665-.931 9.943-.508.614-.894 1.07-1.28 1.526-3.49-.333-7.383 4.227-7.173 6.577 1.736 2.016-2.789 2.894.578 6.331l-6.192 7.313-6.156 7.349c-2.894 2.332-6.928 5.314-5.368 10.136-3.648 3.263-8.944 7.332-9.225 11.05-3.245 3.56-7.402 10.873-5.737 15.976-.246.316-.386.456-.632.772-2.91-.596-6.155-.438-7.102-.403-.438 1.666-.859 3.315-1.088 5.086-1.034.509-2.052 1-2.771 1.473-3.016 2.526 4.191 3.209-1.579 7.191-.368.473-.754.929-1.245 1.56.596.421 1.175.824 1.964 1.368l-1.14 1.385a73.641 73.641 0 0 0-4.35 1.579c-2.63 1.334 2.49 4.91-5.069 8.155-2.087-.473-4.033-1.121-5.979-1.735-.789-1.28-1.806-2.718-2.455-4.173 4.438-4.718 2.93-6.261 4.596-9.47 3.297-.632 3.613-3.333 5.279-4.613 1.473-1.403 3.017-2.526 4.683-3.806 2.509-11.697 7.876-15.977 11.385-24.745 5.331-3.052 4.121-5.665 3.42-9.348-7.155 3.719-3.35 5.49-5.367 7.963-1.438.21-2.911.14-4.524.211-1.843 8.259-8.613 14.258-14.663 17.819-.351 2.7-.387 5.366-.615 7.909-.825 2.122-1.737 4.401-2.333 6.681l-8.891 1.843c-6.402 4.087-8.542 6.753-11.418 8.401-.526 2.561-.947 4.981-1.351 7.383-2.806 2.701-5.595 5.385-8.279 8.419-2.174-1.508-4.541-3.138-6.715-4.646 1.017-1.263 1.999-2.526 3.017-3.788 9.347-2.825 5.139-5.981 7.349-9.103 1.175.088 2.157.017 3.244-.193.561-1.824 1.228-3.788 1.579-5.752 3.911-2.158 7.506-4.315 11.277-6.333-3.98-5.733-.841-7.715.106-9.259 4.928.789 2.403-5.173 4.666-7.541-.543-1.596.983-4.209.65-6.436.894-1.105 1.666-2.017 2.561-3.122.122-.158.368-.473.508-.614.982.702 1.964 1.403 2.928 2.087 1.614-1.579 3.543-3.157 5.315-4.578-.298-3.419.719-4.647 2.385-6.664-1.542-1.859-2.945-3.577-4.488-5.436.789-.929 1.666-2.017 2.456-2.946 1.227-.351 2.455-.702 3.875-.93-.21-2.385-.087-4.752.054-7.137.579-.334 1.35-.509 1.929-.842l1.929-2.315c2.455.806 5.05 1.437 7.435 1.927-3.173-5.523 5.736-7.979 3.966-13.713 5.892-2.912 6.226-4.403 6.559-5.894a11.774 11.774 0 0 1 3.244-.123c.772 1.298 1.561 2.613 2.385 4.209.841.105 1.683.245 2.402.508a579.956 579.956 0 0 0 4.402-5.209c.561 4.138.175 6.804-3.455 5.91-.649 1.491-1.509 2.876-2.158 4.367-2.614 10.189-13.505 16.907-11.28 26.148 4.385-2.28 6.77-3.263 5.665-5.279 11.12-11.891 17.524-31.235 33.957-41.671-.316-2.21-.438-4.297-.736-6.489 5.578-7.541 14.996-14.434 16.435-22.326.631.737 1.613.702 2.367.544 3.333-2.736-1.858-6.629-.91-9.154 1.771-.93 3.648-2 5.559-3.07 6.629 2.244 1.912-5.805 5.227-7.787 2.876-1.824 5.7-3.946 8.243-5.753 2.333-3.735 6.718-10.891 2.265-16.291.14-.877.175-1.614.368-2.227 3.228-5.051 6.788-10.12 10.191-15.03 2.104 1.613 4.383 3.366 6.453 4.979 2.577-.018 3.612-2.982 5.454-4.332.666-.737 1.193-1.333 1.877-2.087-.491-.877-.789-1.631-1.228-2.21l6.42-7.085c-.245-2.21-3.191-3.227-2.665-5.612.93-1.034 1.736-1.911 2.683-2.964 2.701.596 5.331.876 8.032 1.472 2.174.456 2.701-1.929 4.156-2.789-1.84-2.963 1.334-5.752.545-9.171 1.333-1.473 2.544-2.789 3.894-4.28 2.174.456 2.736-1.894 3.981-2.929 5.173.017 5.577-2.175 7.681-1.263.228.052.86.052 1.315-.088z"/><path fill="#FEECD1" d="M483.608 107.88c.806 3.402-2.403 6.191-.545 9.172-1.438.877-1.982 3.244-4.156 2.789-2.701-.596-5.331-.877-8.032-1.472 4.192-3.561 8.366-7.104 12.733-10.489zm-19.171 26.149c.439.579.737 1.333 1.228 2.21-.667.736-1.193 1.333-1.877 2.087-1.842 1.35-2.877 4.279-5.454 4.332a877.1 877.1 0 0 1-6.453-4.979c2.771-2.385 5.226-4.771 7.998-7.156 2.823-3.104 5.63-6.226 8.313-9.19-.544 2.367 2.402 3.384 2.665 5.611l-6.42 7.085zm-41.386 6.916c4.944 6.312-4.42 7.471-2.264 12.644-1.421.158-3.034.193-4.647.228-1.14-.859-2.473-1.876-3.63-2.752 0-2.525.159-4.928.211-7.155 3.14-1.386 6.156-2.614 9.365-3.684.193.123.579.403.965.719zM375.4 176.112c-1.298.035-2.508.369-3.753.702-.965-.719-1.719-1.297-2.683-2.016-3.507-4.384 1.176-5.419 2.123-7.979 1.771 1.595 4.945 2.699 5.032 4.786-.351 1.508-.561 2.876-.719 4.507z"/><path fill="#FED8A1" d="M399.844 181.159c-1.999.491-4.016 1-5.84 1.632-2.665 1.263-1.017 3.753-2.07 5.717l-.264 5.804c1.017 1.017 1.912 2.157 3.121 3.332-1.701 1.245-3.385 2.473-4.753 3.701-2.069-.526-3.998-1.227-5.944-1.911-8.015 4.543-4.911 8.593-6.087 12.224-.386.456-.772.912-1.315 1.525-2 2-4.227 3.877-6.367 6.016-.579 1.07-1.123 2.42-1.701 3.49-.913 1.824-1.702 3.49-2.807 5.156l-1.175 1.386c-1.298 1.543-2.613 3.069-3.789 4.455-.508.614-.912 1.052-1.315 1.526-1.035 1.981-2.28 3.823-3.298 5.787-.508.614-.912 1.087-1.298 1.543-1.736 3.21-3.35 6.261-4.894 9.593-.193.614-.193 1.351-.368 1.947l-1.929 2.315c-.579.333-1.351.509-1.93.842-4.086 2.263-8.611 5.455-3.929 8.067-.789.93-1.666 2.017-2.455 2.947-1.368 1.263-3.017 2.525-4.701 3.788 1.332 4.419-1.035 7.664-1.439 10.803a8.862 8.862 0 0 1-.509.614c-.894 1.105-1.666 2.017-2.561 3.121-1.806.685-3.805 1.246-5.804 1.808-1.158 1.403-2.438 2.964-3.596 4.367 2.174 3.016.157 7.733-3.718 4.524.49 4.279-2.105 5.647-3.982 6.788-.561 1.087-1.053 2.455-1.421 3.665 2.788 3.419-.615 4.963.069 7.155-1.649 2.034-3.157 3.928-4.806 5.963-1.543.386-3.034 1.07-4.384 1.614 2.595 3.261-.194 6.716-1.684 5.927-2.21-.315-4.156-.929-1.964-1.367-2.666 3.297-4.806 5.226-2.316 6.734a1101.464 1101.464 0 0 1-3.631 8.014c-1.333 1.298-2.982 2.596-4.437 4.052.789.543 1.788 1.227 2.77 1.893-1.14 1.421-2.368 3-3.508 4.42a1103.88 1103.88 0 0 1-6.524 6.279l2.963 2.016c-2.122 2.719-4.367 5.56-6.49 8.243 2.578 3.7-.597 5.437-1.439 7.296-2.981-.07-6.47-1.455-5.226 4.735-.719 1.701-1.772 3.42-2.491 5.121-2.491 3.192-4.841 6.209-7.209 9.243 2.052 2.823-.93 5.91.122 9.276-2.21 1.684-4.402 3.35-6.805 4.912-4.473 7.418-4.228 12.924-7.123 20.658-3.648 2.421-4.104 5.016-5.331 3.473-2.683-4.401.123-6.927-1.788-9.153.947-2.035 2.035-4.209 3.193-6.104-3.507-3.296 5.7-6.647-1.104-9.942 1.842-1.211 3.683-2.421 5.577-3.333 2.614-7.734 8.28-17.047 9.947-26.148 1.772-1.491 3.35-3.104 5.104-4.578.351-1.227 2.789-2.017 1.368-3.718.562-3.051 3.807-9.137 9.839-8.682l1.123-1.438c-.911-5.015 1.456-6.085.527-7.961-3.594-1.245-.508-4.016.054-5.84 1.017-3.227 3.086-.807 7.383-2.018-2.718-5.067 1.229-8.452-1.103-11.31 10.312-6.104 9.752-17.538 17.522-25.658 1.491.052 3.104-.053 5.506.42.229-1.807.282-3.753.299-5.7a44.68 44.68 0 0 1-.332-4.927c11.995-2.632-2.208-13.924 10.156-14.294.368-1.21 2.7-1.789 1.456-3.665-4.104-1.437-1.718-3.191-.298-4.928 1.368.982 3.665 3.104 4.98 1.087 3.806-1.982-.139-7.015.195-9.277 1.806-2.192 3.735-4.507 5.542-6.7 5.244-5.91 10.541-11.522 15.838-17.135.579-1.07 1.754-1.719.965-3.034-4.068-1.472-1.876-3.349-.455-5.05.718.999 1.63.684 2.595.631 1.421-3.209.351-5.226 3.666-8.05 2.507 1.841 3.104-.719 5.699.683 2.404-11.697 12.857-19.73 17.629-31.445-10.031 2.807-17.468 11.612-18.925 18.539-.929 3.314-3.051.246-4.875 2.421-.755 7.944-10.471 13.066-12.892 20.536-3.035 6.261-10.682 14.68-11.174 20.502-1.754.982-3.63 2.122-5.507 3.262-2.349-.911-4.682-1.805-6.821-2.647.895-2.578 1.86-4.875 2.965-7.313-2.981-3.156 2.596-5.366 3.824-7.962l6.209-7.471c-.333-2.227-1.683-4.699-.771-6.558 2.859-1.912 5.49-3.982 8.173-6.034 4.087-9.277 12.436-16.924 17.4-25.781 4.981-5.858 6.683-9.628 8.209-13.259 3.087-3.227 6.384-6.313 9.804-9.558.964.719 1.718 1.297 2.683 2.016l-.264 5.84c3.752 4.068 4.998-1.772 7.155-3.193.123-.158.386-.456.526-.596 5.735-3 7.05-4.526 8.208-5.894 1.508-1.368 3.227-2.596 4.613-3.806 1.806.859 3.454 1.841 5.26 2.7 1.911 1.455 3.822 2.875 5.541 4.173-.912 1.789-1.93 3.297-2.842 5.121z"/><path fill="#FEECD1" d="M325.361 229.447c-.895 1.841.438 4.331.771 6.558l-6.209 7.472c-1.824-2.315-3.56-4.331-5.313-6.33 1.93-3.087 3.947-5.875 5.894-8.979 1.578.42 3.331.876 4.857 1.279z"/><path fill="#FFF3E3" d="M342.503 403.351c-2.017 6.787 1.98 12.538-4.684 15.24-.895 1.526-1.754 3.367-2.561 5.191.665 5.682-6.595 10.838-10.717 15.732 8.749 7.451-3.071 11.767-.652 17.624-2.859 4.051-8.172 4.35-11.242 8.752 2.735 6.278-2.684 11.031 4.382 15.151-1.438 1.894-2.771 3.612-5.104 4.718 2.385 4.383-1.509 7.049-3.351 10.329.263 2.052.719 4.226.964 6.26-7.261 5.683-3.719 11.715-9.209 17.836.666 3.472-3.894 7.155 2.366 10.399-3.736 4.647-4.07 7.927-3.019 13.748 6.787.087 8.314-6.419 14.959-2.93 5.804 7.838-11.68 8.945-2.562 15.116-1.579 1.333-2.368 4.788-4.42 3.964-4.402 3.526-12.416 1.089-17.642 4.562-1.982 1.105-4.911 3.473-7.681.808-1.368-1.789-2.823-3.84-4.278-5.927.719-1.42 1.263-2.946 2-4.349 1.754-.772 3.718-1.403 5.664-2.053-.683-2.297.071-5.331-2.05-6.891 3.262-2.385 3.858-3.192 1.649-7.856-1.087-2.561-2.174-5.121-3.05-7.541a206.325 206.325 0 0 1 6.034-12.136c2.035-3.893 4.052-7.769 6.175-11.82-1.525-3.559 2-7.436 1.474-11.539.684-.509 1.684-1.052 2.473-1.701.579-1.982 1.035-3.806 1.667-5.77 1.684-2.21 3.508-4.595 5.192-6.805-2.455-4.664 5.998-7.471 3.176-11.662.561-1.543 1-2.893 1.894-4.454-.526-1.298-.911-2.736-1.314-4.191 5.261-2.947 5.086-7.822 7.945-11.873.299-3.14.931-6.296 1.247-9.418l1.227-1.578c.176-1.789.141-3.718.124-5.629 4.174.876 6.699-.071 7.822-2.667-.123-1.771-.228-3.244-.35-5.015.982-1.263 1.859-2.35 2.946-3.753.579-1.526 1.053-2.876 1.965-4.42.964-.053 1.929-.14 3.104-.053-.193-1.315-.158-2.508-.14-3.682.597-1.509 1.246-2.754 1.965-4.42 1.105-1.42 2.35-2.981 3.438-4.384.859-.369 1.42-.72 2.174-.913z"/><path fill="#FED8A1" d="M249.731 440.682c.193.122.596.385 1 .648-.527 1.088-.983 2.491-1.509 3.578-1.351 1.771-2.789 3.701-4.139 5.472l-2.93 3.841c3.788 2.945-2.806 4.91-2.21 8.873.999.649 1.806 1.175 2.823 1.841.491.561.841 1.263 1.42 2.122-.404-.263-.807-.526-1-.649-2.315 1.123-4.665 2.246-6.787 3.491l-2.894 3.876c-.403 2.157 2.788 3.489 2.016 4.892-.473.649-1.07 1.456-1.666 2.263 1.823 1.157 3.84 2.472 5.856 3.752.649 2.332 2.122 3.98.543 4.892-4.578 6.121 1.911 3.84 4.05 6.155 1.245.333 2.297.508 3.42.999 3.596-7.208 3.93-13.644 5.088-18.414 1-.544 1.999-1.088 2.806-1.754.877-1.578 1.684-3.437 2.473-5.314-.438-.999-1.087-2.139-1.718-3.261 1.842-2.403 3.526-4.648 5.227-6.875 2.946-1.895 5.893-3.824 8.646-5.841.93 1.56 1.526 3.139 2.332 4.857-1.701 1.035-.895 2.753-1.088 5.016-1.246 7.523-8.893 10.926-5.562 16.888-9.084 4.14-1.002 16.922-13.926 18.625l3.944 10.329c1.789-.036 3.49.087 5.506.209 1.824 1.157 3.841 2.437 6.699 4.243 2.946-2.385 5.612-4.701 8.365-7.174 2.315 5.261-.544 6.717.315 9.154a60.81 60.81 0 0 1-1.21 1.596c.28 2.771.56 5.752.858 8.54-.123.158-.351.491-.474.649-2.368 2.017-4.648 3.876-7.226 5.788-.123.158-.351.491-.473.649 3.717 4.208.805 6.138-.563 8.803-1.333 2.21-2.35 4.385-3.683 6.595.175.561.35 1.157.42 1.437 1.982.544 3.946 1.07 6.068 1.437 2.507.614 2.49-3.367 5.313-1.14a146.43 146.43 0 0 1 2.841 1.788c.386.702.736 1.403 1.438 2.069-.737 1.403-1.281 2.929-2 4.349-2.666 1.614-4.191-.753-6.05-1.454-2.21-.21-2.473 2.192-3.631 3.35-9.715 2.386-5.261 5.612-8.857 10.155-3.56.333-7.225.702-10.785 1.036-.929-1.982-1.858-3.963-2.664-6.102-1.842-1.14-3.876-2.402-5.91-3.665.948-1.297 1.877-2.578 2.824-3.876l-5.681-5.645c1.509-1.649 3.298-3.333 5.017-4.876-.071-.737-.105-1.473.14-2.245.561-.351 1.333-.596 2.087-.824 3.595-2.929 1.053-5.472-2.874-9.82-2.227-3.034 1.912-4.227.071-7.751a984.684 984.684 0 0 0-3.858-2.42c-2.56-1.367-5.015-2.454-7.382-3.699-.824 1.14-1.543 2.105-2.368 3.245a62.686 62.686 0 0 0-5.524-.157c-2.262.228-4.051 2.683-4.051 5.524-.123.158-.351.491-.474.649a624.679 624.679 0 0 0-10.539-3.032c-1.175 1.631-3.121-2.209-5.944-1.595-1.404 1.964-2.719 3.771-4.017 5.56-.824-1.701-1.473-3.297-2.419-4.84-.754-1.42-1.824-2.805-2.683-4.05-2.385.877-4.875 1.473-7.295 2.351-2.683-4.051-.262-6.612-1.875-9.277 2.087-2.052 4.086-4.367 6.156-6.402 2.244 1.403 4.454 2.806 6.909 4.348l2.876-3.928c-3.892-6.032-.191-9.452 2.545-13.205 1.262 1.508 2.332 2.928 3.787 4.559 5.244-5.525 2.667-8.103 8.016-10.927 1.824-6.032-2.069-5.646-1.753-9.259-9.452 5.491-2.807 11.855-9.857 13.365-2.507-1.841-4.892-3.84-7.294-5.856-.017-1.21-.14-2.245-.157-3.455 1.175-5.524 2.281-10.803 3.457-16.327.246-6.348 5.929-11.61 6.789-18.782.368-1.701.737-3.402.913-5.226 5.98-4.332 4.893-7.699 5.297-10.593l1.105-1.455c1.806 1.174 3.805 2.507 5.822 3.822-.808 6.243 2.225 10.153.138 12.906-.737.982-1.579 2.105-2.333 3.069 0 1.193.123 2.263.333 3.595-1.368 1.053-2.736 2.07-3.911 3.245-3.087 2.561 2.173 5.506 1.331 7.856-2.104 2-4.104 4.315-6.208 6.349-2.263 2.649 3.015 3.156 4.032 6.207a320.311 320.311 0 0 1 2.912-3.893c3.682-1.719-.28-5.226 1.281-7.348 1.771-.789 3.735-1.421 5.717-2.07 4.998-2.298-2.577-4.542-.332-7.172 8.646-4.017 2.701-6.419 5.437-9.225 6.156-1.772 2.772-4.455 5.648-5.472.719.228 1.561.298 2.42.385 1.771-.754 3.367-1.649 4.928-2.543 1.596-2.087 3.052-4.034 4.648-6.121 2.472 1.595 4.068 2.665 5.681 3.717z"/><path fill="#FEECD1" d="M241.669 528.242c1.858 3.542-2.28 4.7-.071 7.751-2.561 1.474-5.139 2.929-7.471 4.526-1.368-1.789-2.438-3.174-3.7-4.682-.631-1.578.965-4.121-2.384-4.805.14-1.788.071-3.752.001-5.681.824-1.14 1.543-2.105 2.368-3.245 2.367 1.245 4.822 2.332 7.382 3.699l3.875 2.437z"/><path fill="#FEDEB1" d="M244.49 545.83c-.754.228-1.508.456-2.087.824-.263.79-.211 1.509-.141 2.245-1.701 1.526-3.507 3.227-5.016 4.876l5.681 5.646c-.947 1.298-1.876 2.578-2.824 3.876 2.052 1.279 4.068 2.524 5.91 3.664.806 2.139 1.735 4.121 2.664 6.102-5.419 1.351-9.663 1.527-14.8-1.155-4.823 2.193-4.946 2.35-7.278 2.333-1.631-.999-3.279-2.016-5.927-3.646-1.753-.842-3.595-1.526-5.471-2.209-2.104-.351-4.331-.543-6.558-.736-.509-1.736-1.122-3.752-1.648-5.506-2.543-.157-5.419-.262-8.154-.542-.894-1.245-1.946-2.613-2.7-4.033-.438-3.104-.946-6.488-1.419-9.873-.14-3.156-.262-6.12-.402-9.277-.737-.21-1.596-.262-2.315-.49-1.665-1.771-3.173-3.384-4.839-5.155l-2.051-6.997c2.42-.877 4.893-1.456 7.296-2.351.876 1.263 1.946 2.648 2.682 4.051.947 1.543 1.595 3.139 2.419 4.839 1.298-1.788 2.614-3.595 4.017-5.559 2.806-.632 4.769 3.226 5.945 1.595 3.437.946 6.874 1.928 10.538 3.032.035 3.577.438 7.137.718 10.855-1.877.965-3.648 2.21-5.332 3.297 1.648 2.21 3.296 4.419 5.155 6.769 2.841.595 5.682 1.156 8.505 1.734-.07-1.929-.07-3.577-.034-5.681 2.21-2.631 4.735-5.297 7.138-7.805 2.333-1.596 4.911-3.052 7.471-4.525 3.91 4.33 6.452 6.873 2.857 9.802z"/><path fill="#FEECD1" d="m223.131 545.939-4.596 6.349a2.916 2.916 0 0 0-1.613.175c-1.245-2.402-2.314-4.524-3.559-6.926 1.684-1.088 3.455-2.333 5.332-3.298 1.525 1.175 2.735 2.385 4.436 3.7z"/><path fill="#FFF3E3" d="M524.013 96.125c.579 3.244-2.42 4.384-5.437 9.049-2.174-2.209-4.156-4.296-6.47-6.365a603.957 603.957 0 0 1 4.578-4.963c.964.017 1.946.017 3.103.192 2.35.596 3.297 1.333 4.226 2.087zm-32.512 4.564c-1.508-2.946 1.07-3.98 2.228-5.594 1.683 1.332 3.559 2.822 5.453 4.295-2.105-.876-2.526 1.333-7.681 1.299zm33.929 24.178c-2.246 3.507-.966 9.241-5.175 9.207.386-3.227.79-6.611 1.194-9.821 1.35.298 2.49.456 3.981.614zm-5.684 14.766c-.491 1.613-1 3.209-1.299 4.981-1.56.298-3.051.877-4.419 1.298-4.28 5.402-8.875 10.803-13.102 16.258-.527 7.05-9.401 12.627-13.926 19.116-.072 6.875-10.103 12.137-12.384 19.047-5.823 10.171-13.19 20.238-20.557 30.41-7.419 10.12-14.786 20.397-20.627 30.937 1.736 1.28-.895 2.508-4.823 2.333-4.594-3.085 2.123-5.068-2.524-7.715 16.783-7.561 8.527-25.429 25.362-33.147-.964-.719-2.244-1.438-2.051-2.753.649-.754 1.228-1.789 2.789-1.386 1.402 1.297 2.262-1.526 3.419-2.122-1.087-1.298-3.612-1.683-3.191-3.612 6.542-1.773 12.698-10.489 15.347-15.663 4.491-9.47 11.401-19.116 18.732-26.166-1.735-3.069 2.878-8.243 6.332-7.068-4.506-6.435 7.225-.177 2.579-6.472 2.052-2.648 4.998-4.858 7.594-4.858-3.103-4.401 4.455-4.525 9.33-8.489-1.472-2.63 4.613-3.631.896-6.296 1.753-.877 3.244-1.456 5.085-2.035.474 1.21.929 2.227 1.438 3.402zm-31.181 10.526c-1.21-3.665-.42-4.559.509-5.594 7.488.297 1.455 5.875-.509 5.594zm-4.806 3.543c1.331 10.732-6.823 11.943-11.155 17.854 2.438-7.348 4.631-13.399 11.155-17.854zm-55.779-20.106c2.401 4.121-1.58 8.628-4.912 7.331-.385-.28-.771-.596-.964-.719-3.192 1.088-6.208 2.316-9.365 3.684-.613-1.771-1.192-3.402-1.805-5.173 1.982-4.051 5.155-1.123 9.925-.738.333-.754.369-1.49.386-2.244 1.07-1.211 2.123-2.403 3.21-3.596.508.158 1.157.14 1.631-.018.561.456 1.122.877 1.894 1.473zm13.359 21.322-7.243 2.755c-.456-3.087 2.141-8.172 7.629-4.964-.228.579-.246 1.333-.386 2.209zm-8.226 9.278c-3.648 2.737-3.859 6.595-5.911 10.015-4.42 4.665-8.541 7.559-10.997 10.716-1.052 1.192-2.104 2.42-3.157 3.613-2.63-.982-3.56 2.297-6.138.141a1440.889 1440.889 0 0 1-7.065-7.557c.929-1.807 1.947-3.315 2.876-5.121 2.105-2.42 4.227-4.823 6.349-7.261.106-1.929-2.244-4.7.492-5.647 2.14-3.157 4.262-6.331 6.578-9.348 1.631-.017 3.244-.053 4.647-.228.139 5.646-1.72 9.259.454 13.643 4.436.367.649-4.016 2.876-5.086 2.245-.036 4.964-2.754 8.629-2.947.175 1.683.21 3.437.367 5.067zm27.055 26.493c-2.876-2.174-3.367-4.523-.49-6.313 4.629 1.999 4.891 5.664.49 6.313zm-66.827-26.487-1.439 4.946c-1.385 1.21-3.104 2.438-4.612 3.806-1.176 1.385-2.491 2.911-8.208 5.893-1.158-.877-2.508-1.876-3.647-2.735.14-1.648.368-2.999.719-4.507 1.421-.93 2.526-1.859 4.104-2.947.491-1.648.842-3.156 1.281-5.103 6.015 3.278 6.401 1.034 7.786-.176.772-.176 1.561-.334 2.157-.65.544.474 1.105.895 1.859 1.473zm-42.39 33.413c-4.981 8.839-13.347 16.504-17.4 25.781-2.683 2.052-5.314 4.122-8.172 6.033-1.561-.403-3.297-.876-4.858-1.279-.472-8.856 10.629-13.785 11.016-22.027 5.788-2.772 9.086-9.646 16.521-10.665 1.281-2.578 2.631-5.331 3.929-7.891-.631-1.473 2.053-6.787 7.173-3.211-1.526 3.631-3.228 7.401-8.209 13.259zm57.961 96.826c.876 3.788-.071 6.769-1.755 5.788-1.893-1.824-1.84-4.472 1.755-5.788zm-88.972-50.946c-1.228 2.595-6.805 4.806-3.824 7.962-1.088 2.455-2.07 4.735-2.965 7.313-1.403 1.718-2.946 3.613-4.35 5.331-.385-.28-.771-.561-.982-.701l-7.768.405c-1.666 2.052-.86 4.857-1.527 7.137-.508.614-.894 1.105-1.28 1.561-1.666 2.052-3.35 4.086-4.894 5.981.789 2.051-.228 3.314-.141 5.857-.526.631-.894 1.105-1.28 1.561.42 1.788.894 3.84 1.314 5.628l-6.104 7.577c-3.683 3.823-11.662 7.63-13.189 14.487a463.53 463.53 0 0 0-10.787 17.415c-.948 4.279-3.263 8.348-6.666 11.891-6.927.649-3.946 6.892-5.929 11.399.474.579.807 1.298 1.491 1.981-.246.316-.509.649-.614.79-1.281.859-2.421 1.543-3.385 2.367l-3.07 7.454c-1.842 3.911-3.859 7.681-5.771 11.276-.842-.07-1.701-.157-2.613-.543-1.543-2.279-3.121-4.559-4.804-6.663 3.701-4.367-1.225-15.572 11.243-12.505-6.979-6.242-1.139-7.909.79-8.786.158-2.577.352-5.436.51-8.014 1.526-4.612 3.682-.421 8.417-1.369-1.823-2.735-3.313-5.488-5.119-8.206 6.156-5.876 7.928-14.276 13.541-19.046-2.893-1.771-.596-5.366 1.579-7.331a5186.318 5186.318 0 0 0 12.243-15.223c1.175.087 1.543-.386 1.14-1.421-5.278-2.226.685-6.962-2.331-10.083 1.526-1.911 5.191-.316 8.75.227.036-2.701.282-5.261.65-8.014 3.122-.036 3.421-4.542 6.647-4.718 1.527-7.138 7.699-2.229 6.174-7.542-.596-.421-1.157-.841-1.753-1.262 6.892-1.281 3.947-12.399 12.645-10.12.403-1.21 2.859-1.947 1.491-3.666 1.351-2.017.65-7.523 7.208-6.787 1.754 2.069 3.49 4.085 5.313 6.4z"/><path fill="#FEDEB1" d="M362.619 272.984c.666 3.683 1.893 6.278-3.421 9.347-3.509 8.769-8.893 13.066-11.385 24.746-1.648 1.263-3.192 2.385-4.683 3.806-1.262 1.543-2.402 2.964-3.665 4.507-.509-.123-.965.053-1.614.106-1.666 3.209-.158 4.752-4.596 9.47.684 1.455 1.684 2.875 2.455 4.173 1.964.631 3.928 1.262 5.98 1.735-.299.754-.281 1.508-.264 2.227-1.543.386-3.016 1.053-4.384 1.579-.509.614-.877 1.088-1.245 1.561l-2.911.176c-.509.614-.877 1.087-1.263 1.543 1.209 1.561 2.209 2.981 3.471 4.84l-2.403 2.964-4.086-.648c.684 4.12-.386 7.014 2.104 8.487-4.631 6.98-9.174 13.802-13.629 20.923-2.14 1.929-4.42 3.998-6.332 6.086-1.929 2.069 1.981 3.279 1.42 5.558-1.105 2.157-2.368 4.192.945 10.031a105.53 105.53 0 0 0-6.699 4.63c-11.661-3.733-1.141 7.664-9.278 9.91 2.332 3.244-1.106 4.542-3.158 6.068-2.315 3.016-4.648 6.015-7.103 9.207-.982 1.263-1.965 2.526-2.947 3.824.753 6.47-6.139 9.119-1.177 12.889-3.069 3.245-5.805 6.472-10.452 8.209-.158.613-.123 1.35-.281 1.964l7.908 3.032c4.244-.807 3.542 2.069 5.839 3.805 1.245.333 2.297.543 3.419 1.034.755-.228 1.333-.562 2.228-.93 2.122-2.403 4.472-4.683 6.805-6.945 4.051-2.579-.894-5.103 1.614-7.997 2.035-1.052 3.403-4.42 6.542-2.614-1.369 5.296-2.439 10.54-3.545 15.994-1.579 2.069-3.017 3.963-4.595 6.033-1 2.893-1.702 5.769-2.369 8.646-.965 1.28 3.822 3.682.403 4.997-1.158 1.123-2.526 2.14-3.701 3.28.438 1 1.087 2.104 1.736 3.244-1.579.877-3.14 1.737-4.893 2.508-.597.807-1.193 1.579-1.789 2.386.683.683 1.069 1.385 1.542 1.928.597.386 1.21.789 2.017 1.28-3.438 2.526-6.7 4.911-9.944 7.314-1.509 2.806-3.228 5.507-4.736 8.313-2.771 2.491-5.42 4.823-8.366 7.174-.316.035-.965.088-1.403.281-5.032-4.857-8.224-3.349-10.802-4.734l-3.944-10.328c12.925-1.703 4.842-14.486 13.927-18.625-3.331-5.962 4.315-9.33 5.561-16.889.193-2.262-.595-3.963 1.088-5.015-.806-1.719-1.402-3.297-2.331-4.857-2.736 2.034-5.683 3.929-8.647 5.84-1.701 2.228-3.402 4.49-5.226 6.875.648 1.14 1.279 2.262 1.718 3.262-.807 1.859-1.597 3.735-2.474 5.314-.807.666-1.806 1.21-2.806 1.754-1.158 4.735-1.492 11.171-5.088 18.414-1.122-.491-2.174-.666-3.419-.999-2.157-2.332-8.628-.034-4.05-6.155 1.56-.895.105-2.56-.543-4.893-2.034-1.297-4.033-2.594-5.857-3.751.596-.807 1.193-1.614 1.666-2.263.755-1.42-2.437-2.753-2.016-4.892l2.895-3.876c2.192-1.701 4.209-3.262 6.401-4.964a721.888 721.888 0 0 1-2.823-1.841c-.578-3.98 5.998-5.928 2.211-8.873l2.929-3.841c1.403.911 2.613 1.7 4.033 2.63 2.035-3.473.544-5.875.124-8.085.526-1.087.965-2.472 1.508-3.577-.403-.263-.806-.526-.999-.649-1.613-1.052-3.209-2.121-5.821-3.822-1.017-.666-2.017-1.315-2.824-1.841.369-.473.737-.982 1.228-1.613 1.245 1.525 1.701-1.07 5.332-3.473 2.877-7.752 2.632-13.258 7.122-20.659 2.403-1.561 4.595-3.227 6.805-4.911-1.051-3.367 1.93-6.454-.121-9.277 2.368-3.034 4.718-6.051 7.209-9.243.719-1.701 1.771-3.419 2.491-5.12-1.982-3.279.176-8.383 3.227-6.068.789.543 1.403.946 1.982 1.35.842-1.859 4.016-3.596 1.439-7.296 2.122-2.683 4.367-5.559 6.489-8.243l-2.963-2.016c2.21-2.14 4.279-4.139 6.524-6.279 1.14-1.421 2.368-2.999 3.508-4.42-.982-.666-1.981-1.35-2.77-1.893 1.455-1.456 3.104-2.754 4.437-4.052 1.245-2.788 2.438-5.384 3.631-8.014-2.49-1.473-.35-3.437 2.316-6.734-2.192.438-.246 1.052 1.964 1.367 1.508.807 4.297-2.649 1.684-5.927 1.368-.527 2.841-1.228 4.384-1.614 1.649-2.035 3.158-3.929 4.806-5.963-.683-2.192 2.719-3.736-.069-7.155.369-1.21.877-2.596 1.421-3.665 1.859-1.158 4.472-2.509 3.982-6.788 3.857 3.227 5.875-1.526 3.718-4.524 1.158-1.404 2.438-2.964 3.596-4.368 1.981-.543 3.981-1.105 5.805-1.807.35 2.21-1.176 4.823-.65 6.436-2.245 2.35.279 8.312-4.666 7.542-.947 1.543-4.104 3.507-.107 9.259-3.77 2.017-7.365 4.139-11.276 6.332-.351 1.964-1.036 3.946-1.579 5.752-1.088.211-2.07.281-3.245.193l-.088 5.805c-2.157 1.175-2.596 6.278-7.243 3.28a319.024 319.024 0 0 0-3.017 3.789c2.174 1.507 4.541 3.138 6.716 4.646 2.683-3.034 5.472-5.718 8.278-8.419.404-2.402.825-4.823 1.351-7.383 2.877-1.649 5.034-4.332 11.418-8.401a28066.4 28066.4 0 0 1 8.891-1.843c.597-2.28 1.509-4.56 2.333-6.682.229-2.542.264-5.208.615-7.909 6.051-3.595 12.821-9.559 14.663-17.819 1.613-.07 3.086 0 4.524-.211 2.053-2.473-1.77-4.226 5.403-7.962z"/><path fill="#FFF3E3" d="M398.808 311.769c.578 3.805-2.965 8.084-5.595 8.646-.192-4.998 1.334-6.84 5.595-8.646zm-11.646 15.995c.525 4.244-.896 7.839-2.965 7.348-3.524-.999-1.911-3.735 2.965-7.348zm-4.088 8.751c3.244 5.874-.825 5.945-4.543 7.453 1.509-2.595 2.86-5.033 4.543-7.453zm-5.49 10.154c-.316 5.331-2.158 9.838-5.297 10.312-.368-1.455-2.876-4.419.246-5.612 1.561-1.561 3.455-3.139 5.051-4.7zm-11.314 17.696c.438 3.665-.369 8.891-3.122 5.788 1.403-.948-.999-3.315 3.122-5.788zm-16.873 26.412c-.071 6.208-1.335 12.486-5.175 10.4-.438-2.929.772-5.226 1.036-8.646.631-.771 1.122-1.403 1.736-2.192.86.088 1.579.351 2.403.438zm-117.037-1.105c.227 6.015-5.699.334-4.086 5.314-2.86 4.928-4.544 11.838-6.474 17.87-1.105 1.456-1.964 2.596-2.947 3.894-2.227.965-4.454 1.93-6.576 2.719-1.877 2.894.402 7.804 2.05 10.82-.737.982-1.579 2.104-2.333 3.069l-1.105 1.455c-.386 2.911.683 6.261-5.297 10.593-.176 1.824-.544 3.525-.913 5.226-.86 7.172-6.543 12.434-6.789 18.782-1.176 5.524-2.281 10.803-3.457 16.327-3.7-.192-7.541-.244-11.364-.279.317-5.331-.173-10.697 1.528-15.414 2.877-7.086 2.633-12.802 7.298-19.467-4.909-3.436 7.787-4.876.896-8.856 1.771-1.526 5.138-3.21 4.665-6.173-5.12-1.157-2.489-6.243.545-6.681.754.999 1.648.595 2.613.508.421-.947 1.561-1.667.719-2.929-4.278-1.087-1.542-3.928-2.98-5.611 2.069-1.544 1.579-4.069.141-5.752 1.036-6.155 14.048-8.262 6.368-14.328 1.491-3.911 9.33-7.472 4.386-11.259-5.752-1.157.018-5.138-5.541-6.172 4.982-13.609 15.59-3.036 27.638-3.757.262 3.244.648 6.681 1.015 10.101zm-4.317 141.36c3.349.683 1.771 3.244 2.384 4.804 1.263 1.508 2.332 2.894 3.7 4.682-2.403 2.508-4.929 5.174-7.139 7.805-1.42-.894-2.647-1.631-3.875-2.402-1.718-1.298-2.91-2.525-4.401-3.7-.262-3.7-.683-7.277-.717-10.855.123-.157.351-.491.473-.648.001-2.841 1.807-5.279 4.052-5.525 1.806-.053 3.823.035 5.524.157.087 1.947.14 3.893-.001 5.682zm-44.785-14.548c1.595 2.682-.808 5.226 1.875 9.276l2.05 6.997a48.883 48.883 0 0 0-5.103 1.351c-1.841-1.14-3.261-2.034-4.892-3.033 2.578-4.823-2.681-12.679 3.65-14.907.719.193 1.578.246 2.42.316z"/><path fill="#FEE4BF" d="M416.14 153.782c-2.315 3.017-4.455 6.174-6.578 9.348-2.875-2.174-5.541-4.208-8.223-6.224l1.192-1.368c3.262-1.544 6.647-3.245 9.979-4.508 1.157.876 2.49 1.893 3.63 2.752z"/><path fill="#FEDEB1" d="M441.339 154.919c4.436 5.418.051 12.573-2.265 16.291-2.543 1.807-5.366 3.929-8.242 5.753l-1.474 7.12c-2.035 1.965-5.665 3.21-9.313 3.737-.947 2.525 4.243 6.417.911 9.154-.772.175-1.736.193-2.368-.544-1.421 7.874-10.874 14.767-16.434 22.326.297 2.192.42 4.279.735 6.489-16.415 10.454-22.836 29.779-33.956 41.671 1.104 2.016-1.281 3.034-5.665 5.279-2.243-9.259 8.648-15.942 11.28-26.148.456-1.649.912-3.297 1.175-5.068-.701-.281-1.56-.403-2.402-.509-.842-1.613-1.613-2.91-2.384-4.208a11.78 11.78 0 0 0-3.245.123c-.333 1.491-.666 2.982-6.559 5.893 1.77 5.735-7.138 8.191-3.965 13.714-2.385-.49-4.98-1.121-7.435-1.928.193-.613.193-1.35.368-1.946 1.544-3.332 3.158-6.384 4.894-9.593.386-.456.772-.912 1.298-1.544 1.035-1.981 2.263-3.805 3.298-5.787a85.07 85.07 0 0 1 1.315-1.526c1.175-1.385 2.473-2.929 3.789-4.455l1.175-1.385c1.105-1.666 1.894-3.332 2.806-5.156.579-1.07 1.123-2.42 1.702-3.49 2.122-2.157 4.35-4.034 6.367-6.016.508-.614.912-1.087 1.315-1.526 1.158-3.612-1.928-7.68 6.087-12.223 1.929.701 3.858 1.367 5.944 1.91 1.368-1.228 3.052-2.455 4.753-3.701-1.227-1.157-2.104-2.314-3.121-3.331l.264-5.805c1.053-1.964-.595-4.454 2.07-5.717 1.807-.649 3.823-1.123 5.84-1.632 2.314 2.455 4.769 5.085 7.066 7.557 2.56 2.175 3.507-1.122 6.138-.141 1.07-1.21 2.104-2.42 3.157-3.613 2.455-3.157 6.577-6.051 10.997-10.716 2.069-3.437 2.245-7.295 5.911-10.014-.158-1.631-.175-3.402-.368-5.033.526-.596.912-1.052 1.333-1.508l7.208-2.754z"/><path fill="#FED190" d="M327.408 259.556c-1.789 2.175-3.735 4.507-5.542 6.7-.298 2.262 3.611 7.294-.194 9.276-1.316 2.017-3.613-.104-4.98-1.086-1.404 1.719-3.789 3.508.297 4.928 1.245 1.876-1.088 2.455-1.456 3.665-12.381.387 1.822 11.679-10.156 14.293.018 1.491.123 3.28.333 4.928-.018 1.947-.071 3.893-.299 5.699-2.385-.455-4.016-.367-5.506-.42-7.77 8.121-7.211 19.554-17.523 25.658 2.349 2.841-1.614 6.244 1.103 11.311-4.314 1.193-6.383-1.191-7.383 2.018-.561 1.824-3.648 4.595-.053 5.839.946 1.859-1.439 2.947-.528 7.962l-1.122 1.438c-6.033-.455-9.278 5.631-9.839 8.682 1.42 1.701-1.018 2.49-1.369 3.718-1.771 1.491-3.332 3.087-5.103 4.578-1.668 9.101-7.333 18.414-9.947 26.148-1.894.912-3.736 2.122-5.577 3.332 6.821 3.314-2.404 6.647 1.103 9.943-1.158 1.894-2.245 4.069-3.192 6.103 1.911 2.227-.878 4.735 1.787 9.154-.491.631-.86 1.14-1.228 1.613.807.526 1.806 1.175 2.823 1.841-3.157 2.982-6.331 5.981-9.576 8.665-.842-.07-1.683-.14-2.42-.386-2.876 1.018.508 3.7-5.647 5.472-2.719 2.824 3.226 5.226-5.438 9.225-2.262 2.613 5.33 4.874.332 7.172-1.981.65-3.963 1.299-5.717 2.071-1.578 2.104 2.384 5.611-1.281 7.347-.982 1.298-1.929 2.596-2.912 3.894-1.016-3.051-6.295-3.559-4.032-6.207 2.087-2.017 4.104-4.315 6.209-6.349.842-2.35-4.436-5.278-1.332-7.856 1.175-1.176 2.526-2.21 3.911-3.245-.21-1.333-.333-2.368-.333-3.595.72-.965 1.579-2.105 2.333-3.069 2.087-2.754-.946-6.664-.138-12.907-2.017-1.315-4.016-2.647-5.822-3.822.737-.982 1.579-2.105 2.333-3.069-1.63-2.999-3.927-7.926-2.05-10.82 2.104-.807 4.332-1.772 6.576-2.719.983-1.298 1.842-2.438 2.947-3.893 1.93-6.033 3.597-12.96 6.474-17.871-1.613-4.98 4.313.701 4.086-5.314a54.852 54.852 0 0 1 6.366-2.789c2.649-1.877-.998-5.804.44-8.014 3.893-.807 8.032-1.65 11.925-2.457-.841-2.49-1.735-5.103-2.577-7.593 2.157-1.21 4.543-2.298 7.015-3.543-3.296-1.999-2.086-6.295-5.154-8.171l.614-.789c1.911-.895 4.156-1.807 6.261-2.579-.561-3.577-2.525-7.61-1.84-10.82 3.42-3.56 5.718-7.611 6.665-11.89a464.862 464.862 0 0 1 10.788-17.415c1.526-6.857 9.506-10.664 13.189-14.487l6.104-7.577c2.981-.632 5.945-1.246 8.909-1.86 3.104-1.526.596-4.524.334-5.699 1.473-1.438 3.139-2.719 4.489-3.999.369-2.718-6.312-3.261-3.541-6.243.579-.333 1.35-.508 1.929-.842 1.456-2.928 2.947-5.857 4.403-8.786l4.35-5.332 6.821 2.647c1.877-1.14 3.753-2.28 5.507-3.262.509-5.84 8.156-14.258 11.173-20.502 2.439-7.453 12.137-12.592 12.893-20.536 1.824-2.175 3.945.893 4.875-2.421 1.457-6.927 8.893-15.731 18.924-18.539-4.771 11.715-15.224 19.748-17.628 31.445-2.578-1.385-3.174 1.176-5.699-.683-3.315 2.824-2.246 4.841-3.667 8.05-.964.053-1.858.386-2.595-.631-1.421 1.701-3.613 3.578.455 5.05.789 1.315-.386 1.964-.965 3.034-5.174 5.665-10.47 11.278-15.715 17.188z"/><path fill="#FEE4BF" d="M386.634 219.232c-1.684 2.736-3.368 5.472-5.279 8.05 1.56.403 3.296.946 4.962 1.174a453.29 453.29 0 0 1-3.753 4.42c-.789-1.315-1.736-2.753-2.385-4.209a259.195 259.195 0 0 1-5.506 3.158c-1.35-1-2.508-1.841-3.875-2.823l1.175-1.386c2.069-.982 3.963-2.07 5.699-3.034 2.649-2.017 5.314-4.052 8.173-5.929.228.158.614.439.789.579zm-77.85 44.852c-1.456 2.928-2.93 5.84-4.403 8.786-.579.333-1.35.509-1.929.842a314.223 314.223 0 0 0-3.928-2.77c.632-2.28-.174-5.086 1.527-7.138l7.768-.404c.176.14.579.403.965.684zm23.925 81.697c-.211 2.525 3.349 6.19-1.983 7.839-2.49-1.473-1.419-4.366-2.103-8.487l4.086.648zm-10.825 35.408c.245 1.613 3.086 3.787.49 5.155-1.473-.034-3.086.071-5.699-.507-1.403.245-3.016.351-4.507.334.562-2.28-3.366-3.472-1.42-5.559 1.93-2.07 4.192-4.157 6.332-6.086 1.56 2.297 3.121 4.559 4.804 6.663zm-66.404-38.308c-.684 3.21 1.261 7.26 1.84 10.82-2.105.772-4.35 1.684-6.261 2.579-.666-.702-1-1.421-1.49-1.982a945.467 945.467 0 0 0-.771-6.418l4.928-6.226c1.158.842 1.544 1.087 1.754 1.227zm28.649 32.508c-.192-4.015.037-8.978 4.736-6.033-1.631 2.087-3.122 3.964-4.736 6.033zm46.94 29.332a3229.27 3229.27 0 0 1-8.927 7.875c.824 1.28 1.841 2.683 2.56 4.103-4.683 2.859-4.753 5.665-2.667 7.296-1.122 2.595-2.315 5.366-3.438 7.962-1.228-.351-2.297-.579-3.419-1.07-1.719 2.21-3.543 4.56-5.245 6.788a390.05 390.05 0 0 0-3.525 4.577c-1.369 5.296-2.439 10.54-3.545 15.994-3.981.474-7.628.93-11.416 1.562-.895.369-1.456.719-2.227.93-1.123-.491-2.175-.701-3.42-1.034-2.297-1.736-1.595-4.612-5.839-3.805l-7.908-3.032c.158-.614.123-1.351.281-1.964 4.647-1.737 7.383-4.964 10.452-8.209-4.962-3.734 1.913-6.401 1.177-12.889.982-1.263 1.982-2.543 2.947-3.823 2.455-3.192 4.788-6.191 7.103-9.208 2.07-1.508 5.507-2.807 3.158-6.068 8.137-2.246-2.383-13.643 9.278-9.909 2.21-1.649 4.279-3.122 6.699-4.631 6.33 9.802-4.07 16.73-7.859 24.762 6.33 1.595.683 4.998 2.383 8.277 2.087.438 4.279.701 6.489.981-.579-1.596-1.368-3.296-2.087-4.717.106-4.489 6.928-8.541 8.069-14.24l9.875-10.611c.368 1.49.753 2.963 1.051 4.103zm-91.868-25.853c-1.438 2.21 2.191 6.12-.439 8.014-2.105.772-4.35 1.719-6.367 2.789-.385-3.437-.77-6.874-.963-10.153 1.316-.579 2.842-1.263 4.157-1.842.912.386 1.788.456 2.613.543.193.123.596.386.999.649zm-20.313 37.882c-2.227.965-4.454 1.929-6.576 2.719-1.877 2.894.402 7.803 2.05 10.819-1.63-2.998-3.927-7.925-2.05-10.819 2.104-.807 4.332-1.772 6.576-2.719zm30.334 28.159c.421 2.209 1.911 4.611-.124 8.084-1.403-.912-2.613-1.701-4.033-2.63l4.157-5.454zm50.883 43.341c-.614 1.982-1.07 3.806-1.666 5.77-.807.667-1.807 1.21-2.473 1.701.525 4.104-3 7.98-1.475 11.54a4919.843 4919.843 0 0 0-6.174 11.82c-2.158 4.051-4.123 7.944-6.035 12.136.877 2.42 1.964 4.98 3.05 7.54-1.543 2.069-2.946 3.999-4.49 6.068-1.437-2.069-2.893-4.155-4.225-5.944 2.824-2.228 1.053-5.436 4.666-8.313l-4.875-3.086c-.28-2.77-.56-5.751-.858-8.54 1.386-3.84 3.017-6.804.896-10.749 1.509-2.806 3.228-5.507 4.736-8.313 3.262-2.386 6.524-4.806 9.944-7.314a63.12 63.12 0 0 0-2.016-1.28c-.474-.544-.842-1.263-1.543-1.929.596-.807 1.21-1.596 1.789-2.385 1.754-.772 3.332-1.649 4.893-2.509a651.341 651.341 0 0 0 5.856 3.787zm-94.478-42.844c5.98-4.332 4.894-7.699 5.297-10.592-.386 2.911.683 6.26-5.297 10.592zm21.379 102.934c-.036 2.105-.036 3.753.034 5.682-2.823-.578-5.646-1.157-8.505-1.735l4.596-6.349c1.21.754 2.454 1.508 3.875 2.402zm-32.686-9.956c.14 3.157.262 6.12.402 9.277-1.859-.701-3.612-1.543-5.489-2.226l2.772-7.541c.737.245 1.578.28 2.315.49z"/><path fill="#FED8A1" d="M301.504 283.953c.263 1.175 2.752 4.191-.334 5.699-2.982.632-5.945 1.246-8.909 1.86-.421-1.788-.894-3.84-1.314-5.629.385-.456.771-.947 1.28-1.56 2.929-.159 6.155-.335 9.277-.37zm-52.955 84.866c.841 2.49 1.735 5.102 2.577 7.592-3.893.808-8.032 1.65-11.925 2.457-.404-.263-.807-.526-1-.684 1.895-3.612 3.947-7.383 5.771-11.276 2.017.157 3.174.964 4.577 1.911z"/><path fill="#FEDEB1" d="M409.562 163.13c-2.735.948-.404 3.736-.491 5.647-2.105 2.42-4.245 4.841-6.35 7.261-1.718-1.297-3.647-2.735-5.54-4.173-1.807-.859-3.472-1.858-5.261-2.7l1.439-4.945c2.578-2.578 5.209-4.858 7.997-7.296 2.666 1.998 5.331 4.032 8.206 6.206zm-30.498 15.735a8.783 8.783 0 0 1-.526.596c-2.175 1.403-3.403 7.26-7.155 3.192l.264-5.839c1.245-.333 2.472-.649 3.753-.702 1.157.877 2.507 1.876 3.664 2.753zm-33.226 85.511c-1.438.21-2.648.579-3.876.93-4.681-2.612-.156-5.805 3.93-8.068-.141 2.385-.281 4.77-.054 7.138zm-1.86 9.294c-1.667 2.017-2.684 3.28-2.386 6.665-1.789 1.438-3.718 3.016-5.314 4.577-.982-.701-1.947-1.385-2.929-2.086.422-3.157 2.79-6.401 1.44-10.803 1.666-1.28 3.332-2.56 4.7-3.788 1.543 1.858 2.946 3.577 4.489 5.435zm-41.526.042c-2.754 2.999 3.91 3.524 3.541 6.242-1.35 1.28-3.016 2.561-4.49 3.999-3.104.018-6.348.211-9.276.37-.088-2.543.947-3.788.141-5.858 1.543-1.894 3.21-3.911 4.893-5.98.369-.474.772-.947 1.281-1.561 1.367.982 2.525 1.823 3.91 2.788zm-53.903 95.107c-1.402-.947-2.577-1.736-4.594-1.893l3.07-7.454c.947-.842 2.105-1.508 3.385-2.368 3.086 1.859 1.858 6.173 5.154 8.171-2.472 1.246-4.84 2.316-7.015 3.544zm-2.405 135.976c.263 2.052.526 4.139.999 6.331-.685 2.157-3.508 2.736-4.893 2.578-.509-1.736-1.087-3.752-1.595-5.523-2.578-.929-5.384-1.981-8.084-2.752 1.315-1.772 2.754-3.736 4.069-5.507 3.192-1.053 5.769 1.068 9.768.507-.106 1.368-.351 2.876-.264 4.366zm35.104 25.808c-3.613 2.876-1.825 6.103-4.666 8.313 1.368 1.788 2.805 3.857 4.225 5.944-.245.316-.368.473-.596.807-5.63 2.789-3.333 4.91-4.473 6.085-2.823-2.226-2.806 1.754-5.313 1.141-2.105-.385-4.086-.929-6.068-1.437-.087-.298-.263-.859-.42-1.438 1.333-2.21 2.35-4.384 3.683-6.594 1.369-2.666 4.28-4.595.563-8.803.123-.158.351-.491.473-.649 2.596-1.895 4.841-3.754 7.226-5.788.123-.158.351-.491.474-.649l4.892 3.068zm-79.329-35.586c-.158.613-.105 1.367-.193 2.262-2.736 3.753-6.437 7.173-2.545 13.205l-2.876 3.928c-2.437-1.525-4.664-2.945-6.909-4.348-.298-1.63-.473-3.419-.56-4.91 1.807-5.313 2.579-10.82 5.789-15.994 2.402 2.017 4.787 4.016 7.294 5.857z"/><path fill="#FED190" d="M268.691 533.937c-.122.158-.35.491-.473.649-1.999 1.087-4.192 2.052-6.261 2.859.316-2.841.316-5.682.633-8.522a22.508 22.508 0 0 0 3.016-.457l3.085 5.471zm-33.561-20.231c-1.789 2.42-3.455 4.682-5.244 7.138-1.104-4.963-1.068-9.452 3.403-8.278 1.245.754 1.648 1.017 1.841 1.14zm18.109 37.576c1.718 2.946-.947 4.56-2.841 5.963l-.51 4.367c-.561.35-1.315.579-2.069.807l-4.892-3.033c1.859-.948 3.665-2.193 5.437-3.438-.263-.86-.509-1.736-1-2.718 1.965-.632 3.929-1.299 5.875-1.948zm15.307 13.974c3.841 1.21 7.699 2.437 11.434 3.822.279 6.909-4.753 4.507-11.558 6.122-.526-1.719-1.139-3.736-1.665-5.454-2.192.965-4.261 1.807-6.243 2.912-.404-.263-.824-.508-1.017-.631 3.595-4.543-.858-7.769 8.857-10.155.123 1 .175 2.174.192 3.384z"/><path fill="#FFF3E3" d="M472.621 171.573c2.367 3.805-1.298 5.717-3.298 6.945-.929 1.771-1.929 3.262-2.841 5.051-2.613-2.472-4.033-5.541.159-7.067 1.894-1.824 3.876-3.315 5.98-4.929zm-59.882-27.68c-.053 2.227-.228 4.612-.211 7.154-3.315 1.246-6.699 2.947-9.979 4.509-1.262-2.21-1.543-3.683-1.841-5.173 2.789-3.946 6.507-6.402 12.031-6.49z"/><path fill="#FEE4BF" d="M341.707 330.892c-.298.754-.281 1.508-.263 2.227-.035-.737-.035-1.473.263-2.227zm-37.055 9.352c.35.737.683 1.455 1.35 2.157l-.614.789c-.807 2.14-1.684 4.454-2.474 6.576-3.052 4.49-6.104 8.945-9.173 13.452-1.245 1.561-2.368 2.999-3.631 4.578-.245-2.105-.508-4.262-.753-6.366-.403-.263-.789-.543-.982-.666.597-1.543 1.421-2.929 2.017-4.472 1.772-1.456 3.35-3.07 5.244-4.683 2.947-1.368.422-4.349.247-5.682 2.648-1.842 5.77-3.841 8.769-5.683zm.491-.632z"/><path fill="#FED8A1" d="M259.48 572.01c.21.14.631.386 1.017.631-.386-.245-.789-.508-1.017-.631z"/><path fill="#FEDEB1" d="M363.268 272.23c-.263.298-.386.456-.649.754.263-.298.386-.456.649-.754z"/><path fill="#FED190" d="M211.776 481.652c-.316 3.648 3.56 3.244 1.753 9.259-5.332 2.807-2.772 5.402-8.016 10.927-1.473-1.649-2.525-3.051-3.787-4.559.07-.912.035-1.649.193-2.263 7.05-1.509.422-7.891 9.857-13.364zm-.525-1.298c.07.281.245.877.525 1.298-.28-.421-.438-1-.525-1.298zm97.533-216.271c-.386-.28-.771-.561-.982-.701.193.158.596.421.982.701zm-46.862 273.362c.544 1.28 1.21 2.402 1.648 3.402-1.14 2.332-2.14 4.525-3.491 6.752-1.841.509-3.367.947-5.103 1.281-.701-.667-1.069-1.385-1.56-1.911 1.772-7.629 5.104-8.12 8.506-9.524z"/><path fill="#FEE4BF" d="M341.444 333.119c-1.333 1.262 3.086 2.63-1.895 5.752-1.333 1.263-2.981 2.561-4.437 3.981-1.262-1.858-2.262-3.279-3.472-4.839.386-.456.755-.93 1.263-1.544l2.911-.175c.369-.474.754-.93 1.246-1.561 1.35-.544 2.823-1.246 4.384-1.614z"/></g><g opacity=".9"><path fill="#FFF3E3" d="M319.252 150.728c1.07 1.771-.474 2.999-1.105 4.332l-10.576 12.89c-2.912 2.526-4.596 6.559-3.649 10.487-1.421.509-2.666.983-4.087 1.492-1.614 4.209-3.14 8.435-5.332 12.03-1 1.281-2.053 2.649-3.035 3.911-4.121 2.158-4.332 5.946-7.559 6.507-.859.965-.333 2.298-.404 3.56-3.157 2.421-4.402 6.051-4.858 8.541-.983 1.158-1.895 2.21-2.754 3.42.123.053.368.193.614.333-3.07 5.489-6.07 10.874-9.139 16.328-2.771 2.666-4.35 3.753-3.789 5.366-.333.614-.737 1.298-1.052 1.894l-2.175 3.894-5.086 2.21c-.789-1.841-1.578-3.717-2.349-5.541l2.175-3.893c.333-.614.737-1.298 1.052-1.894.491-1.158.913-2.491 1.404-3.648l3.683-5.437c-.736-.386-1.596-.859-2.35-1.262.597-1.368 1.088-2.806 1.562-4.227l2.946 1.613c.719-.123 1.368-.421 2.016-.719 1.088-.211 2.333-.439 3.403-.632.824-1.491 1.596-2.894 2.403-4.297.614-.578 1.14-1.069 1.736-1.666-.403-.999-.859-2.157-1.262-3.156 1.876-1.596 1.473-2.596.754-2.718-1.315-1.35-2.788-.473-4.138-.947l-1.578-3.998c.807-.596 1.649-1.192 2.596-1.719 1.087-1.613-1.21-3.805-.736-5.506 1.403-1.052 2.701-2.175 4.157-3.35.806-.596 1.631-1.175 2.578-1.701 1.42-.79-.561-2.14.123-3.069 3.561-5.735 7.034-11.523 10.682-17.24 2.526-1.859 3.403-2.806 3.14-4.016 2.771-4.49 5.648-8.909 8.577-13.417 2.35-1.824 3.455-5.138 5.157-7.716 3.209 1.174 4.103 1.016 5.015.876a47.378 47.378 0 0 1 2.946 2.98c1.034 1.245 2.227-.193 3.822 1.508 1.438-.842 2.929-1.701 4.472-2.403z"/><path fill="#FFFCF7" d="M271.667 213.181c.404 1 .859 2.157 1.263 3.157-.614.579-1.14 1.07-1.737 1.666-.772 1.403-1.561 2.788-2.403 4.297a273.5 273.5 0 0 0-3.402.632c-.649.298-1.28.578-2.017.719l-2.946-1.613c.755-.754 1.561-1.631 2.175-2.455 1.246-1.667-.175-2.841.509-3.49.351-.351.772-.491 1.053-.737.123-1.385.14-2.806.123-4.226 1.14-.298 2.332-.439 3.455-.72l.508-.894c1.351.473 2.806-.421 4.139.946.754.123 1.157 1.122-.72 2.718z"/><path fill="#FFF3E3" d="M271.313 239.872c2.034 2.665 2.244 3.156 2.525 3.822-4.438 2.789-2.755 9.242-8.525 10.944-.07 2.139-.316 4.349-.439 6.611-.597 2.245-4.402 3.07-2.631 5.963-1.07 1.105-2.175 2.21-3.245 3.315-.912 1.964-1.719 3.998-2.509 6.015-.964 1.175-1.929 2.35-2.771 3.578-.438.789-.824 1.49-1.315 2.402.42.982.929 2.052 1.034 3.63 2.543-1.736 3.104-2.753 3.648-3.753.421.105.912.105 1.332.21l2.964 1.561c-.246 1.297-.456 2.595-.562 3.963-.579 1.35-1.07 2.788-1.509 4.209-.526 1.262-.982 2.7-1.543 4.068-.158.298-.334.614-.544 1-.93.544-1.929.912-3.034 1.491.964 2.052-1.947 2.718-3.297 3.157-.281.246-.684.403-1.018.737-1.052 1.368-2.227 2.964-3.227 4.489-1.087-2.104.579-3.419 1.351-5.454-1.753-.911-2.35-1.227-2.981-1.542.386-.702.702-1.298 1.281-2.403-.456-1.508-.894-3.034-1.403-4.454-1.77-1.455-3.594-2.788-5.418-4.12-.613-.333-1.104-.579-1.718-.912-1.543-2.735.667-6.874 3.35-6.226.351-.315.754-.508 1.175-.684 1.316-.088 2.578-.333 4.016-.334.018-1.42.001-2.946.001-4.384-.965.018-1.982-.157-2.894-.227-.911-.701-1.788-1.368-2.7-2.069-1.56-1.21-1.174-5.138-4.822-3.699-.403-.719-.859-1.351-1.315-1.982 1.088-.842 2.14-1.859 3.105-2.753.947-2.877-3.297-3.577-4.997-6.295-.439.789-.825 1.526-1.316 2.402-1.245.509-2.648 1.071-3.893 1.579l-.842 1.508-.491.912c-.211 3.262-1.456 4.683-.562 6.559-1.158.702-2.193 1.316-3.333 2-.035 3.612-5.594 3.034-3.911 7.278.123.052.368.193.613.333.158 1.49.298 2.999.526 4.664-.421.807-.825 1.526-1.526 2.824.21 1.403.525 2.841.788 4.156-2.999 1.421-2.421 7.12-6.542 6.542l-4.839-2.525c.263-.508.543-.999.754-1.42-4.629-4.348.948-6.489-1.279-8.821.228-1.315 1.701-1.981 3.683-1.193l3.718-5.436a224.405 224.405 0 0 0-1.893-3.577c2.403-3.911 3.386-9.243 9.611-9.226.667-.947.72-2.473 2.719-2.333a192.968 192.968 0 0 0-2.209-2.981c.561-1.017-.824-4.611 2.999-4.016.228-.403.386-.701.544-.999-.351-1.999.211-3.017.754-4.016 1.859-.176 3.788-1.088 5.63-.65 2.332 1.876-.281 2.841 1.139 4.892 1.859-.175 3.875-.403 5.804-.684 4.367 1.034 4.946-.878 5.945-2.404a25.737 25.737 0 0 1 2.771-.982c1.07-1.105.404-2.508 1.246-3.735 1.455.262 2.841.35 4.349.49-1.123 3.542 2.664 5.33 2.331 6.821-1.105 1.736-2.28 3.297-3.403 5.051-.701 1.298-1.368 2.49-2.087 3.806-.772 2.56-1.351 5.103-2 7.716 2.964-3.069 4.612-4.648 4.332-6.472.719-1.315 1.386-2.507 2.087-3.805.983-1.789 1.93-3.508 2.912-5.297.491-.876 1.053-1.894 1.596-2.893 1.368-.667 2.771-1.369 4.157-2.053.246-1.297.544-2.683.649-4.051 2.07-3.156 4.21-6.383 6.245-9.716-.07-.175-.211-.491-.404-.719.509.193.895.404 1.263.597z"/><path fill="#FFFCF7" d="M214.821 290.016c-.071 2.806-.79 4.121-1.509 5.436-1.017.106-2.122.684-3.121.176-.158-3.84.456-5.577 1.859-6.419 1.526.158 2.14.491 2.771.807z"/><path fill="#FFF3E3" d="M219.004 349.341c-1.07 1.491-2.14 2.981-3.193 4.455-2.244.736-2.753 3.139-3.525 4.928a558.693 558.693 0 0 1-2.456 5.612c-1.263 1.789-2.526 3.542-3.789 5.331-.859 1.21-1.719 2.421-2.596 3.648l-2.192 3.069c-.86 1.211-1.737 2.438-2.596 3.648-.386.562-.859 1.21-1.263 1.789-.736.351-1.578.772-2.315 1.123l-2.087 5.173c-.421 1.088-.772 2.07-1.299 3.087-1.14 2.122-2.403 4.156-3.473 6.208-4.612.264-1.877 5.84-6.577 8.191-.193 1.49-.334 2.893-.456 4.279-1.333.912-2.544 1.946-3.684 2.841a16.104 16.104 0 0 0-.368 2.999c-.807.701-1.509 1.227-2.157 1.911-.422 1.333-2.035 1.719-3.823.913a31.22 31.22 0 0 0 1.297 3.998 442.442 442.442 0 0 0-2.965 5.314c-.245.105-.614.158-.807.175-1.999 3.894-3.946 7.945-5.806 11.908.403.895 1.385 2.157 1.298 2.771l-.579.859-2.649 1.632c-.876.806-.842 1.753-1.07 2.577-3.735 3.771-.93 5.595-1.421 8.085-.404 1.105-.825 2.192-1.263 3.122-3.385 1.035-5.122 5.086-6.192 7.909-.912-.14-1.946-.333-2.858-.473l-2.508 3.701-2.631 1.649c-.211.806-.544 1.56-.474 2.928.351.211.737.421 1.192.701l-.456 2.947c-.368.298-.929.649-1.368 1.052.088.859.263 1.876.473 2.788-.789 1.947-1.509 3.788-2.175 5.787 1.542 3.963-3.105 6.682-1.492 10.54-.632 1.228-2.859 1.526-2.158 3.244-.701 1.053-1.473 2.21-2.157 3.245-2.999 3.034.49 7.295-4.841 8.593-1.368.807.21 2.245.192 3.28a2514.95 2514.95 0 0 0-3.333 5.086c2.35 1.472-1.21 2.613-.579 4.682-1.017 1.543-2 3.087-3.017 4.63-.491.246-.929.403-1.245.614-1.403-.666-2.981-1.297-4.419-1.858-.473-1.315-.929-2.648-1.402-3.963-.035-.947-.263-1.877-.421-2.911.386-1.368.842-2.841 1.176-4.367.614-2.964-1.21-4.016-.525-5.331.122-.193.245-.386.315-.491.562-1.648 1.088-3.227 1.614-4.77l1.509-2.315c.035-1.298.07-2.63.035-3.823.842-1.789 3.333-3.262 1.685-6.068.14-.982.298-1.946.333-2.998 1.193-.772 2.245-1.614 3.368-2.561.298-2.227.035-3.578.141-4.981-.14-1.543-.158-3.033-.105-4.594 1.877-1.561.72-3.841 2.719-5.349.561-.596 1.193-1.052 1.877-1.561-.596-.877-.982-1.789-1.526-2.753.649-.965 1.228-1.824 1.86-2.771.842-1.228 1.613-2.385 2.455-3.648 1.316-2.297 2.579-4.507 3.842-6.682-1.139-5.769 7.051-10.943 7.052-16.415 1.912-4.612 4.034-9.119 6.052-13.802a9857.697 9857.697 0 0 0 8.525-19.326c.333-.473.667-.947.912-1.333 1.087.386 2.052.719 3.192 1.263.912.14 1.052-.562 1.455-1.141-.789-1.034-1.367-2.174-2.735-2.875-.105-3.718 1.86-5.331 1.772-7.418.597-.842 1.246-1.807 1.842-2.648 2.139 1.297 4.156 2.542 6.295 3.839.526.456.982 1.017 1.508 1.473-.895 1.596-1.842 3.315-2.684 4.823-1.228 3.016-2.403 5.945-3.579 8.839-.403.578-.841 1.227-1.245 1.806-.947.912-1.964 1.894-2.806 2.876-.649 2.157-1.281 4.332-2.035 6.419-.965 1.42-1.877 2.753-2.859 4.191-.421 1.614-.509 3.455.069 5.787 1.298-.701 2.701-1.438 3.999-2.14.473-1.175.964-2.367 1.561-3.49.21-.806.474-1.455.702-2.244l.578-.86.965-1.42c3.666-2.614 3.438-4.49 4.964-5.981.07-.105.193-.298.333-.473.421-1.368.912-2.806 1.281-4.332.964-.894 1.894-1.789 2.806-2.841.316-1.684.772-3.297 1.176-5.068.052-.088.21-.281.333-.474 1.596-.088 3.262-.035 5.033-.158-1.455-1.07-2.928-2.157-4.366-3.209-.105-.07-.351-.21-.596-.351.456-.666.842-1.227 1.315-1.876 7.086-4.806 2.246-10.733 7.21-14.96-.21-2.139.702-2.946.509-4.121 1.052 0 2.192-.018 3.244-.018-.561-1.157-1.104-2.297-1.613-3.542.983-1.157 2.017-2.122 3.122-3.192-.859-.754-1.648-1.473-2.507-2.227.631-1.368 1.175-2.648 1.947-3.946 1.508.246 2.911.491 4.419.736.105.07.351.211.579.368l-2.719 4.788c1.192.737 2.367 1.455 3.437 2.139.824-2.858 7.067-1.281 3.525-4.963 2.28-1.544.948-2.771 1.596-3.455.527-1.017.895-2.017 1.456-2.999-.034-2.841-4.874-3.717-3.401-6.733.386-.562.807-1.123 1.263-1.789.474.298 1.052.666 1.666 1.034.912 1.122 1.771 2.052 2.77 3.086 2.298-.859 4.542-.404 6.016-2.719a82.62 82.62 0 0 1 1.666-4.752c.106-.632-1.56-2.613-.052-3.28 1.017-1.403 1.947-2.718 2.947-4.104 1.473.105 3.034.298 4.682.403a73.61 73.61 0 0 0 .333 4.051z"/><path fill="#FFFCF7" d="M160.582 404.5c1.368.701 1.929 1.859 2.735 2.876-.385.561-.543 1.28-1.455 1.14-1.14-.544-2.104-.877-3.192-1.262.667-.947 1.316-1.912 1.912-2.754z"/><path fill="#FEECD1" d="M420.221 69.152c-.421.666-.755 1.245-1.123 1.824-3.052 2.245-1.491 2.929-.527 3.507a36.718 36.718 0 0 0-.526 3.507 40.375 40.375 0 0 0-2.631 2.877c-2.684 3.525-7.418 1.597-6.559 5.542 1.227 3.613-5.297 2.772-4.245 6.945-2.543 2.543-5.718 3.158-5.139 5.735-.298.474-.526.877-.825 1.351l-1.403 2.315c.912 1.999.684 2.367.578 4.156-1.368-.175-2.876-.386-4.296-.719-.474.79-.947 1.544-1.421 2.298-3.034 1.21-3.507 2-4.595 2.421-1.245.964-2.56 1.754-3.928 2.666.35 3.752-2.93 7.593-4.684 9.172-1.385-.158-1.403 1.263-1.999 1.964 2.612 2.963-2.49 1.158-2.596 2.947-3.894 3.753-8.296 8.12-9.752 13.82l-1.403 2.315c-5.963.737-3.93 7.786-8.437 10.154-2.21 4.595-8.05 8.436-9.472 14.662-2.437 1.351-5.191 3.298-5.209 6.401a2264.921 2264.921 0 0 1-3.806 6.577c-6.437 4.438-8.121 12.084-12.365 16.048-7.35 9.663-12.63 22.167-19.593 31.515-1.385-.087-1.28 1.386-1.964 2.035 2.542 2.296-1.351.964-1.614 2.876-2.175 4.735-6.63 9.576-6.456 14.415-.158.299-.333.579-.508.895-.947.526-1.754 1.122-2.561 1.719-.579 1.596-2.262 2.894-2.035 5.086-.561.982-1.087 1.964-1.596 2.858-1.526 1.877-2.789 2.368-2.158 3.841-3.613 5.647-6.682 9.558-7.875 14.328-.158.298-.316.597-.492.912-.543 1-1.035 1.877-1.578 2.876-1.369 5.682-8.453 4.386-5.245 9.558a262.487 262.487 0 0 1-2.087 3.771c-4.718 4.578-6.508 7.98-9.63 12.259-1.087 2.911-2.175 5.788-3.245 8.681-2.508 2.017-3.104 3.105-3.701 4.227-.982-.245-1.841-.438-2.63-.736-1.21.789-2.491 1.649-3.701 2.438 1.859 2.735-3.859 5.998-2.439 8.821-.193 2.438-3.928.211-3.016 3.227 0 .947-.211 2.42.964 3.174-.263.368-.474.649-.667.912.298 1 .666 2.174.964 3.174-1.631 2.473-.947 3.437-1.228 5.016-1 .438-2.14.806-3.244 1.175 1.893 2.139-.755 3.174-.036 4.559.596 1.298-1.579 2.912-2.894 3.981l-3.192 4.455c-.386.561-.86 1.21-1.246 1.771 1.736 1.877.14 2.911-.737 3.438-1.42 1.526-2.788 2.964-4.104 4.56-.579 1.525.175 2.385-.404 2.963-.999.439-1.894.983-2.788 1.491-.579.579.21 1.614-1 2.613-.596.842-1.245 1.772-1.912 2.719-.281.631-.509 1.42-.667 2.139-.473.93-.894 1.982-1.456 2.999l-.596.842c1.771 2.297-.982 3.543-.229 5.103-.666 0-1.21.053-1.771.088l-1.912 2.719c-.771.596-1.42 1.28-2.174 1.894-.72 3.7-4.701 6.489-5.754 10.663.596.35 1.07.648 1.666.999-.035.526-.228 1.07-.316 1.683-.737 1.298-1.351 2.649-1.895 3.929-.754.088-1.297.14-1.858.211-.281.876-.702 1.718-.983 2.595.368.228.719.438 1.193.736-.123.193-.211.281-.334.474-1.07 1.876-2.175 3.753-3.245 5.63a391.342 391.342 0 0 0-4.787 2.298c.175.245.157.508.28.841-.246 1.579-.421 3.087-.79 4.577.281.842-.544 2.999.719 3.63-1 .474-2.122.86-3.21 1.246-1.683.982-.105 2.595.105 3.261a1115.09 1115.09 0 0 0-6.051 6.613l-.579.859c1.754 1.858.193 2.893-.807 3.367l-1.228 1.789c1.806 2.016-.07 3.016.526 4.173-2.333 1.807-4.665 3.578-6.998 5.385-.211.807-.351 1.508-.614 2.157.631 2.771.122 3.525-.983 3.928-1.105 1.877-2.07 3.824-3.122 5.858 1.823 1.753.28 2.806-.702 3.297-.842 1.227-1.666 2.473-2.508 3.7 1.893 1.894.21 2.911-.65 3.455-.947.912-1.771 1.877-2.718 2.789-1.632 3.946-4.42 8.137-5.35 11.557 1.525 2.472-.527 4.068-1.842 5.279 1.577 2.63-1.457 4.436-1.001 6.295-1.579 4.385-.545 9.312-4.702 13.118 1.245 1.911-2.753 3.946 1.368 5.261-3.982 4.542-.931 9.066-4.913 13.609-.509 2.332.438 3.665-.702 5.892-.912-.912-1.824-.526-3.472-.806-1.386 2.613-2.772 5.261-4.21 7.716-1.823-.771-3.77-1.595-5.523-2.472a245.278 245.278 0 0 0-4.121-2.331c-.228-.93-1.017-1.508-1.42-2.648-2.28-1.823-4.647-3.559-6.874-5.225-1.437-.596-2.981-1.262-4.418-1.858.035-.772.07-1.684.105-2.455 1.789-.702 3.455-1.456 5.367-2.105.228.403.473.789.789 1.104 2.367.965 4.611 1.841 7.049 2.7.596.596 1.315 1.28 1.963 1.788-.245.386-.438.684-.613.965-.579.859-1.193 1.824-1.825 2.771 1.421-.088 2.736-.176 4.157-.264l2.858.438 4.454.561c-.824-1.526-1.718-2.946-2.612-4.647-.053-.158-.175-.491-.228-.649.702-1.578 1.333-3.051 2.14-4.559 2.473-2.263-.017-2.508-.07-3.718.246-.386.439-.684.632-.947.789-.193 1.473-.456 2.087-.649.561-1.649 1.087-3.192 1.544-4.911.999-.999 2.052-2.122 2.981-3.297-.35-.982-.753-2.157-1.104-3.139.561-.07 1.105-.158 1.841-.263.386-.561.825-1.245 1.211-1.807.631-.701 1.385-1.315 1.999-1.999 2.841-1.789-1.648-2.806-1.542-4.735l2.403-3.63c.859-.965 1.789-1.999 2.648-2.964.456-1.438.877-2.806 1.333-4.244-.771-.841-1.543-1.683-2.261-2.647-.176-.246-.176-.491-.298-.825-.018-1.21 0-2.525.088-3.665-.017-1.736.07-3.402.193-5.068.737-.877 2.701-.526 2.912-2.14 2.735.421 1.456-1.666 1.789-2.665.386-.842.666-1.719.947-2.631 1.579-1.052 3.034-2.052 4.63-3.122-.841-.491-1.56-.929-2.279-1.332.088-1.14.368-2.298.596-3.368.982.035 2.017.263 2.929.403.579-1.104 1.052-2.315 1.579-3.577 1.385-.79 2.806-1.649 4.244-2.526.14-.702.351-1.508.614-2.157l-1.911-3.139c.982-.21 1.964-.421 2.894-.789.158-.965.298-1.947.456-2.911-1.946-1.842-.263-2.824.667-3.473.631-1.192 1.245-2.578 1.859-3.963-2.016-1.736 1.824-3.157 1.123-5.051.807-3.121 3.193-4.875 3.474-7.506 1.333-2.666 2.613-5.244 3.929-7.927l1.561-2.262c.053-1.315-2.332-1.28-2.209-2.665.263-.369.579-.86.912-1.333-1.648-3.016-.227-5.068 1-5.139 3.279 1.596 3.455.894 3.841.333-.123-1.28-1.894-1.438-2.859-1.736-.333-1.42-.683-2.963-.999-4.366.527-.737 1.053-1.508 1.579-2.245 3.858.07 2.491-4.525 5.314-6.401 1.439-3.017 3.316-6.682 1.457-10.119.842-.947 1.807-1.842 2.719-2.894.473.298.824.509 1.192.737 2.614-2.018-.052-2.578.65-3.35.263-.368.456-.666.666-.947 4.034-.211 6.664-2.456 4.367-3.771 2.614-2.017.018-2.683.737-3.437.614-1.105 1.105-2.298 1.719-3.402 3.964-1.018 5.454-.229 7.015.454 1.385-.754 3.613-2.455 2.596-4.84-.263-.824-.508-1.666-.666-2.42 1-.438 2.069-.737 3.244-1.21.614-1.105 1.018-2.876-.402-4.016.876-.526 1.753-1.053 2.665-1.579a300.527 300.527 0 0 0 1.789-3.472c1.701.263 1.228-2.455 3.823-.842.422-1.088.79-2.052 1.351-3.07-2.279-3.471-1.945-7.031.686-9.978 1.946-1.736 3.086-3.051 2.631-4.805 3.157-2.456-1.105-2.753.439-4.191.771-.597 1.543-1.193 2.192-1.842 2.07-.982-.122-2.928.632-4.209 1.122-.105 2.403-.228 3.507-.316 1.263-2.455 2.368-3.77.738-6.734 1.929-2.42 3.297-5.226 4.999-7.804 1.245-2.298 2.438-4.507 3.613-6.7.982-1.543 2.158-3.104 3.228-4.489.333-.334.754-.509 1.017-.737 1.35-.439 4.244-1.123 3.297-3.157 1.105-.579 2.105-.947 3.034-1.491.211-.386.386-.702.544-1 .579-1.35 1.035-2.788 1.544-4.068.456-1.438.929-2.859 1.508-4.209.106-1.368.334-2.648.562-3.964l-2.963-1.56c-.421-.105-.912-.105-1.333-.21-.544 1-1.088 1.999-3.648 3.753.56 3.893-.913 5.191-2.614 4.823-.385-.736-.859-1.35-1.192-1.929.719-1.034 1.614-2.104 2.333-3.139-.964-2.578 1.105-4.051 1.754-5.787.842-1.228 1.807-2.403 2.772-3.578 1.139.228 2.174.385 3.454.683.105-.21.211-.385.263-.508.316-1.123.544-2.157.983-3.227-.333-.824-.684-1.666-1.087-2.385 1.175-.684 2.332-1.35 3.455-1.912.736.386 1.613.842 2.332 1.245.245-.14.596-.211.894-.158 1.123.596 2.35 1.262 3.577 1.893.351-1.227.755-2.543 1.228-3.717.053-.088.158-.299.229-.404.666-.912 1.473-1.789 2.209-2.56.351-.316.755-.474 1.053-.737l.193-2.999c-.087-3.91.72-6.19 3.701-6.647.298-.228.702-.386 1.158-.666l1.316-6.647c-3.735-.473-.385-3.051 1-3.209-.596-5.226 3.105-6.717 4.561-9.295.473-1.42.947-2.841 1.544-4.209 1.088-7.716 12.311-10.102 9.875-18.853.544-1.245 2.701-1.613 1.86-3.262.701-2.069.368-2.648.14-3.051-1.56-1.771-3.577.632-1.859 2.105-.438.789-.842 1.473-1.333 2.385-2.402-1.455-1.614 1.964-3.402 1.754.087 2.402-2 4.349-2.93 6.576-2.367-1.805-3.384 1.141-4.577 1.246a96.52 96.52 0 0 1-2.332-1.28c1.456-2.578 2.929-5.138 4.333-7.629 1.771-.578 1.999-2.665 1.578-4.208.702-1.684 1.386-3.385 2.105-5.086 1.509-1.228 3.017-2.491 4.543-3.736.351-.596.719-1.28 1.07-1.877a457.49 457.49 0 0 1 1.649-2.876c1.543-2.666 3.069-5.314 4.613-7.98 3.683-1.613 5.542-3.157 5.297-5.261.508-.895 1.087-1.859 1.596-2.754.701-.912 1.508-1.753 2.262-2.508.316-1.648 1.474-1.122 2.806-.912 2.683 4.261 5.559 3.524 4.683.017.333-.579.736-1.263 1.087-1.859.649-.824 1.456-1.666 2.263-2.508 2.928-.579.456-3.542 2.122-5.068a47.993 47.993 0 0 1 3.42-3.035c.754-1.28 1.491-2.543 2.21-3.718 2.579-2.718 4.631-4.56 3.316-6.997.456-.772.929-1.561 1.385-2.333 1.088-.175 2.315-.386 3.403-.561.403-1.21 1.929-2.175 1.298-3.578 2.28-3.402 4.508-6.717 6.718-10.014-.263-.929-1.175-2.122-.579-2.823.947-.491 2.017-.93 3.104-1.351 3.648 3.156 4.104-2.21 4.49-3.683-.456-.912-1.472-2.175-1.42-2.788.07-.106.193-.299.246-.386 1.315-.825 2.56-1.544 3.805-2.263.457-.772.93-1.561 1.386-2.332 1.263.07 2.473.788 3.718.315.316-3.753 4.525-5.613 7.366-7.121.754-1.245 1.474-2.42 2.21-3.683.684-1.701 1.404-3.367 2.228-4.998.596-.982 1.14-1.842 1.719-2.806 4.314-.352 2.385-1.754 3.21-2.579.596-.701 1.297-1.332 1.894-2.034 2.473-3.806 9.225-5.192 10.804-9.927 2.858-2.508 6.471-3.912 8.558-7.542 1.737-1.982 3.403-3.894 5.244-5.805.719.438 1.561.929 2.894 1.735 1.403-.596 2.841-1.192 4.244-1.789 1.298-2.911 3.578-4.7 6.261-6.367.245 1.088.543 2.192.912 3.192zm-90.161 43.591c-.193 3.314-1.614 5.121-3.648 4.735-.245-3.963.772-5.366 3.648-4.735zm-13.821 16.661c1.122 4.454-.65 6.611-3.315 5.595-.386-1.263-.648-2.473-.911-3.683 1.385-.649 2.736-1.298 4.226-1.912zm-8.471 11.628c.666 4.069.42 5.892.209 7.611-.912.14-1.806.298-5.015-.876-.333-1.105-.824-2.192-1.14-3.279 1.368-.912 2.649-1.772 4.034-2.701.667-.281 1.315-.579 1.912-.755zm-32.345 49.141c-.684.93 1.263 2.28-.123 3.069-.947.526-1.771 1.105-2.578 1.702-1.683-1.578-.385-2.42-.981-3.683.07-1.508 2.122-.895 3.682-1.088zm-8.7 15.329c.526 1.332 1.069 2.682 1.578 3.998l-.509.894c-1.14.298-2.315.421-3.455.72-.017 1.42-.018 2.858-.123 4.226-.298.228-.702.386-1.052.736l-4.787-2.612c.842-1.508 1.631-2.893 2.403-4.296.14-1.088.175-2 .263-2.999.947-.772 1.877-1.561 2.736-2.28 1.561-1.877 3.105-3.771 4.788-5.595-.473 1.701 1.806 3.875.736 5.506-.964.509-1.771 1.105-2.578 1.702zm-23.68 45.247-.825 1.491c.964.894 2.016 1.841 3.069 2.822-1 1.526-1.544 3.438-5.946 2.404a112.54 112.54 0 0 1-5.804.684c-1.42-2.051 1.175-2.998-1.139-4.892.386-.701.719-1.315 1.105-2.017.982-2.069 1.894-4.314 2.806-6.559 1.281.018 1.631.228 2.122.473l4.612 5.594zm9.8 17.025c.28 1.824-1.386 3.385-4.332 6.472.631-2.631 1.228-5.156 2-7.717.719.369 1.473.772 2.332 1.245zm-20.113-8.115c1.7 2.717 5.944 3.418 4.997 6.294-.965.895-2.017 1.912-3.105 2.754-.438-.088-.894-.088-1.385-.087-1.122 1.473-2.263 2.964-3.262 4.489-.579.474-1.07 1.105-1.649 1.579-.894-.719-1.824-1.333-2.7-2.069-.894-1.876.369-3.314.562-6.559l.491-.912.842-1.508c1.245-.509 2.648-1.07 3.893-1.579.491-.877.86-1.596 1.316-2.402zm13.605 21.427c-1.456.018-2.701.246-4.016.334-1.122-1.999.474-3.49 1.123-4.946.912.105 1.929.246 2.894.228l-.001 4.384zm-34.111 19.347c-.526 4.244.859 5.314-2.175 5.437-2.227-1.42-1.139-3.876-1.665-5.734.193-.965-1.999.772-2.052-.298.316-.596.702-1.298 1.035-1.912l4.857 2.507z"/><path fill="#FEE4BF" d="M233.807 328.821c-.754 1.28 1.473 3.227-.632 4.209-.666.666-1.438 1.263-2.192 1.842-1.561 1.455 2.7 1.718-.439 4.191.438 1.771-.684 3.069-2.631 4.805-2.614 2.929-2.965 6.506-.686 9.978-.543 1-.929 1.982-1.35 3.069-2.595-1.613-2.14 1.088-3.823.843a222.111 222.111 0 0 0-1.79 3.472c-.876.526-1.753 1.053-2.665 1.579 1.402 1.157.999 2.928.402 4.015-1.192.457-2.262.755-3.244 1.211.14.772.403 1.596.666 2.42 1.034 2.402-1.193 4.103-2.596 4.84-1.543-.701-3.034-1.49-7.014-.455-.614 1.105-1.106 2.298-1.719 3.403-.72.754 1.876 1.42-.737 3.437 2.314 1.297-.317 3.577-4.368 3.771-.525-1.158-1.086-2.385-1.612-3.542.386-.562.859-1.21 1.262-1.789.86-1.21 1.737-2.438 2.596-3.648l2.193-3.069c.877-1.228 1.736-2.438 2.596-3.648 1.263-1.789 2.526-3.543 3.788-5.332a558.693 558.693 0 0 1 2.456-5.612c.79-1.806 1.281-4.191 3.526-4.928 1.07-1.491 2.14-2.981 3.192-4.455-.158-1.455-.263-2.753-.28-4.103.123-1.14.439-2.297.772-3.437 1.035-.018 2.052-1.421 3.753.49.333-.473.684-.929.947-1.298 1.123-1.333 2.298-2.473 3.543-3.718.596-.842 1.28-1.771 1.877-2.613-.579-.368-1.175-.754-1.754-1.122 1.649-1.789 3.28-3.595 4.806-5.472l5.42-6.296c1.648 2.945.507 4.261-.738 6.734-1.122 0-2.402.123-3.525.228z"/><path fill="#FEECD1" d="M229.598 334.644c-.597.842-1.281 1.771-1.877 2.613-1.245 1.245-2.403 2.403-3.543 3.718-.684-.964-1.42-1.841-2.156-2.718.105-2.77 2.894-4.261 5.805-4.718.596.386 1.175.754 1.771 1.105z"/><path fill="#FFF3E3" d="M187.545 339.28c-.649.684-1.421 1.28-2.192 1.877-1.702.964-.492 3.086.42 4.208 1.771.894 3.524 1.771 5.418 2.718-1.491 2.332-2.841 4.735-4.192 7.137-1.771-1.104-3.437-2.139-5.681-3.541-.123.193-.211.28-.334.473-2.016-1.49-4.015-2.963-5.926-4.383.298-.894.596-1.824 1.017-2.63 2.754-4.122 4.806-8.278 7.437-11.681.772.351 1.631 1.561 3.753 1.683.017 1.386.227 2.753.28 4.139z"/><path fill="#FEECD1" d="M192.525 344.995c-.544 1-.912 2-1.334 3.087-1.893-.947-3.647-1.823-5.418-2.717a48.928 48.928 0 0 1 3.911-2.158l2.841 1.788zm-12.488 8.454c1.035 3.104.175 4.314-.614 5.454-1.158-.035-2.298.614-3.244.018.211-3.928 1.123-5.682 3.858-5.472zm6.258 23.411c.508 1.245 1.051 2.384 1.612 3.542-1.052 0-2.192.017-3.244.018.175 1.192-.702 1.999-.509 4.121-4.981 4.209-.124 10.153-7.21 14.959-1.28-1.315-2.384-2.665-3.594-4.085 1.947-4.998 4.192-7.945 3.211-11.662 1.192-.491 2.438-1.07 3.683-1.649.596-.842 1.263-1.789 2.175-3.122.491-1.193 1.035-2.473 1.649-3.578 1.034.719 1.63 1.105 2.227 1.456z"/><path fill="#FEE4BF" d="M176.927 399.518a71.454 71.454 0 0 1-1.316 1.876c.246.14.491.281.596.351-.245 1.052-.544 2.227-.667 3.367-.122.193-.28.386-.333.473-.403 1.772-.842 3.403-1.176 5.069-.912 1.052-1.859 1.964-2.806 2.841-.368 1.526-.86 2.964-1.281 4.332-.122.192-.263.368-.333.473-1.087-.386-2.174-.771-3.191-1.262-1.982 3.63-2.035 4.665-1.772 7.243l-.965 1.42-.579.86c-.211.806-.491 1.438-.702 2.244-.596 1.123-1.07 2.298-1.561 3.49-1.298.702-2.718 1.456-3.999 2.14-.333-.999-.701-2.174-1.034-3.174 1.14-2.402 1.176-4.928 3.824-6.804.755-2.087 1.404-4.244 2.035-6.419.825-.964 1.859-1.964 2.807-2.876.385-.561.841-1.228 1.245-1.807 1.175-2.893 2.351-5.822 3.579-8.838.842-1.509 1.789-3.227 2.683-4.823-.526-.456-.999-1-1.508-1.473.965-.895 1.877-1.947 2.842-2.841 1.227 1.472 2.314 2.84 3.612 4.138z"/><path fill="#FEECD1" d="M180.573 404.988c-1.771.123-3.419.053-5.033.159.123-1.14.404-2.297.667-3.367 1.438 1.052 2.928 2.156 4.366 3.208zm-15.89 19.328c-.263-2.578-.21-3.613 1.772-7.243 1.017.491 2.104.877 3.191 1.262-1.526 1.491-1.315 3.385-4.963 5.981zm-18.288-16.85c-.035 1.052.035 2.175.105 3.297-.457.666-.86 1.245-1.246 1.806-.175 1.508-.316 2.911-.544 4.262.491 2.735-1.596 3.069-3.876 3.455.421.912.876 1.894 1.28 2.788-1.158 1.193-1.562 3.244-3.403 3.753a20.538 20.538 0 0 0-2.595-.876c-.86 1.245-1.649 2.385-2.473 3.63-1.315-.789-2.736-1.648-4.051-2.437-.228-1.21-.455-2.455-.701-3.647 2.192.508 4.314.841 6.366 1.279 1.21-2.087 2.42-4.209 3.648-6.314-1.42-.859-2.735-1.648-4.068-2.454.737-1.578 1.737-3.28 2.544-4.928 1.087-.141 2.069.42 3.787.385.421-.14.737-.351 1.246-.579a27.736 27.736 0 0 1-1.35-2.718c.649-.964 1.245-1.806 1.894-2.771.438.123.912.14 1.403.175.666.667 1.262 1.298 2.034 1.894zm16.025 21.392c-.596 1.122-1.07 2.297-1.561 3.49.473-1.175.965-2.368 1.561-3.49zm-6.525 8.278c3.121 3.331-1.579 5.226-.229 7.488-.333 2.473-2.841.982-4.139 1.403-.245-.14-.491-.28-.596-.35-.385-1.438-.701-2.946-.999-4.472 1.807-1.456 1.614-5.331 5.963-4.069z"/><path fill="#FEDEB1" d="M154.322 406.483c1.069.649 2.262 1.385 3.437 2.104a4785.05 4785.05 0 0 0-8.526 19.326c-2.035 4.7-4.157 9.207-6.052 13.802-.018 5.489-8.208 10.663-7.052 16.415-1.263 2.21-2.508 4.402-3.841 6.682a329.804 329.804 0 0 0-2.456 3.648c-.649.965-1.228 1.824-1.859 2.771.508.964.929 1.876 1.525 2.753-.684.544-1.315.965-1.877 1.561-2.858-2.227-5.786-4.348-8.609-6.4.983-2.77 2.07-5.611 3.263-8.382 1.21-1.035 2.333-1.982 3.543-3.017 2.122-1.14.123-3.42-1.28-5.313.334-.474.579-.86.913-1.333 1.473-.456 2.788-.895 4.279-1.369 2.297-1.175-.684-3.489.053-5.068.421-3.367.948-4.664.825-5.945a512.498 512.498 0 0 0 3.105-4.612c1.367-.526 2.841-.983 4.138-1.404 2.403-1.526.65-3.91.861-5.945 1.858-.491 2.245-2.56 3.402-3.753-.421-.912-.876-1.894-1.28-2.788 2.28-.386 4.367-.719 3.876-3.455.229-1.35.351-2.736.545-4.261.403-.579.789-1.14 1.245-1.807 1.192-.491 2.438-1.07 3.578-1.754.789-1.14 1.631-2.368 2.49-3.613.93.649 1.28.859 1.754 1.157z"/><path fill="#FEECD1" d="M129.765 444.716c-1.403.105-2.561 1.298-3.507.457-3.016-3.016.474-4.437 1.14-6.436.93-.123 1.859-.246 3.174.017.141 1.297-.386 2.595-.807 5.962zm14.903 19.674c-1.789 1.087-3.595 2.157-5.367 3.227-1.665-3.244.229-4.822 1.124-6.418 1.806 1.35 4.278 2.138 4.243 3.191zm-25.569 9.402c-.334 1.526-1.071 5.384-4.157 3.981-3.7-2.963-.07-4.173-.999-5.804.544-1.561 1.947-1.947 3.788-2.175l1.368 3.998zm-1.826 13.609-1.526 2.297c.315 2.315-1.509 3.788-1.246 5.664.824.754-.842 2.035-1.245 3.14-.053.087-.193.298-.316.491-1.683-.456-3.332-.736-4.998-1.034-1.981-1.561-.736-2.175-.455-2.806a512.491 512.491 0 0 1 3.385-5.104c.193-.298.386-.561.649-.964-.386-1.684-.543-3.244-.788-4.858 1.07-1.385 2.21-2.595 3.227-3.858a371.038 371.038 0 0 0 3.313 7.032z"/><path fill="#FFF3E3" d="M427.43 56.507c-.246 2.49-.527 4.314-2.07 4.42-.597 1.473-1.246 3.069-1.965 4.49-.947 1.262-2.07 2.56-3.157 3.753-.368-1-.666-2.105-1.157-3.192l.842-1.333c1.298-1.578 2.561-3.051 3.754-4.7a42.702 42.702 0 0 1 3.753-3.438zm2.398 27.9c-3.577.983-1.228 5.963-5.489 6.156l-2.876-1.718c-2.385.14-3.227.948-5.507-.14-3.577 3.123-3.227 5.543-7.331 8.209-1.07 1.455-2.227 2.858-3.42 4.262-.421.666-.772 1.262-1.123 1.823-.526.877-.947 1.544-1.403 2.315-2.104-1.122-2.069 1.789-3.683 2.281a248.719 248.719 0 0 0-2.841 3.297 266.754 266.754 0 0 1-2 3.262c-.964-.824-3.068-1.666-3.121 0-.456 1.824-4.069 1.018-3.192 3.894 1.139.543-.334 1.385-.509 2.192-1.561-.929-1.649.597-3.104.018-1.403 2.07 3.331 5.611-1.071 6.962-2.49 1.438-6.348 2.702-6.542 6.788 2.506 8.89-10.96-.998-6.156 7.804.087 1.491-2.087.474-2.613 1.631-.948 2.07-1.877 4.262-2.965 6.366-2.999-.683-2.351 4.525-5.349 3.842.105 1.753.034 4.068-1.86 4.524-2.402 2.158-3.56 4.087-5.963 5.963-.07 1.789-4.63 1.264-2.245 3.789 2.069 1.437-.597 2.911-.965 4.401-3.069-.578-2.684 4.858-6.226 4.017-1.631 1.947-3.227 3.894-5.034 5.875l.456 3.367c-7.683 11.014-14.699 18.907-21.908 31.341-4.717 2.052-.229 6.33-4.824 8.471-3.683 3.402-4.262 7.734-7.647 10.663-2.56.281.105 2.385-1 3.209-1.509 4.98-5.525 6.156-8.208 9.225-.157-4.857 4.28-9.68 6.455-14.415.264-1.912 4.156-.58 1.614-2.877.684-.649.561-2.139 1.964-2.034 6.981-9.366 12.244-21.852 19.593-31.516 4.262-3.981 5.929-11.61 12.365-16.047 1.298-2.245 2.544-4.402 3.807-6.577.018-3.104 2.806-5.051 5.209-6.401 1.404-6.243 7.244-10.085 9.472-14.662 4.489-2.386 2.474-9.417 8.436-10.155l1.403-2.315c1.457-5.699 5.859-10.066 9.752-13.82.088-1.771 5.209.017 2.596-2.946.597-.702.614-2.122 2-1.964 1.754-1.579 5.051-5.437 4.683-9.173 1.368-.912 2.683-1.701 3.929-2.666 1.069-.403 1.543-1.192 4.595-2.42.491-.772.947-1.544 1.42-2.298 1.438.316 2.929.543 4.297.719.105-1.789.333-2.157-.579-4.156l1.404-2.315c.298-.474.526-.877.824-1.35-.561-2.561 2.596-3.193 5.139-5.736-1.051-4.174 5.454-3.315 4.245-6.945-.841-3.928 3.876-2.017 6.559-5.542a40.853 40.853 0 0 1 2.631-2.877c.298.579.719 1.21 1.087 1.964 1.21.719 2.28 1.368 3.472 2.104 1.596-.509 3.297-1.018 4.893-1.526.666-1.053 1-2.403 2.788-2.123 3.42 1.806-1.105 3.806-.334 5.98zm-10.73-13.431c1.262 1.684-.123 2.578-.527 3.508-.964-.579-2.525-1.263.527-3.508z"/><path fill="#FEDEB1" d="M355.261 105.777c.665 8.417-5.596 11.487-6.701 17.678-3.21 1.035-1.824 2.245-2.421 2.946-3.613 3.017-4.297 5.525-7.103 5.35-1.28 1.631-2.508 3.139-3.683 4.84-.474 3.28-3.999 3.754-3.368 8.173-.176.28-.351.596-.526.877-1.123.28-2.333.368-3.455.649.157 1.14.35 2.174.438 3.384-3.087 1.649-3.666 2.894-3.385 4.367-.93 1.035-1.93 2.175-2.807 3.368-1.087 1.859-2.192 3.735-3.332 5.682-.351.596-.685 1.175-1.106 1.876-2.946 1.474-4.244 2.316-3.683 3.543 1.631 2.227-2.034-.105-1.859 2.105-.894 1.841-2.666 3.473-2.824 5.98-.667.807-1.421 1.701-2.07 2.491-.824.052-1.613 0-2.402-.053-.404 2.122-.79 4.122-1.193 6.244-1.544 2.665-3.07 5.313-4.614 7.979-.579 1-1.122 1.964-1.649 2.876-.35.597-.736 1.298-1.07 1.877-1.508 1.228-3.016 2.49-4.542 3.736a776.732 776.732 0 0 1-2.105 5.086c.421 1.543.192 3.63-1.579 4.209-1.421 2.472-2.877 5.05-4.333 7.628-.298-.052-.648.018-.841.071-3.788 1.824-1.018 2.946-1.316 3.7-.439 2.227-1 4.367-1.509 6.699-.597 1.087-1.228 2.175-1.842 3.28-2.683 1.666-5.366 3.297-8.05 4.964-.14.561-.175 1.192-.333 1.771.193.228.315.561.403.719-2.017 3.314-4.157 6.576-6.244 9.716l-1.105-.579c-2.28 1.228-2.578 1.737-2.859 2.228-1.403-.105-2.893-.263-4.84-.771a221.739 221.739 0 0 0 3.98 5.243c-.543.999-1.087 1.999-1.596 2.893l-1.859-.981c.351-1.509-3.454-3.279-2.331-6.822.298-.228.702-.386 1.158-.666.087-.719.228-1.561.438-2.227l5.086-2.211 2.175-3.893c.333-.614.719-1.28 1.053-1.894-.544-1.596 1.017-2.701 3.788-5.367 3.052-5.472 6.069-10.838 9.139-16.327.737-1.298 1.403-2.491 2.158-3.771.456-2.49 1.684-6.103 4.858-8.541.071-1.262-.455-2.595.404-3.56 3.227-.561 3.438-4.349 7.559-6.507.983-1.263 2.052-2.648 3.035-3.911 2.192-3.595 3.736-7.839 5.332-12.031 1.421-.508 2.666-.982 4.087-1.491-.947-3.928.737-7.961 3.649-10.487l10.576-12.891c.631-1.332 2.175-2.56 1.105-4.331.299-.509.579-1 .877-1.473 2.947-2 2.947-3.052 3.105-3.876.579-.719 1.298-1.368 1.877-2.087 1.841-3.14 3.718-6.279 5.56-9.418 1.017.175 1.929.315 2.999.403-.018-1.07.088-2.052.175-3.052.334-.578.755-1.28 1.088-1.859.649-1.069 1.28-2.157 1.929-3.227 1.912-.473 2.754-4.858 4.894-5.454 5.086-4.174 7.998-10.909 13.61-14.873z"/><path fill="#FFF3E3" d="M333.652 134.294a27.838 27.838 0 0 1-2.999-.403c-.753-1.49-.034-4.349 3.175-2.648-.105.982-.193 1.982-.176 3.051zm-21.622-2.96c.263 1.21.526 2.42.912 3.683-1.824 1.999-3.456 3.946-5.157 5.998-.596.175-1.245.473-1.911.754-1.386.93-2.666 1.789-4.034 2.701-.14-.07-.368-.193-.614-.333.369-.964.772-2.069 1.14-3.034.351-1.122.667-2.245 1.071-3.209.368-2.297 4.121-.685 5.489-1.351-.631-1.403-3.104-2.157-2.718-3.384.474-.79.912-1.579 1.386-2.368.421-.421.947-.772 1.473-1.122.105.07.351.21.491.28.877.491 1.613.912 2.472 1.385zm8.099 17.921c-.683-1.841.317-4.945 3.105-3.876-.176.807-.158 1.876-3.105 3.876zm-66.349 69.821c-.141 1.368-.176 2.911-.176 4.349-.053.088-.176.316-.281.491-1.701 1.281-3.525 2.649-5.244 3.947.228 1.034.386 1.894.613 2.928-2.963 1.281-2.035 5.928-5.139 6.612-1.035 1.28-2.069 2.526-3.034 3.981l-1.824 3.332c-.106.211-.228.404-.281.492-.508-.263-.859-.474-2.122-.474l-1.63-4.015c.842-.982.947-2.876 2.508-3.069.859-.965 1.596-2.017 2.456-2.982.35-1.122.649-2.122 1-3.244-1.824-1.894.719-2.999 1.017-4.42.772-.245 1.666-.403 2.841-1.052-.666-2.841-.157-3.735.404-4.753.895-.157 1.947-.649 3.508.596.052-.087.157-.298.228-.403l-1.35-3.349c.736-.772.754-2.473 2.192-2.473 1.07 1.876 3.788 1.893 4.314 3.506zm39.925 30.315c.105 3.542-1.333 4.7-3.385 7.453-.421 1.052-.737 2.175-1.106 3.139l-2.648 3.596c-3.122 4.489-6.104 9.084-9.104 13.662 1.194-4.77 4.246-8.664 7.876-14.329-.613-1.49.614-1.981 2.158-3.84.509-.895 1.052-1.894 1.596-2.859-.228-2.192 1.456-3.49 2.035-5.086.824-.614 1.631-1.21 2.578-1.736zm-16.716 28.744c1.122 1.999.754 2.683.14 3.788.596.947 1.069 1.841 1.718 2.701-.141 2.875-3.139.789-3.981 2.894-3.35.018.121 6.47-4.683 3.034-3.226-5.155 3.859-3.858 5.245-9.558.508-.965 1-1.877 1.561-2.859zm-9.508 20.238c1.648 4.594-1.317 11.592-5.736 14.784 1.016 1.052.648 1.736.701 2.806-.93.543-1.965 1.017-3.034 1.491-1.368-.702-2.859-1.491-4.226-2.192 1.087-2.911 2.175-5.787 3.245-8.681 3.105-4.261 4.911-7.681 9.629-12.259-.228 1.315-.491 2.701-.579 4.051zm-15.12 22.203c-3.297 5.192-7.717 11.084-11.681 15.855-1.175-.754-.964-2.227-.964-3.174-.911-3.016 2.806-.772 3.017-3.227-1.42-2.788 4.297-6.086 2.439-8.821 1.21-.79 2.49-1.649 3.7-2.438.807.28 1.666.473 2.63.736.246.386.526.771.859 1.069zm-3.353 28.286c-.666.912-1.263 1.754-1.947 2.684-.929-.859-1.894-.246-2.122.544-3.297 1.964-6.016 8.05-6.823 11.838-1.719 1.192-4.63.035-6.261 1.842-1.14 2.788-4.122 5.068-6.349 7.717.087 5.173-3.807 7.979-5.771 10.505-.263.368-.474.649-.667.947 1.14 2.718-1.228 4.595-2.175 6.418-.859 1.211-1.631 2.333-2.491 3.543.526 4.349-6.139 8.278-5.596 12.609-1.543-.946-1.946.825-3.507-.806-.596-.35-1.069-.648-1.665-.999 1.052-4.174 5.033-6.963 5.753-10.663.754-.614 1.403-1.263 2.175-1.894.649-.93 1.245-1.771 1.912-2.718.543-.053 1.104-.123 1.771-.088-.772-1.544 1.999-2.807.228-5.104l.597-.841c.544-1 .965-2.087 1.456-2.999.175-.702.386-1.508.666-2.14.649-.929 1.316-1.876 1.912-2.718 1.21-1 .422-2.034 1-2.613.895-.509 1.772-1.035 2.789-1.491.579-.579-.158-1.456.404-2.964 1.315-1.596 2.683-3.034 4.104-4.56.877-.526 2.473-1.561.737-3.437.386-.561.859-1.21 1.245-1.771l3.192-4.455c1.298-1.088 3.473-2.666 2.894-3.981-.701-1.403 1.93-2.421.036-4.56 1.122-.386 2.245-.737 3.244-1.175.281-1.578-.402-2.543 1.229-5.016a45.894 45.894 0 0 1 2.735 3.086l3.823.421c.947 1.543 4.331 3.278 1.472 4.839zm6.768 7.505c-3.209.404-4.807 9.471-7.769 2.895.666-.912 1.333-1.859 1.929-2.666.211-.28.404-.543.667-.912.947-.596 1.964-1.298 2.981-1.999 1.789.42.842 1.964 2.192 2.682zm-62.11-21.104c2.963 1.595 3.454 2.577 2.384 4.769.666 2.876.718 5.489-2.351 4.49-.438.123-.859.263-1.21.474l-2.823-1.771c-.298-1-.666-2.175-.981-3.192 1.034-.719 1.981-1.35 2.999-2.052.649-.859 1.315-1.806 1.982-2.718zm-23.171 39.653c3.104 1.384 3.419 2.647 2.717 5.593.263.579.684 1.245 1.07 1.876-2.035.527-3.999 1.053-6.016 1.562a559.875 559.875 0 0 1-3.454-2.121c.456-.667.877-1.228 1.333-1.894.877-.281 1.614-.632 2.438-1.07a168.773 168.773 0 0 0 1.912-3.946z"/><path fill="#FEE4BF" d="M168.266 383.982c-.035.526-.228 1.07-.333 1.701-.895.544-1.772 1.07-2.771 1.543-.053 1.07-.211 2.035-.737 3.473.596.35 1.192.736 1.665 1.034-.596.842-1.262 1.789-1.911 2.754-.597.841-1.246 1.806-1.842 2.648.07 2.069-1.912 3.7-1.772 7.418-.579.859-1.246 1.806-1.895 2.771-.263.368-.579.859-.912 1.333-1.192-.736-2.385-1.438-3.437-2.104-.473-.298-.824-.508-1.788-1.087-.666-.526-1.368-1.227-1.946-1.841.333-.474.578-.859.912-1.333.631-.421 1.192-1.017 1.841-1.456.667-1.368 1.316-2.718 1.982-4.051.474-.929.895-2.017 1.316-3.104 1.123-1.613 2.298-3.315 3.42-4.928 1.123-2.841.475-6.752 4.754-6.822 1.21.648 2.402 1.385 3.454 2.051z"/><path fill="#FFF3E3" d="M170.195 387.033c-1.316 1.631-2.666 3.087-4.087 4.648-.474-.298-1.07-.649-1.666-1.035.491-1.438.667-2.42.737-3.472 1.017-.456 1.877-1 2.771-1.544.719.474 1.543.982 2.245 1.403z"/><path fill="#FEE4BF" d="M198.341 386.345c-.702.772 1.963 1.333-.65 3.35-1.385.754-2.683 1.421-3.893 2.175 1.841 3.419-.019 7.102-1.457 10.119-2.841 1.894-1.474 6.488-5.315 6.401-.526.772-1.052 1.508-1.578 2.245.333 1.42.683 2.964.999 4.366.964.333 2.735.456 2.858 1.736-.386.561-.561 1.263-3.84-.333-1.228.071-2.649 2.123-1.001 5.139-.333.473-.649.964-.912 1.333-.105 1.403 2.262 1.385 2.209 2.665l-1.561 2.262a1145.308 1145.308 0 0 0-3.929 7.927c-.281 2.631-2.684 4.402-3.473 7.506.718 1.911-3.122 3.332-1.123 5.051-.597 1.368-1.211 2.753-1.86 3.963-.929.649-2.613 1.631-.667 3.472-.158.965-.298 1.947-.456 2.912-.93.368-1.912.579-2.894.789l1.911 3.139c-.263.649-.473 1.455-.614 2.157-1.438.877-2.876 1.754-4.244 2.526-.509 1.28-1 2.472-1.579 3.577-.912-.14-1.929-.35-2.928-.403-.596-.35-1.193-.701-1.684-.981-2.56 1.543-2.052 3.034-1.035 3.77a13.41 13.41 0 0 0 2.122.578c.719.439 1.438.842 2.28 1.333-1.579 1.052-3.052 2.07-4.63 3.122-1.228-2.174.14-2.701-.421-4.103-4.349.211-4.262 7.032-7.944 3.561.228-1.596-.368-1.947-.543-4.156-.982-.035-1.999-.246-2.911-.386-1.298.702-2.561 1.544-3.858 2.245-.474-.262-.842-.49-1.193-.701-.07-1.368.264-2.122.474-2.928l2.631-1.649 2.508-3.701c.912.14 1.947.333 2.858.473 1.071-2.823 2.807-6.874 6.192-7.909.473-.93.859-2.017 1.263-3.122 1.175-.754 2.245-1.579 3.297-2.421-.912-1.613 2.719-2.788.509-4.226.912-1.333 1.877-2.753 2.789-4.086-.543-.439-.999-1-1.473-1.543l.579-.86 3.35-1.21c2.736-3.964 2.789-6.997 4.088-13.065 4.103-2.07 2.859-4.157 1.929-5.261-.35-.211-.719-.439-1.069-.649a31.22 31.22 0 0 1-1.297-3.998c1.806.824 3.402.455 3.823-.912.649-.684 1.35-1.211 2.157-1.912.053-1.035.158-1.912.369-2.999 1.14-.93 2.35-1.929 3.683-2.841.14-1.403.263-2.789.456-4.279 4.7-2.351 1.965-7.927 6.578-8.191 1.087-2.034 2.332-4.086 3.473-6.208.526-1.017.877-1.999 1.298-3.087 1.14.298 2.297.614 3.507.807a48.416 48.416 0 0 0 1.842-2.579z"/><path fill="#FFF3E3" d="M205.001 408.405c2.56 4.103-.001 3.612-.825 4.577 1.999 1.753.368 2.613-2.683 2.894-.123.193-.211.28-.334.473-.35-.491-.648-.789-.859-1.21.281-.877.702-1.718.983-2.595.561-.07 1.104-.123 1.858-.211.509-1.28 1.106-2.648 1.86-3.928zm-52.468-3.009c-.859 1.245-1.701 2.473-2.491 3.613-1.122.666-2.385 1.263-3.577 1.754-.07-1.122-.14-2.245-.105-3.297-.754-.614-1.368-1.227-2.051-1.946-.491-.035-.982-.035-1.403-.175-1.07-2.122-.684-2.718 2.753-2.789.106.07.351.21.491.281.824.508 1.543.946 2.385 1.437l2.034-.772c.597.667 1.298 1.368 1.964 1.894zm-13.663 13.031c-.017.263.088.614.14.772a600.418 600.418 0 0 0-3.788 5.542c-2.07-.421-4.209-.771-6.366-1.279-.157-3.455 1.86-4.42 2.386-5.718 1.718.912 2.841-.456 3.56-1.771 1.333.806 2.648 1.595 4.068 2.454zm-.176 8.383c-.211 2.034 1.525 4.401-.86 5.945-1.298.421-2.806.877-4.139 1.403-.421-.912-.877-1.894-1.315-2.788-1.21-.193-2.367-.473-3.507-.771-2.647-2.788.316-3.157.702-3.472 1.315.789 2.735 1.648 4.051 2.437.859-1.246 1.648-2.386 2.473-3.631.859.228 1.806.544 2.595.877zm-8.929 17.906c-.737 1.578 2.244 3.892-.053 5.068-1.491.473-2.789.895-4.279 1.368.176-3.507-.368-4.927.825-5.945.947.807 2.087-.403 3.507-.491zm-5.244 7.769c1.402 1.893 3.401 4.173 1.279 5.313-1.21 1.035-2.332 1.982-3.543 3.017-.526-.982-.964-1.771-1.49-2.753 1.246-1.842 2.526-3.753 3.754-5.577zm-15.545 52.506c-.596-.07-1.035-.193-1.508-.21-2.051-3.981-.297-5.384.457-6.805 1.648.281 3.297.561 4.998 1.034-1.263 1.93-2.614 3.946-3.947 5.981zm-3.595 2.964c-1.667 1.035-3.403 1.894-5.069 2.929.351.736.508 1.49.806 2.315-.842 2.56.789 3.91-.895 5.208-1.526 2.859-3.49 5.84-4.087 8.541.596 1.403-1.017 2.35-1.473 3.542-.246-.14-.369-.193-.614-.333 1.368-4.384-1.84-6.365.247-8.768-.79-1.105 1.087-2.701 2.105-4.525-.193-.929-.42-1.964-.614-2.893 1.246-1.14.965-2.508 1.386-4.402l.281-4.244c3.42.368 4.717 2.192 8.19 2.191-.071.14-.211.351-.263.439z"/><path fill="#FEE4BF" d="M121.966 534.012c-1.894.631-3.578 1.403-5.367 2.105-1.087-.631-1.946-1.105-2.91-1.648-.369.579-.825 1.245-1.193 1.824-.035.772-.071 1.683-.106 2.455-1.806 1.491-2.297 1.21-3.507.527-1.473-.561-3.051-1.192-4.436-1.841-2.263-.613-4.507-1.244-6.699-1.963.018-1.035-.14-2.069-.193-3.279a371.77 371.77 0 0 0 4.665-1.053c.614-1.386 1.228-2.736 1.842-4.121.667.245 1.386.403 2.14.56 1.174 1.315 2.402 2.683 3.647 4.068.789.053 1.578.105 2.314 0 .491.28.842.491 1.21.684 1.28-.72 2.596-1.439 3.771-2.228 1.455.578 3.033 1.21 4.419 1.858a19.1 19.1 0 0 0 .403 2.052z"/><path fill="#FFF3E3" d="M116.6 536.116c-.036.772-.071 1.684-.106 2.455-1.333.071-2.771.106-4.103.176.035-.771.052-1.666.105-2.455.369-.579.825-1.245 1.193-1.824.964.544 1.806 1.035 2.911 1.648z"/><path fill="#FEE4BF" d="M379.147 97.707c-.825.824 1.104 2.227-3.21 2.578 1-.86 2.087-1.806 3.21-2.578zm-4.929 5.384c-.807 1.614-1.526 3.315-2.228 4.998-.772 1.263-1.456 2.438-2.21 3.683-2.859 1.491-7.068 3.351-7.366 7.121-1.246.439-2.455-.245-3.718-.315-.456.772-.93 1.561-1.386 2.333.403 3.138-1.158 2.49-4.051 2.648-.035.631.999 1.876 1.42 2.788-.386 1.473-.86 6.857-4.49 3.683-1.087.421-2.139.843-3.104 1.351-.596.702.315 1.894.578 2.823a11604.95 11604.95 0 0 0-6.718 10.015c.632 1.402-.894 2.367-1.298 3.577-1.087.176-2.332.369-3.402.562-.456.772-.929 1.561-1.386 2.332 1.315 2.473-.754 4.297-3.315 6.998a203.163 203.163 0 0 1-2.21 3.718 47.516 47.516 0 0 0-3.42 3.034c-1.701 1.526.788 4.507-2.123 5.068-.806.842-1.613 1.684-2.262 2.508-.333.579-.737 1.263-1.088 1.859.877 3.508-1.964 4.244-4.682-.016-1.333-.211-2.49-.737-2.806.912-.754.754-1.561 1.596-2.262 2.508-.509.894-1.088 1.859-1.597 2.753.246 2.105-1.631 3.666-5.296 5.262.403-2.122.789-4.121 1.193-6.243.772.035 1.561.087 2.403.052.666-.807 1.403-1.684 2.069-2.49.158-2.508 1.93-4.139 2.824-5.981-.192-2.192 3.473.14 1.86-2.104-.579-1.245.719-2.087 3.683-3.543a2341.887 2341.887 0 0 0 4.437-7.559c.86-1.21 1.877-2.332 2.807-3.367-.281-1.473.298-2.718 3.385-4.367-.088-1.21-.298-2.262-.438-3.385 1.14-.263 2.332-.368 3.455-.649.035-1.157 0-2.49-.07-3.718.439-1.315 1.631-2.473 2.894-2.157 2.034-.141.632-2.14 1.07-3.209 1.158-1.684 2.386-3.227 3.683-4.841 2.806.175 3.508-2.315 7.103-5.349.579-.72-.806-1.929 2.421-2.947 1.106-6.19 7.349-9.243 6.701-17.677.842-1.754 1.719-3.613 2.561-5.367.877-.666 1.666-1.14 2.508-1.701.947-1.017 1.719-2 2.614-2.93 1.876.439 4.629 1.017 6.979 2.805 1.385 1.491 2.875 3.051 4.278 4.524zm-51.84 18.386c-.053 4.472-1.386 6.717-4.122 5.91-1.981-2.437.071-4.559 4.122-5.91zm-33.133 47.441c.281 1.192-.579 2.157-3.139 4.016-.631-1.929.071-4.559 3.139-4.016zm14.901 34.684c-3.174-1.771-2.279-3.332.071-4.384 3.875.824-.071 2.946-.071 4.384zm-3.876 5.384c.841 1.648-1.316 2.017-1.86 3.262 2.454 8.733-8.787 11.137-9.875 18.853-.597 1.368-1.071 2.789-1.544 4.209-1.456 2.578-5.156 4.069-4.561 9.295-1.385.158-4.735 2.736-1 3.209l-1.316 6.647c-.474.263-.877.421-1.158.666-2.981.457-3.788 2.736-3.701 6.647l-.193 2.999c-.281.245-.684.403-1.052.736-.737.772-1.526 1.631-2.21 2.561-.071.105-.158.298-.228.403-.474 1.175-.878 2.491-1.229 3.718-1.227-.666-2.472-1.315-3.577-1.893a1.638 1.638 0 0 0-.894.158c-.736-.386-1.613-.842-2.332-1.245a89.62 89.62 0 0 0-3.455 1.912c.403.719.736 1.543 1.087 2.385-.421 1.052-.667 2.104-.983 3.227-.07.105-.158.298-.263.508-1.28-.298-2.297-.438-3.454-.683.789-2.017 1.579-4.069 2.508-6.016 1.07-1.104 2.175-2.209 3.245-3.314-1.788-2.876 2.017-3.701 2.631-5.963.123-2.262.387-4.454.44-6.611 5.734-1.702 4.069-8.173 8.524-10.944-.281-.666-.473-1.175-2.525-3.823-.315-.035-.526.106-.842.071-.07-.176-.21-.491-.403-.719.158-.579.193-1.21.334-1.772 2.7-1.648 5.384-3.315 8.05-4.963.613-1.105 1.227-2.21 1.841-3.28.492-2.315 1.053-4.489 1.509-6.699.281-.772-2.472-1.876 1.316-3.7.176-.036.544-.088.842-.071.754.404 1.596.859 2.332 1.28 1.193-.105 2.228-3.069 4.577-1.246.947-2.209 3.017-4.174 2.93-6.576 1.806.228 1-3.209 3.402-1.754.509-.895.895-1.596 1.333-2.385-1.718-1.473.299-3.876 1.859-2.105.298.368.596.947-.105 3.016zm-21.623 5.528c-.737 1.297-1.403 2.49-2.158 3.77a8.914 8.914 0 0 0-.613-.333c.859-1.245 1.789-2.28 2.771-3.437zm-15.52 1.562c-.702.667.754 1.841-.509 3.49-.614.824-1.421 1.701-2.175 2.455-.491 1.438-.965 2.859-1.561 4.227.754.403 1.595.859 2.349 1.262l-3.683 5.437c-.491 1.157-.912 2.49-1.404 3.648-.333.613-.736 1.297-1.052 1.894-1.14-.228-2.315-.456-3.507-.596-.632.842-.649 1.736-1.018 3.227.754.403 1.596.859 2.35 1.262.771 1.824 1.578 3.717 2.349 5.541-.211.667-.333 1.491-.439 2.227-.473.263-.894.439-1.157.667-1.508-.14-2.894-.228-4.349-.491-.842 1.228-.176 2.631-1.246 3.736-.929.263-1.946.649-2.771.982-1.069-.964-2.104-1.928-3.068-2.823l.824-1.49-4.593-5.576c.052-.088.158-.298.28-.491l1.825-3.332c.947-1.438 1.999-2.701 3.034-3.982 1.175-1.701 2.333-3.419 3.438-5.05 3.051-.562-.245-2.982 1.07-4.507 1.701-1.281 3.525-2.649 5.244-3.947.123-.193.228-.403.281-.491 0-1.438.053-2.964.176-4.349a73.313 73.313 0 0 0 2.718-2.298c-.666-1.402.86-2.402 1.86-3.297l4.734 2.665zm-5.302 42.579c-1 1.806-1.93 3.507-2.912 5.296-.702 1.298-1.368 2.49-2.088 3.806-.859-.474-1.595-.859-2.349-1.263.719-1.315 1.385-2.507 2.087-3.805 1.105-1.737 2.298-3.315 3.403-5.051l1.859 1.017zm-29.516 16.05c-1.368 2.525-2.789 5.138-4.193 7.769-1.665-.754-3.472 1.158-5.12-.21-.246-.14-.509-.263-.614-.333-1.683-4.243 3.876-3.666 3.912-7.278 1.157-.702 2.175-1.298 3.332-2 .859.719 1.806 1.315 2.683 2.052zm-39.607 65.31c.316 1.017.684 2.192.982 3.192a51.404 51.404 0 0 0-3.911 2.157c-.298-.052-.684-.017-.93.088-1.788-3.016 1.299-4.489 2.684-6.19-.052-1.386-.262-2.754-.297-4.121 1.298-1.088 2.648-2.263 4.086-3.28 1.543.701 2.929 2.121 2.35 3.401l-4.964 4.753zm.714 33.653c-1.105 1.07-2.14 2.035-3.122 3.192-.578-.368-1.192-.736-2.244-1.402.929-1.316 1.947-2.719 2.859-4.017.859.754 1.648 1.473 2.507 2.227zm-15.395-9.573c.736 4.524-1.404 6.313-3.017 7.892l-.509 2.928a203.783 203.783 0 0 0-1.895 3.964c-.824.438-1.578.807-2.437 1.07-.719-.439-1.543-.947-2.262-1.385.07-.351.035-.807 0-1.228 1.824-2.139 3.648-4.244 5.332-6.454.684-3.63 1.193-6.979 4.788-6.787z"/><path fill="#FEDEB1" d="M159.449 478.294c-.281.911-.544 1.806-.947 2.63-.334 1 .946 3.086-1.789 2.666-.229 1.596-2.175 1.263-2.912 2.14-.123 1.666-.211 3.332-.193 5.068-1.105-.123-2.14-.07-3.174-.017l-.439 2.928a27.488 27.488 0 0 0-.632 3.473c-.947.912-1.877 1.806-2.701 2.806-.597 2.174-.632 5.717-3.999 6.033.07.701.122 1.28.21 1.964 1.192.701 2.402 1.385 3.489 2.016-.087.614-.158 1.245-.351 1.789-1.052.842-2.122 1.666-3.297 2.455-.21.807-.333 1.526-.596 2.175-1.386 1.841-2.807 3.543-4.245 5.226.474.544 1.017.982 1.491 1.526-.772 1.403-1.456 2.999-2.088 4.472 1.087.631 2.297 1.315 3.384 1.946-.175.28-.368.579-.631.947.052 1.21 2.542 1.455.069 3.718-.806 1.508-1.456 2.998-2.14 4.559.053.158.176.491.228.649-.263.123-.631.176-.807.211-.333 1.245-.719 2.613-1.035 3.875l-2.858-.438c-.772-.841-1.561-1.665-2.332-2.507.193-.298.368-.579.614-.965a18.758 18.758 0 0 1-1.964-1.788 153.158 153.158 0 0 1-7.049-2.7c-.298-.298-.526-.701-.789-1.104-.175-.772-.298-1.35-.333-2.052.316-.21.754-.368 1.245-.614l7.874.157c.193-.824.333-1.526.649-2.262l1.649-.246a269.8 269.8 0 0 1 .737-3.402 446.31 446.31 0 0 0 2.403-4.963c-.281-1.614-.561-3.227-.754-4.928-1.841.509-3.752.877-5.646 1.263.017-1.034-1.543-2.49-.193-3.279 5.331-1.298 1.825-5.577 4.841-8.593.702-1.053 1.456-2.193 2.158-3.245-.701-1.718 1.508-2.034 2.157-3.244-1.612-3.858 3.035-6.577 1.492-10.54.667-1.999 1.386-3.84 2.176-5.787a29.087 29.087 0 0 1-.473-2.788c.438-.404.999-.755 1.368-1.053l.456-2.946c1.298-.701 2.561-1.543 3.858-2.245.912.14 1.947.333 2.911.385.193 2.227.789 2.578.543 4.156 3.682 3.507 3.596-3.35 7.945-3.561.561 1.368-.807 1.859.42 4.034z"/><path fill="#FEE4BF" d="M158.484 480.941c-.333 1 .947 3.086-1.789 2.666 2.753.403 1.456-1.666 1.789-2.666zm-39.49-11.743c2.823 2.051 5.752 4.173 8.61 6.399-2 1.509-.825 3.771-2.719 5.349-.035 1.579-.018 3.034.104 4.595-.789 2.192.438 4.121-.141 4.98-1.122.947-2.174 1.789-3.367 2.561-1.648-2.279-1.402-2.665-2.717-5.453-.474-.018-.982-.035-1.508-.211a842.685 842.685 0 0 1-3.349-7.031c.386-.842.667-1.754 1.053-2.596 3.086 1.403 3.806-2.438 4.157-3.981l-1.368-3.998c.509-.263.807-.491 1.245-.614zm34.614 21.599a35.838 35.838 0 0 0-.088 3.665c.105.316.105.597.298.825.701.946 1.472 1.788 2.261 2.647a86.62 86.62 0 0 1-.754 3.385c-.193.298-.386.561-.579.859-.859.965-1.789 2-2.648 2.964l-2.403 3.631c-.106 1.929 4.401 2.927 1.542 4.734-.631.702-1.385 1.315-1.999 1.999-.386.562-.825 1.246-1.211 1.807-.736.105-1.297.175-1.841.263.351.982.754 2.157 1.104 3.139-.929 1.175-1.999 2.28-2.981 3.297a57.188 57.188 0 0 1-1.544 4.911c-.631.175-1.315.438-2.087.649-1.087-.631-2.297-1.315-3.384-1.946.649-1.491 1.333-3.052 2.087-4.472-.491-.561-1.017-.982-1.49-1.526 1.438-1.683 2.876-3.367 4.244-5.226.264-.649.386-1.368.597-2.175 1.193-.771 2.245-1.613 3.297-2.455.193-.544.263-1.175.351-1.789-1.087-.631-2.297-1.315-3.489-2.016-.07-.702-.123-1.28-.21-1.964 3.384-.299 3.402-3.859 3.999-6.033.806-.982 1.754-1.894 2.701-2.806.14-1.228.368-2.298.631-3.473l.439-2.928c1.017-.036 2.052-.088 3.157.034zm-42.14-1.694c-.245.385-.456.666-.649.964a530.616 530.616 0 0 1-3.385 5.104c-1.894-2.701-1.595-4.402.176-6.313.123-2.473.685-4.542 3.052-4.63.298 1.63.421 3.191.806 4.875zm9.732 6.996c1.63 2.823-.86 4.296-1.684 6.067a95.182 95.182 0 0 1-.036 3.823c-.964-.543-1.929-1.122-2.893-1.665-.211-1.438-.298-2.824-.438-4.121 1.561-1.631 3.227-3.333 4.771-4.946.122.333.105.596.28.842zm-13.576 15.819c-.806.737-1.666 1.561-2.367 2.368a45.987 45.987 0 0 1-4.139-1.052c-.298-.824-.455-1.578-.806-2.314 1.666-1.035 3.385-1.912 5.068-2.93 1.14 1.561 2.999 2.507 2.244 3.928z"/><path fill="#FFF3E3" d="M190.161 437.832c3.366 1.753.648 2.508 1.63 3.525-2.841 4.139-6.683 9.698-8.735 13.925-1.421 2.613-2.859 5.209-4.315 7.646 1.315 1.035-.053 1.807 1.385 2.683-3.754 6.524-8.787 11.242-9.595 17.906-2.789 4.577-5.034 10.54-6.105 16.134-4.472.965-.141 6.769-5.034 6.577 3.349 3.524-6.419 5.122.963 8.084-1.035 4.542-3.385 8.33-2.72 13.696 2.859.719-.824 2.017.315 3.332-.824 1.772.614 3.63-.702 5.893.245 3.682-2.894 5.699-4 9.645 2.841 1.227 1.35 3.77 3.226 4.98-.737 3.648-3.367.842-5.612 2.456-.368.824-.614 1.736-.894 2.648-.965-.544-1.947-1.105-2.595-2.139-1.771-.088-3.595-.333-5.314-.508-.684.789-2.192-.719-3.226-1.157 1.438-2.455 2.841-5.086 4.21-7.716 1.648.28 2.577-.124 3.472.806 1.14-2.228.176-3.578.702-5.893 3.981-4.542.931-9.066 4.912-13.608-4.121-1.315-.122-3.35-1.367-5.261 4.157-3.806 3.123-8.734 4.702-13.118-.438-1.841 2.596-3.648 1-6.295 1.316-1.211 3.368-2.807 1.842-5.279.93-3.42 3.719-7.611 5.351-11.557.947-.912 1.771-1.877 2.718-2.789.859-.544 2.561-1.544.649-3.455.842-1.227 1.667-2.473 2.509-3.7.999-.474 2.543-1.526.702-3.297 1.052-2.035 2.017-3.981 3.122-5.858 1.105-.403 1.613-1.157.983-3.928.263-.649.403-1.35.614-2.157 2.332-1.807 4.665-3.578 6.997-5.385-.578-1.139 1.298-2.139-.525-4.173l1.228-1.789c.999-.474 2.578-1.526.807-3.367l.579-.86a518.572 518.572 0 0 0 6.121-6.647z"/><path fill="#FEE4BF" d="M140.029 530.502c.052 1.21 2.542 1.455.069 3.718 2.473-2.263-.017-2.508-.069-3.718zm.752 13.59c-.123.193-.246.386-.298.474a55.307 55.307 0 0 1-4.156-1.034c.351-1.263.702-2.631 1.035-3.876l.561-.877c.053.158.175.491.228.649.912 1.718 1.806 3.139 2.63 4.664zm-7.313-.998c-1.42.087-2.735.175-4.156.263.632-.947 1.263-1.929 1.825-2.771.771.807 1.542 1.648 2.331 2.508z"/><path fill="#FED8A1" d="M118.798 487.629c1.333 2.771 1.087 3.156 2.718 5.453-.141.702-.334 1.526-.597 2.175.123.333.105.596.281.842-.877.561-1.754 1.122-2.736 1.613-.754.895-1.176 2.789-2.333 2.508-1.087-.631-1.929-1.122-2.911-1.683.404-1.104 2.087-2.402 1.246-3.139-.263-1.876 1.561-3.349 1.246-5.664l1.526-2.298c.578.158 1.069.158 1.56.193zm17.374 33.018a421.515 421.515 0 0 0-2.403 4.963 315.45 315.45 0 0 0-.737 3.402l-1.648.246c-.316.736-.474 1.455-.65 2.262l-7.873-.157c1.017-1.543 1.999-3.086 3.017-4.63-.631-2.069 2.929-3.209.579-4.682 1.14-1.736 2.21-3.367 3.333-5.086 1.911-.369 3.788-.737 5.646-1.263.176 1.718.456 3.331.736 4.945z"/><path fill="#FEDEB1" d="M116.149 500.202c.158 1.28.227 2.648.438 4.121.982.561 1.929 1.122 2.893 1.666l-1.509 2.315c-.526 1.543-1.052 3.121-1.614 4.77-.07.105-.193.298-.315.491-1.175.789-2.473 1.491-3.771 2.227.719.93 1.49 1.771 2.279 2.63.719.158 1.403.421 1.999.491-.333 1.526-.789 2.999-1.175 4.367-.737-.421-1.578-.912-2.297-1.315-1.333-.771-2.771-1.578-4.103-2.349-.719-.158-1.333-.246-1.999-.491-1.842 3.069-3.596 5.77-2.842 7.927-.614 1.385-1.228 2.736-1.842 4.121-1.508.351-3.157.702-4.665 1.053l-2.91-1.648c.455-1.193 2.069-2.14 1.473-3.543.596-2.7 2.56-5.717 4.087-8.54 1.684-1.298.053-2.648.895-5.209 1.403.421 2.665.736 4.138 1.052.684-.789 1.561-1.631 2.368-2.368.754-1.42-1.104-2.367-2.244-3.963.053-.087.193-.298.246-.386.631-.982 1.263-1.929 1.824-2.806.491 0 .929.123 1.508.211 1.333-2.035 2.684-4.052 3.946-5.981.123-.193.246-.386.316-.491.93.544 1.789 1.017 2.876 1.648z"/><path fill="#FED8A1" d="M116.024 513.547c-.702 1.333 1.104 2.368.525 5.331-.613-.087-1.28-.333-1.999-.49-.771-.842-1.543-1.684-2.279-2.63 1.298-.702 2.578-1.421 3.753-2.211zm-2.982 8.383c.736.421 1.578.912 2.297 1.315.157 1.035.403 1.946.42 2.911-1.298.456-2.753.93-4.051 1.386-.035 1.578.684 2.507.473 4.121-.737.105-1.526.053-2.315 0-1.245-1.385-2.49-2.77-3.647-4.068-.719-.157-1.455-.298-2.139-.561-.754-2.156 1-4.857 2.842-7.926.666.245 1.28.333 1.999.49 1.368.737 2.806 1.578 4.121 2.332z"/><path fill="#FEDEB1" d="M256.162 236.612c.491-1.157.912-2.49 1.403-3.647-.491 1.157-.912 2.49-1.403 3.647zm-3.245 5.805c-.737-.386-1.596-.859-2.35-1.262.369-1.491.369-2.403 1.018-3.227 1.192.14 2.367.368 3.507.596l-2.175 3.893zm-53.91 142.981c-.211.28-.386.561-.667.947a144.34 144.34 0 0 0-1.824 2.63c-1.21-.192-2.367-.508-3.507-.806l2.088-5.173c.736-.351 1.578-.772 2.315-1.123.508 1.14 1.069 2.367 1.595 3.525zm-25.468 37.847c.929 1.105 2.191 3.209-1.93 5.261-1.299 6.033-1.352 9.067-4.088 13.065l-3.35 1.211c.088-.614-.894-1.876-1.297-2.771 1.877-3.946 3.807-8.014 5.806-11.908.176-.035.544-.052.807-.175a575.136 575.136 0 0 0 2.964-5.314c.351.21.719.403 1.088.631zm-8.491 21.921c-.912 1.333-1.877 2.754-2.789 4.087 2.209 1.437-1.421 2.613-.509 4.226-1.07.824-2.122 1.666-3.297 2.421.491-2.491-2.297-4.296 1.421-8.085.211-.807.176-1.754 1.07-2.578l2.649-1.631c.456.561.929 1.105 1.455 1.56zm-2.652 25.305c-.228 1.07-.509 2.227-.597 3.367-.754-.157-1.455-.333-2.121-.578-1.017-.736-1.526-2.227 1.035-3.77.491.28 1.069.648 1.683.981zm-46.602 55.685c.474 1.315.929 2.648 1.403 3.963-1.175.79-2.473 1.491-3.771 2.228-.351-.211-.736-.421-1.21-.684.228-1.596-.508-2.543-.473-4.121a186.35 186.35 0 0 1 4.051-1.386z"/><path fill="#FFF3E3" d="M250.891 302.024c-.28.245-.684.403-1.017.736.333-.333.754-.508 1.017-.736zm-57.037 66.575c.42.14.911.175 1.402.21-.473-.052-.964-.087-1.402-.21zm7.288 47.732c2.402 2.402-.211 3.473.578 4.753.649.508-.334 3.384-2.648 1.596.017 1.21.034 2.174.122 3.279-.421 1.087-1.982 1.877-1.298 3.087 1.14.543-.491 1.438-.632 2.139-2.209-1.192-2.192 1.736-3.998 2.105-1.263-.631-.438-2.788-.719-3.63.369-1.526.544-2.999.79-4.577-.105-.316-.105-.596-.281-.842 1.596-.754 3.21-1.526 4.788-2.298 1.14-1.841 2.228-3.735 3.298-5.612z"/><path fill="#FEE4BF" d="M255.441 250.518c1.964.526 3.454.684 4.84.771.28-.491.543-1 2.858-2.227l1.105.578c-.123 1.35-.404 2.753-.649 4.051-1.386.684-2.789 1.386-4.157 2.052-1.42-1.771-2.7-3.506-3.997-5.225zm-.614-.333c.14.07.368.193.614.333-.246-.14-.491-.28-.614-.333zM121.966 534.011c.228.404.473.789.789 1.105-.333-.298-.561-.701-.789-1.105z"/><path fill="#FEDEB1" d="M124.521 452.485c-1.228 1.824-2.508 3.735-3.736 5.559-1.771-1.841-1.49-2.753-.719-3.665.001-2.244 3.578-1.087 4.455-1.894z"/><path fill="#FFF3E3" d="M193.283 433.308c1.28 3.033-.825 4.156-3.122 4.525-.21-.667-1.806-2.297-.105-3.262 1.123-.386 2.228-.79 3.227-1.263z"/></g></svg>