<svg xmlns="http://www.w3.org/2000/svg" width="72" height="72" fill="none"><g clip-path="url(#a)"><path fill="#777" d="M51.434 68.313c0-1.358-6.878-2.458-15.362-2.458-8.485 0-15.363 1.1-15.363 2.458s6.878 2.458 15.363 2.458c8.484 0 15.362-1.1 15.362-2.458z"/><path fill="#000" d="M36.072 72c-6.197 0-16.592-.48-16.592-3.687 0-3.208 10.395-3.687 16.592-3.687 6.196 0 16.59.48 16.59 3.687 0 3.208-10.394 3.687-16.59 3.687zM22.91 68.313c1.997.574 6.429 1.229 13.162 1.229 6.732 0 11.165-.655 13.16-1.23-1.995-.573-6.428-1.228-13.16-1.228-6.733 0-11.165.655-13.162 1.229z"/><path fill="#26BBEC" d="M57.063 47.557c0 11.463-9.398 20.756-20.991 20.756-11.594 0-20.991-9.293-20.991-20.756 0-11.463 20.99-46.37 20.99-46.37s20.992 34.907 20.992 46.37z"/><path fill="#000" d="M36.072 69.542c-12.252 0-22.22-9.863-22.22-21.985 0-11.67 20.302-45.566 21.166-47.003.446-.739 1.661-.739 2.107 0 .865 1.437 21.167 35.333 21.167 47.003 0 12.122-9.968 21.985-22.22 21.985zm0-65.939c-4.233 7.23-19.762 34.411-19.762 43.955 0 10.767 8.865 19.526 19.762 19.526 10.896 0 19.762-8.76 19.762-19.526 0-9.546-15.53-36.724-19.762-43.955z"/><path fill="#fff" d="M40.442 62.099a1.229 1.229 0 1 1 0-2.458c3.99 0 7.236-3.246 7.236-7.236a1.229 1.229 0 0 1 2.458 0c0 5.345-4.35 9.694-9.694 9.694z"/></g><defs><clipPath id="a"><path fill="#fff" d="M0 0h72v72H0z"/></clipPath></defs></svg>