<svg xmlns="http://www.w3.org/2000/svg" width="72" height="72" fill="none"><g clip-path="url(#a)"><path fill="#8C6B37" d="M59.046 56.599h11.776v7.066H59.046v-7.066z"/><path fill="#000" d="M70.822 64.842H59.046c-.65 0-1.178-.527-1.178-1.178V56.6c0-.651.527-1.178 1.178-1.178h11.776c.651 0 1.178.527 1.178 1.178v7.066c0 .65-.527 1.177-1.178 1.177zm-10.598-2.355h9.42v-4.71h-9.42v4.71z"/><path fill="#FEDA38" d="M59.046 8.317h11.776v7.065H59.046V8.317z"/><path fill="#000" d="M70.822 16.56H59.046c-.65 0-1.178-.527-1.178-1.178V8.317c0-.651.527-1.178 1.178-1.178h11.776c.651 0 1.178.527 1.178 1.178v7.065c0 .65-.527 1.178-1.178 1.178zm-10.598-2.355h9.42V9.494h-9.42v4.71z"/><path fill="#8C6B37" d="M59.046 15.382h11.776v4.71H59.046v-4.71z"/><path fill="#000" d="M70.822 21.27H59.046c-.65 0-1.178-.526-1.178-1.177v-4.711c0-.651.527-1.177 1.178-1.177h11.776c.651 0 1.178.526 1.178 1.177v4.71c0 .652-.527 1.178-1.178 1.178zm-10.598-2.355h9.42V16.56h-9.42v2.355z"/><path fill="#FEDA38" d="M59.046 20.093h11.776v36.506H59.046V20.093z"/><path fill="#000" d="M70.822 57.777H59.046c-.65 0-1.178-.527-1.178-1.178V20.093c0-.651.527-1.178 1.178-1.178h11.776c.651 0 1.178.527 1.178 1.178v36.506c0 .65-.527 1.178-1.178 1.178zm-10.598-2.355h9.42V21.27h-9.42v34.152z"/><path fill="#EAC583" d="M47.27 11.849h11.776v31.796H47.27V11.849z"/><path fill="#000" d="M59.046 44.823H47.27a1.177 1.177 0 0 1-1.178-1.178V11.849c0-.651.527-1.177 1.178-1.177h11.776c.651 0 1.178.526 1.178 1.177v31.796c0 .65-.527 1.178-1.178 1.178zm-10.599-2.355h9.421V13.027h-9.42v29.44z"/><path fill="#EE5281" d="M35.493 11.849H47.27v4.71H35.493v-4.71z"/><path fill="#000" d="M47.27 17.738H35.493c-.65 0-1.177-.527-1.177-1.178v-4.711c0-.651.526-1.177 1.177-1.177H47.27c.65 0 1.177.526 1.177 1.177v4.71c0 .652-.526 1.178-1.177 1.178zm-10.6-2.356h9.421v-2.355H36.67v2.355z"/><path fill="#EE5281" d="M35.493 58.954H47.27v4.71H35.493v-4.71z"/><path fill="#000" d="M47.27 64.843H35.493c-.65 0-1.177-.527-1.177-1.178v-4.71c0-.651.526-1.178 1.177-1.178H47.27c.65 0 1.177.527 1.177 1.178v4.71c0 .65-.526 1.178-1.177 1.178zm-10.6-2.357h9.421v-2.355H36.67v2.355z"/><path fill="#FCAD3A" d="M35.493 16.56H47.27v42.394H35.493V16.56z"/><path fill="#000" d="M47.27 60.132H35.493c-.65 0-1.177-.527-1.177-1.177V16.56c0-.651.526-1.178 1.177-1.178H47.27c.65 0 1.177.527 1.177 1.178v42.395c0 .65-.526 1.177-1.177 1.177zm-10.6-2.355h9.421v-40.04H36.67v40.04z"/><path fill="#FEDA38" d="m34.48 17.054-10.583-5.163-2.958 6.063 10.656 5.015 2.886-5.915z"/><path fill="#000" d="M31.594 24.146c-.168 0-.338-.035-.5-.111l-10.656-5.016a1.181 1.181 0 0 1-.557-1.582l2.957-6.063a1.178 1.178 0 0 1 1.575-.542l10.584 5.164c.584.285.827.99.542 1.574l-2.885 5.915a1.18 1.18 0 0 1-1.06.661zm-9.073-6.749 8.525 4.01 1.86-3.811-8.467-4.13-1.918 3.931z"/><path fill="#FEDA38" d="m1.178 58.46 10.584 5.163 3.488-7.15-10.79-4.74-3.282 6.727z"/><path fill="#000" d="M11.762 64.8a1.18 1.18 0 0 1-.516-.119L.662 59.518a1.178 1.178 0 0 1-.543-1.575l3.282-6.726c.276-.57.95-.815 1.532-.563l10.791 4.74a1.18 1.18 0 0 1 .584 1.595l-3.488 7.15a1.176 1.176 0 0 1-1.058.662zm-9.009-6.882 8.467 4.13 2.435-4.99-8.633-3.792-2.269 4.652z"/><path fill="#26BBEC" d="m20.939 17.954-16.48 33.78 10.791 4.739 16.345-33.504-10.656-5.015z"/><path fill="#000" d="M15.25 57.65c-.159 0-.32-.033-.473-.1L3.986 52.813a1.18 1.18 0 0 1-.584-1.595l16.478-33.78a1.18 1.18 0 0 1 1.56-.55l10.656 5.015a1.179 1.179 0 0 1 .558 1.583L16.309 56.989a1.177 1.177 0 0 1-1.06.66zm-9.195-6.502 8.633 3.79 15.325-31.413-8.525-4.011L6.055 51.148z"/><path fill="#fff" d="M64.934 53.066c-.65 0-1.177-.527-1.177-1.178v-9.42a1.177 1.177 0 1 1 2.355 0v9.42c0 .651-.527 1.178-1.178 1.178z"/><path fill="#83D816" d="M47.27 48.355h11.776v15.31H47.27v-15.31z"/><path fill="#000" d="M59.046 64.843H47.27a1.177 1.177 0 0 1-1.178-1.178v-15.31c0-.65.527-1.177 1.178-1.177h11.776c.651 0 1.178.527 1.178 1.178v15.309c0 .65-.527 1.178-1.178 1.178zm-10.599-2.356h9.421V49.533h-9.42v12.954z"/><path fill="#8C6B37" d="M47.27 43.645h11.776v4.71H47.27v-4.71z"/><path fill="#000" d="M59.046 49.533H47.27a1.177 1.177 0 0 1-1.178-1.177v-4.711c0-.651.527-1.178 1.178-1.178h11.776c.651 0 1.178.527 1.178 1.178v4.71c0 .652-.527 1.178-1.178 1.178zm-10.599-2.355h9.421v-2.355h-9.42v2.355z"/><path fill="#fff" d="M54.335 21.27H51.98a1.177 1.177 0 1 1 0-2.355h2.355a1.177 1.177 0 1 1 0 2.355zm0 4.71H51.98a1.177 1.177 0 1 1 0-2.354h2.355a1.177 1.177 0 1 1 0 2.355zm-12.953 9.814a1.177 1.177 0 0 1-1.178-1.178v-5.102a1.177 1.177 0 1 1 2.355 0v5.102c0 .65-.526 1.178-1.177 1.178zm0 17.272a1.177 1.177 0 0 1-1.178-1.177V41.682a1.177 1.177 0 1 1 2.355 0v10.207c0 .65-.526 1.177-1.177 1.177zM21.95 30.69a1.176 1.176 0 0 1-1.052-1.703l1.766-3.533a1.177 1.177 0 1 1 2.106 1.054l-1.766 3.532c-.206.413-.622.65-1.054.65z"/></g><defs><clipPath id="a"><path fill="#fff" d="M0 0h72v72H0z"/></clipPath></defs></svg>