<svg xmlns="http://www.w3.org/2000/svg" width="72" height="72" fill="none"><g clip-path="url(#a)"><path fill="#EE5281" d="M65.684 29.667c0 7.675-6.222 13.896-13.896 13.896-7.675 0-13.896-6.221-13.896-13.896 0-7.674 6.221-13.896 13.896-13.896 7.674 0 13.896 6.222 13.896 13.896z"/><path fill="#000" d="M51.788 44.827c-8.359 0-15.16-6.8-15.16-15.16 0-8.359 6.801-15.159 15.16-15.159s15.16 6.8 15.16 15.16c0 8.359-6.801 15.159-15.16 15.159zm0-27.792c-6.965 0-12.632 5.667-12.632 12.632S44.823 42.3 51.788 42.3s12.633-5.667 12.633-12.633c0-6.965-5.668-12.632-12.633-12.632z"/><path fill="#fff" d="M46.434 26.313a1.263 1.263 0 0 1-.956-2.089 8.328 8.328 0 0 1 10.78-1.59 1.265 1.265 0 0 1-1.356 2.132 5.803 5.803 0 0 0-7.512 1.11 1.26 1.26 0 0 1-.956.437z"/><path fill="#EAC583" d="M30.837 40.236a6.316 6.316 0 0 1-8.898.794L3.53 25.63a6.317 6.317 0 0 1-.794-8.897c2.238-2.676 3.575-2.225 8.898-.793 7.715 2.076 16.156 10.22 18.411 15.399 2.255 5.18 3.03 6.222.793 8.898z"/><path fill="#000" d="M25.979 43.764a7.523 7.523 0 0 1-4.85-1.765l-18.411-15.4A7.528 7.528 0 0 1 .03 21.46a7.527 7.527 0 0 1 1.737-5.536c2.693-3.225 4.765-2.666 9.77-1.316l.424.113c7.8 2.098 16.747 10.387 19.242 16.115l.535 1.222c1.853 4.2 2.62 5.939.067 8.99a7.527 7.527 0 0 1-5.826 2.717zM6.197 16.055c-1.086 0-1.632.46-2.491 1.488a5.02 5.02 0 0 0-1.159 3.691 5.024 5.024 0 0 0 1.791 3.428L22.75 40.061a5.023 5.023 0 0 0 3.69 1.157 5.02 5.02 0 0 0 3.427-1.791c1.51-1.805 1.406-2.165-.44-6.351l-.54-1.231c-2.224-5.106-10.562-12.796-17.582-14.684l-.424-.115c-2.36-.636-3.73-.99-4.684-.99z"/><path fill="#000" d="M12.266 24.322a1.264 1.264 0 0 1-.113-2.522l9.75-.888a1.265 1.265 0 0 1 .23 2.516l-9.75.889c-.04.003-.078.005-.117.005zm7.751 6.484a1.263 1.263 0 0 1-.182-2.513l7.767-1.138a1.25 1.25 0 0 1 1.433 1.066 1.263 1.263 0 0 1-1.066 1.433l-7.767 1.139c-.063.01-.124.013-.185.013z"/><path fill="#FEDA38" d="M52.803 68.829H22.98a9.906 9.906 0 0 1-9.492-7.074L5.047 33.457h65.69l-8.443 28.298a9.906 9.906 0 0 1-9.491 7.074z"/><path fill="#000" d="M52.803 70.092H22.981c-4.9 0-9.303-3.28-10.703-7.976L3.837 33.818a1.261 1.261 0 0 1 1.21-1.625h65.69a1.266 1.266 0 0 1 1.21 1.625l-8.442 28.298c-1.4 4.695-5.801 7.976-10.702 7.976zM6.742 34.72l7.957 26.673c1.084 3.634 4.489 6.172 8.282 6.172h29.822c3.792 0 7.197-2.538 8.282-6.172l7.957-26.673h-62.3z"/><path fill="#000" d="M66.947 46.09H8.837a1.262 1.262 0 1 1 0-2.527h58.11a1.262 1.262 0 1 1 0 2.527zm-3.79 13.896h-50.53a1.263 1.263 0 1 1 0-2.527h50.53a1.262 1.262 0 1 1 0 2.526z"/><path fill="#000" d="M24.1 70.092a1.262 1.262 0 0 1-1.262-1.263V33.457a1.262 1.262 0 1 1 2.526 0v35.372c0 .698-.565 1.263-1.263 1.263zm26.424 0a1.262 1.262 0 0 1-1.263-1.263V33.457a1.262 1.262 0 1 1 2.527 0v35.372c0 .698-.566 1.263-1.264 1.263zm11.402-48.658a1.26 1.26 0 0 1-1.231-1.55L63.191 9.17a1.255 1.255 0 0 1 1.516-.944c.68.158 1.103.837.944 1.516l-2.496 10.716a1.263 1.263 0 0 1-1.229.977z"/><path fill="#83D816" d="M61.786 14.366s-15.372-4.18-10.81-9.962c4.563-5.782 10.81 9.962 10.81 9.962z"/><path fill="#000" d="M61.785 15.63a1.3 1.3 0 0 1-.331-.045c-1.105-.3-10.84-3.07-12.373-7.714-.33-1-.44-2.547.903-4.249 1.325-1.679 2.763-1.857 3.735-1.718 4.528.662 8.492 10.11 9.24 11.996a1.264 1.264 0 0 1-1.174 1.73zM53.188 4.39c-.249 0-.674.105-1.22.796-.704.891-.615 1.507-.488 1.893.657 1.994 4.588 3.986 8.022 5.232-1.77-3.687-4.305-7.639-6.148-7.907a1.043 1.043 0 0 0-.166-.014zM37.787 70.092a1.262 1.262 0 0 1-1.264-1.263V33.457a1.263 1.263 0 1 1 2.527 0v35.372c0 .698-.565 1.263-1.263 1.263z"/></g><defs><clipPath id="a"><path fill="#fff" d="M0 0h72v72H0z"/></clipPath></defs></svg>