<svg xmlns="http://www.w3.org/2000/svg" width="274" height="232" fill="none"><g opacity=".85"><g opacity=".9"><path fill="#DFE4F3" d="M196.995 39.697c1.443.168 2.727.458 3.763.862 2.587-.578 5.141-1.164 7.708-1.73 1.161-.27 2.302-.527 3.442-.785-5.011.746-9.971 1.233-14.913 1.653zm-52.248 5.742c6.488.176 18.909-2.27 30.874-4.168-10.667 1.12-20.891 2.212-30.874 4.168zM112.552 68.75c1.054-.207 2.1-.381 3.105-.475 4.684-2.504 9.686-4.504 14.686-6.56-1.169.159-2.253.413-3.406.649-2.45 1.014-4.942 1.908-7.333 2.974l-7.052 3.413zm84.577-25.695c-12.842 3.206-27.108 5.086-40.883 7.37-3.455.563-6.864 1.157-10.153 1.91-3.31.766-6.63 1.365-9.698 2.45-3.106 1.02-6.156 2.037-9.003 3.308a86.224 86.224 0 0 0-7.976 4.29c3.724-.346 7.538-1.031 11.499-1.514l8.239-2.695c2.783-.834 5.62-1.527 8.419-2.284 5.564-1.523 11.499-2.802 17.24-4.17a673.319 673.319 0 0 1 20.917-4.746c6.012-1.295 12.023-2.59 18.013-3.872-.512-1.136-1.528-1.952-2.973-2.521-4.761 1.03-9.509 2.083-14.27 3.113 3.464-.052 6.976-.22 10.629-.639z"/><path fill="#DFE4F3" d="M133.574 60.565c2.516-.851 5.013-1.835 7.591-2.579l7.746-2.21c5.168-1.466 10.613-2.749 15.902-4.056-5.741 1.368-11.675 2.647-17.24 4.17-2.799.757-5.636 1.45-8.419 2.284l-8.239 2.695c.882-.108 1.777-.196 2.659-.304zm26.315-15.737c9.456-1.48 17.841-.995 26.633-1.146 4.748-1.052 9.509-2.083 14.27-3.114-1.048-.425-2.32-.693-3.763-.862-12.526 1.075-24.785 1.768-37.14 5.122zm15.719-3.578c6.123-.557 12.344-1.143 18.62-1.731-5.141-.124-11.782.675-18.62 1.73zm10.122 5.724a651.468 651.468 0 0 0-20.917 4.746c6.961-1.585 13.956-3.161 20.917-4.746zM99.085 77.471c1.261-.843 2.738-1.409 4.073-2.123 2.356-1.674 5.008-3.034 7.589-4.467l1.997-1.153 2.935-1.465a34.155 34.155 0 0 0-3.105.475l-7.012 4.077c-2.183 1.576-4.441 3.023-6.477 4.656zM79.687 89.214l1.71-1.503c.468-.728.89-1.486 1.39-2.205l1.622-2.053c1.074-1.365 2.136-2.75 3.432-3.928-3.166 2.8-5.88 6.086-8.154 9.69zm124.237-45.701c-.032-.154-.127-.27-.18-.411-6.012 1.295-12.002 2.577-18.014 3.872a441.874 441.874 0 0 1 18.194-3.46z"/><path fill="#DFE4F3" d="M81.397 87.711c-3.663 5.809-5.83 12.472-6.257 19.275-.46 6.793.684 13.635 2.847 20.06-1.177-6.107-1.493-12.309-.636-18.216.845-5.928 2.833-11.513 5.921-16.532 3.742-6.169 9.374-11.196 15.847-14.818 2.023-1.655 4.315-3.093 6.443-4.665l7.012-4.077a59.795 59.795 0 0 0-8.306 2.877c-1.348.692-2.717 1.397-4.107 2.114-.678.363-1.39.717-2.078 1.114l-1.945 1.294c-5.446 3.316-10.14 7.487-14.74 11.574z"/><path fill="#DFE4F3" d="M126.959 62.352c1.302-.523 2.591-1.067 3.955-1.483-3.96.483-7.796 1.18-11.498 1.514 2.476-1.515 5.146-2.943 7.976-4.29 2.847-1.272 5.897-2.288 9.003-3.308 3.09-1.097 6.422-1.675 9.698-2.45 3.301-.732 6.697-1.347 10.153-1.91 13.775-2.284 28.041-4.164 40.883-7.37-3.665.398-7.178.565-10.608.627-8.854 1.877-17.666 3.729-26.466 5.602-4.388.931-8.806 1.763-13.12 2.823-4.318 1.004-8.685 1.922-12.907 3.242-2.129.628-4.261 1.2-6.378 1.85l-6.257 2.21-3.111 1.11-3.022 1.314c-2.002.898-4.066 1.689-6.027 2.707-7.88 3.862-15.31 8.753-21.414 14.997 1.44-1.175 2.706-2.507 4.258-3.489l4.54-3.05c1.602-.897 3.22-1.716 4.825-2.557 1.559-.871 3.251-1.562 4.934-2.219 1.683-.656 3.319-1.344 5.006-1.945l5.164-1.522c3.392-1.07 6.967-1.674 10.413-2.403z"/><path fill="#DFE4F3" d="m112.552 68.75 7.052-3.412c2.379-1.088 4.892-1.994 7.333-2.974-3.445.73-6.999 1.32-10.366 2.434l-5.165 1.522c-1.673.623-3.323 1.288-5.006 1.945-1.683.657-3.375 1.347-4.934 2.219-1.605.84-3.223 1.66-4.825 2.556l-4.54 3.05c-1.573.995-2.816 2.315-4.257 3.49-1.296 1.178-2.358 2.564-3.432 3.928l-1.621 2.053c-.502.72-.923 1.478-1.39 2.206 4.6-4.088 9.282-8.28 14.707-11.584l1.944-1.294c.688-.397 1.378-.739 2.078-1.114l4.107-2.114a53.57 53.57 0 0 1 8.315-2.91zm14.407-6.399c1.143-.202 2.237-.49 3.405-.649l3.244-1.128c-.895.087-1.777.196-2.672.283-1.386.428-2.675.972-3.977 1.494zm86.996-24.63-2.026.311c-1.14.258-2.302.528-3.442.785-2.588.578-5.142 1.165-7.708 1.73 1.445.569 2.439 1.398 2.973 2.521 2.558-.532 5.127-1.042 7.684-1.573l3.821-.774 1.78-.34.716-.1c.725-.132 1.463-.243 2.108.13.62.329 1.047.97 1.154 1.652.142.691-.218 1.357-.53 1.91l-.219.413-.11.206-.253.604-1.222 2.796c-.441 1.715-.785 3.402-1.097 5.043 1.033-2.229 2.087-4.47 3.142-6.71l.406-.836.186-.422.1-.173.468-.728c.302-.518.703-1.064.909-1.699.435-1.282.129-2.852-.866-3.88a3.903 3.903 0 0 0-1.853-1.078c-.721-.157-1.471-.067-2.271-.063l-1.562.071-2.288.204zm-83.612 23.994c.882-.109 1.786-.23 2.678-.373 1.21-.383 2.433-.746 3.656-1.108l-3.112.365-3.222 1.116z"/><path fill="#DFE4F3" d="M112.744 69.728c1.026-.506 2.042-.978 3.089-1.497l-.166.01-2.923 1.487z"/><path fill="#DFE4F3" d="m115.657 68.275.166-.01c2.733-1.32 5.452-2.66 8.389-3.726 2.877-1.118 5.761-2.324 8.821-3.175-.904.121-1.808.242-2.678.372-4.99 2.022-10.026 4.014-14.698 6.54zm88.266-24.762c-6.105 1.034-12.157 2.209-18.215 3.473-6.961 1.585-13.934 3.149-20.917 4.747-5.31 1.319-10.734 2.59-15.902 4.056l-7.746 2.21c-2.565.765-5.053 1.715-7.59 2.578l3.111-.365c3.748-1.247 7.735-2.031 11.711-2.982 3.934-.925 8.256-1.674 12.544-2.431 19.518-4.54 34.289-8.573 53.48-11.894 1.008-.238 2.105-.47 3.288-.753.553-.233 1.372-.105 1.747.595.186.322.197.688.156 1.113l-.014.323-.012.178c.021-.012-.118.44-.163.61-.251 1.004-.536 1.999-.8 2.981l1.256-2.786.252-.604.11-.207.22-.413c.311-.552.65-1.206.53-1.91-.108-.682-.513-1.335-1.155-1.652-.623-.385-1.382-.261-2.107-.129l-.717.099-1.779.34-3.821.774a862.752 862.752 0 0 1-7.684 1.573c.112.194.186.322.217.476zm2.705 56.82c3.543-10.034 6.871-20.144 10.217-30.322 1.673-5.09 3.346-10.178 5.007-15.288l2.563-7.665 1.081-3.287c.383-1.023.652-2.094.466-3.16-.087 1.138-.612 2.213-1.192 3.093l-.81 1.326c-.284.45-.48.707-.827 1.394l-3.901 7.034c-2.632 4.669-5.251 9.36-7.892 14.062-.946 2.379-1.837 4.755-2.729 7.13.041 2.153.047 4.297-.649 5.672-1.211 2.417-2.407 4.71-3.538 6.968-1.534 5.18-2.844 10.403-3.864 15.63-.546 2.577-.919 5.255-1.209 7.828-.299 2.606-.633 5.204-.932 7.811 2.961-6.033 5.401-12.224 8.209-18.226z"/><path fill="#DFE4F3" d="M212.871 63.773c-1.38 2.371-2.877 4.839-4.219 7.475-.023.357-.034.735-.044 1.114l2.732-4.842c.502-1.263 1.017-2.505 1.531-3.747zm-19.105 63.742a216.804 216.804 0 0 0 4.649-9.012c.3-2.607.633-5.204.932-7.811.291-2.572.676-5.229 1.209-7.827 1.021-5.228 2.321-10.416 3.864-15.631a406.726 406.726 0 0 0-5.54 11.388 197.26 197.26 0 0 0-2.645 5.936c-.791 2.003-1.613 4.052-2.483 6.215-1.262 4.909 2.031 8.677-.348 12.742-4.212 7.042-9.686 14.526-15.18 21.677-5.479 7.229-10.931 13.957-15.424 20.759-3.841 3.964-8.482 7.732-13.845 10.399-5.35 2.688-11.466 4.1-17.669 3.873l-2.338-.081c-.769-.043-1.536-.23-2.309-.328-1.518-.298-3.112-.38-4.575-.88-1.503-.421-2.985-.854-4.454-1.266a288.638 288.638 0 0 1-4.246-1.7c-1.43-.491-2.75-1.19-4.078-1.854-1.329-.665-2.633-1.286-3.916-1.92-2.451-1.419-4.811-2.777-7.13-4.015 2.556 1.846 4.909 3.837 7.497 5.493 2.618 1.609 5.108 3.292 7.879 4.47 5.297 2.725 11.029 4.369 16.661 4.897 1.403.049 2.81.353 4.212.202 1.384-.083 2.781-.145 4.165-.228 1.34-.258 2.692-.495 4.033-.754 1.343-.203 2.587-.777 3.865-1.143 5.037-1.792 9.641-4.335 13.642-7.475 8.048-6.25 14.3-13.926 19.661-21.803 5.353-7.843 9.84-16.046 13.911-24.323z"/><path fill="#DFE4F3" d="M208.608 72.362c0 .744.012 1.51.025 2.276.857-2.385 1.782-4.752 2.728-7.13l-2.753 4.854zM99.085 77.471l-3.54 3.046c-1.196 1.005-2.135 2.206-3.191 3.303l2.46-2.337c.842-.773 1.815-1.42 2.695-2.129l2.728-2.119 2.921-1.887c-1.335.714-2.822 1.314-4.073 2.123zM214.79 37.383l-1.994.464c.387-.023.763-.068 1.159-.125l1.783-.285-.948-.054z"/><path fill="#DFE4F3" d="M186.787 38.289c10.276-1.151 19.285-1.571 28.025-.919a188.35 188.35 0 0 0 2.99-.724c.833-.195 1.684-.457 2.545-.553a5.025 5.025 0 0 1 2.561.468c1.6.737 2.794 2.31 3.033 4.062.219-1.902-.614-3.941-2.21-5.167a5.658 5.658 0 0 0-2.767-1.122c-1.007-.107-2.052.067-3.147.155-10.184 1.013-20.512 2.223-31.03 3.8z"/><path fill="#DFE4F3" d="m215.738 37.437-1.783.285 2.254-.214 1.562-.072c.822-.016 1.55-.093 2.271.064.72.157 1.365.529 1.853 1.077.995 1.03 1.313 2.62.866 3.881-.206.635-.607 1.18-.909 1.699l-.468.728-.1.173-.186.422-.406.835c-1.054 2.241-2.088 4.47-3.142 6.71-.076.416-.151.832-.217 1.214-.774 3.024-2.508 6.172-4.484 9.546-.514 1.242-1.016 2.506-1.531 3.748 2.641-4.703 5.272-9.372 7.892-14.063l3.901-7.033c.36-.666.556-.923.827-1.395l.81-1.326c.568-.9 1.105-1.955 1.192-3.093-.238-1.753-1.432-3.325-3.032-4.062a5.205 5.205 0 0 0-2.561-.468c-.874.075-1.712.358-2.545.553-.987.226-1.982.486-2.99.724l.926.067zm-21.51 2.082c.979.008 1.905.074 2.767.178 4.942-.42 9.902-.907 14.934-1.665l.867-.185c-6.212.551-12.411 1.124-18.568 1.672z"/><path fill="#DFE4F3" d="m211.942 38.053 2.025-.31c-.387.023-.762.068-1.159.125l-.866.185z"/><path fill="#DFE4F3" d="m81.397 87.712-1.71 1.502c2.261-3.624 4.976-6.91 8.154-9.69 6.104-6.243 13.534-11.134 21.414-14.997 1.94-1.005 4.003-1.796 6.027-2.706l3.021-1.315 3.112-1.11 6.257-2.209c2.104-.671 4.249-1.222 6.378-1.85 4.221-1.32 8.589-2.239 12.907-3.243 4.293-1.047 8.744-1.87 13.12-2.822 8.778-1.861 17.611-3.725 26.466-5.602-8.791.15-17.176-.334-26.633 1.146 12.377-3.366 24.615-4.047 37.106-5.131-.862-.104-1.776-.15-2.766-.178-6.276.588-12.497 1.173-18.62 1.73-11.952 1.92-24.385 4.344-30.874 4.168 9.983-1.956 20.207-3.048 30.874-4.168 6.837-1.055 13.466-1.876 18.62-1.73 6.144-.57 12.356-1.121 18.567-1.673l1.995-.464c-8.718-.664-17.748-.232-28.024.919 10.529-1.556 20.857-2.766 31.042-3.778 1.094-.088 2.14-.262 3.146-.156a5.361 5.361 0 0 1 2.767 1.122c1.596 1.227 2.429 3.265 2.21 5.167.186 1.067-.104 2.15-.466 3.161l-1.081 3.287-2.563 7.664c-1.682 5.123-3.356 10.212-5.007 15.289-3.325 10.165-6.674 20.288-10.218 30.322a20478.9 20478.9 0 0 1 15.832-35.282c1.301-2.955 2.58-5.899 3.881-8.854 1.346-3.125 2.671-6.238 4.017-9.363.935-2.2 1.759-4.394 1.805-6.597.068-2.215-.668-4.481-1.956-6.315-1.3-1.855-3.229-3.26-5.364-4.032-2.209-.7-4.442-.7-6.935-.206-3.82.775-7.662 1.561-11.526 2.36a4576.64 4576.64 0 0 1-10.576 2.27c-7.096.804-14.477 2.803-21.858 4.803-5.028 1.757-10.338 2.332-15.658 2.941-5.31.575-10.62 1.15-15.792 3.105-10.153 3.4-20.352 7.312-30.287 12.132-9.912 4.806-19.697 10.628-27.986 18.792l-1.566 1.505-1.411 1.674-2.83 3.38c-1.596 2.496-3.465 4.864-4.69 7.604-1.487 2.634-2.438 5.502-3.499 8.376l-1.113 4.423c-.412 1.469-.476 2.995-.73 4.487-.728 6.032-.551 12.143.357 18.033.964 5.885 2.517 11.603 4.449 17.13 1.256 3.713 3.79 7.26 6.826 10.633 3.088 3.314 6.783 6.391 10.582 9.151 2.034 1.489 3.99 2.249 5.684 2.503-4.655-5.731-8.478-11.856-11.582-18.224-3.103-6.368-5.412-12.995-6.714-19.716-2.163-6.425-3.306-13.267-2.846-20.06a41.395 41.395 0 0 1 6.265-19.308z"/><path fill="#DFE4F3" d="M83.238 92.29a43.28 43.28 0 0 0-5.92 16.531c-.846 5.928-.542 12.109.635 18.216 2.294 6.95 5.83 13.47 9.925 19.523a99.884 99.884 0 0 0 14.128 16.582c.829-.995 1.119-2.278.71-3.532.539-3.432-2.371-6.39-5.985-9.772-3.623-3.348-7.969-7.253-10.113-11.513-4.715-9.159-7.42-19.451-6.706-29.226.274-4.883 1.74-9.538 3.84-13.786.948-2.179 2.444-4.102 3.724-6.1l2.357-2.764 1.172-1.393 1.336-1.258c1.07-1.075 2.008-2.276 3.192-3.303l3.54-3.046c-6.448 3.666-12.093 8.671-15.835 14.84z"/><path fill="#DFE4F3" d="M96.261 164.998c2.657.385 4.693-.504 5.757-1.835a99.576 99.576 0 0 1-14.127-16.582c-4.096-6.053-7.631-12.573-9.925-19.523 1.28 6.734 3.589 13.361 6.714 19.717 3.104 6.368 6.927 12.493 11.581 18.223z"/><path fill="#B4BFE3" d="M112.386 68.76c.056-.003.077-.015.133-.018l.257-.15-.39.169zm73.344-21.786a651.468 651.468 0 0 0-20.917 4.746c6.961-1.585 13.956-3.161 20.917-4.746zm-83.37 28.778c1.23-.796 2.426-1.602 3.657-2.398 1.279-.71 2.593-1.411 3.873-2.121l1.031-.596c.153-.231.33-.42.483-.65-1.02.416-1.02.416-2.052.811 1.077-.764 2.172-1.397 3.123-2.032l-6.968 4.052c-2.129 1.573-4.377 2.986-6.4 4.64.959-.668 2.176-1.141 3.253-1.706zm117.011-29.791-.169.7.292-.685c-.012-.021-.067-.018-.123-.015zm.437-2.17.006.11c.179.012.434.008.711-.009.14-.253.281-.505.387-.767-.285.25-.702.52-1.104.666zM79.687 89.214l1.71-1.503c.468-.728.89-1.486 1.39-2.205l1.622-2.053c1.074-1.365 2.136-2.75 3.432-3.928-3.166 2.8-5.88 6.086-8.154 9.69z"/><path fill="#B4BFE3" d="M203.924 43.513c-6.105 1.034-12.157 2.209-18.215 3.473-6.961 1.585-13.935 3.149-20.917 4.747-5.31 1.319-10.735 2.59-15.903 4.056l-7.746 2.21c-2.565.765-5.053 1.715-7.59 2.578l1.368-.16a113.012 113.012 0 0 1 4.407-1.742l-1.239.83c.341-.054.824-.161 1.34-.259 4.235-1.099 8.611-2.05 13.098-3.01 2.415-.678 4.628-1.211 6.376-1.16l1.011-.184c9.564-2.286 17.999-4.293 26.358-6.285-.038-.264.035-.535.074-.815a608.46 608.46 0 0 1 6.098-.6 441.754 441.754 0 0 1 14.519-3.029c.585-.623-2.206-.844-.97-1.53.163-.065.317-.097.458-.15l-2.766.567c.133.18.207.31.239.463z" opacity=".9"/><path fill="#B4BFE3" d="M130.343 61.715c.661-.096 1.356-.182 2.017-.277.338-.11.633-.194.949-.29l1.646-.722-1.368.16-3.244 1.129zm91.631-17.743c.385-.623.853-1.351.948-2.18.094-.827-.048-1.718-.469-2.448a3.635 3.635 0 0 0-1.946-1.683c-.853-.338-1.757-.217-2.723-.203l-1.563.072-2.254.213-2.026.31c-1.14.258-2.301.528-3.442.785-2.587.578-5.141 1.165-7.708 1.73 1.446.57 2.44 1.398 2.974 2.521l2.766-.566c.894-.287 1.641-.432 2.327-.484l5.127-1.042 2.569-.51.747-.145.473-.073c.803-.148 1.63-.253 2.281.23a2.21 2.21 0 0 1 .962 1.964c.142.147.079.384-.129.619a3.291 3.291 0 0 1-.388.767c.588-.024 1.258-.153 1.474.123zm-37.912 102.603.221-.214.171-.299c-.113.151-.257.349-.392.513z"/><path fill="#C0CAE8" d="M206.427 100.879c3.57-10.136 6.959-20.339 10.324-30.585a44335 44335 0 0 0 5.064-15.436l2.582-7.732 1.09-3.321c.383-1.023.674-2.107.475-3.195-.14 1.742-1.266 3.165-1.99 4.442l-.586.968-.733 1.31-1.474 2.656-5.922 10.577c-.223.558-.436 1.082-.667 1.673.06-.292.112-.55.175-.788l-1.105 1.955c.269.417.664.705 1.237.804-1.522 1.68-2.825 6.813-4.117 5.469-.093-.061-.112-.194-.143-.347l-1.576 4.116c.047 2.264.097 4.583-.651 6.017-.128.274-.268.527-.408.78a20.052 20.052 0 0 1-1.471 2.91l-.009.034c1.292 1.344 3.887-2.445 3.789-.928-1.355 6.681-4.071 7.533-6.209 6.162-1.442 5.042-2.685 10.083-3.66 15.141-.234 1.28-.472 2.506-.681 3.829l-.476 3.74c-.294 2.517-.609 5.047-.903 7.564 2.925-5.897 5.329-11.952 8.045-17.815z" opacity=".9"/><path fill="#BFC8E7" d="m184.283 146.361-.22.214c.122-.185.278-.361.413-.525 3.482-6.42 6.672-12.9 9.84-19.368 1.453-2.642 2.804-5.312 4.131-8.025.293-2.518.608-5.047.902-7.565l.476-3.739c.21-1.324.426-2.537.682-3.83a169.942 169.942 0 0 1 3.66-15.14l-.173-.101c-1.735 3.493-3.409 6.893-5.018 10.456-.792 1.803-1.606 3.619-2.416 5.489l-.603 1.437-.557 1.466c-.377.934-.742 1.889-1.128 2.857-1.182 4.948-2.981 12.2-5.459 16.093-4.302 6.836-7.649 12.548-10.715 18.498-3.1 5.941-5.885 12.131-10.135 19.452-8.603 8.861-18.678 15.222-29.781 16.678-11.139 1.393-22.384-2.308-33.097-7.719 6.265 4.056 13.379 7.794 21.372 9.536 1.947.594 4.036.59 6.086.867 2.056.187 4.144-.016 6.22-.041 4.111-.569 8.294-1.41 12.11-3.184 7.772-3.256 14.381-8.675 19.868-14.649 5.465-5.961 9.925-12.573 13.542-19.157z" opacity=".9"/><path fill="#B4BFE3" d="M210.616 68.797c-.522.931-1.044 1.862-1.557 2.76.003.6-.004 1.233.011 1.854l1.576-4.116a2.532 2.532 0 0 1-.03-.498zm3.033-25.802c.866-.186 1.798-.408 2.707-.618.126-.13.31-.208.494-.286.163-.065.513-.153.492-.14.111-.007.216.075.308.137l.077-.016c.372-.1.799-.204 1.234.003.073-.07.156-.176.229-.247 0 0-.036.136-.103.318.219.13.408.308.544.545.325-.131.642-.228.869-.33.277-.017.425.04.508.136a2.21 2.21 0 0 0-.962-1.965c-.651-.482-1.491-.399-2.28-.229l-.474.073-.747.145-2.569.51-5.127 1.041c1.9-.18 3.041.506 4.8.923zm7.666 2.016c-.555.578-1.264.987-1.811.931l-.293.684a89.744 89.744 0 0 0-1.17 5.315c1.085-2.287 2.179-4.609 3.274-6.93zm-10.497 22.152a68.574 68.574 0 0 0-1.721 3.17c-.032.39-.052.802-.05 1.202.522-.931 1.044-1.862 1.557-2.76.029-.446.106-1.006.214-1.612zm-6.894-23.65c-.032-.154-.127-.27-.18-.411-6.012 1.295-12.002 2.577-18.014 3.872a441.874 441.874 0 0 1 18.194-3.46z"/><path fill="#B4BFE3" d="M87.853 79.546c-1.296 1.178-2.358 2.564-3.431 3.928L82.8 85.528c-.501.72-.923 1.478-1.39 2.206 4.578-4.075 9.252-8.233 14.62-11.534 2.503-1.817 5.448-3.116 8.075-4.518 2.782-1.234 5.605-2.148 8.26-2.908.739-.456 1.456-1.099 2.216-1.766-.44.626-1.065 1.13-1.783 1.573.141-.053.304-.118.466-.183l6.717-3.248c2.297-.983 4.644-1.88 6.987-2.831-3.446.729-6.999 1.32-10.366 2.434l-5.165 1.522c-1.674.622-3.323 1.288-5.006 1.945-1.683.657-3.375 1.347-4.934 2.219-1.605.84-3.223 1.66-4.825 2.556l-4.54 3.05c-1.595 1.008-2.86 2.34-4.279 3.502z" opacity=".9"/><path fill="#D9DFF1" d="m81.397 87.712-1.71 1.502c2.26-3.624 4.975-6.91 8.154-9.69 6.104-6.243 13.533-11.134 21.413-14.997 1.94-1.005 4.004-1.796 6.028-2.706l3.021-1.315 3.111-1.11 6.257-2.209c2.105-.67 4.25-1.222 6.379-1.85 4.221-1.32 8.588-2.239 12.906-3.243 4.293-1.047 8.744-1.87 13.121-2.822 8.778-1.861 17.611-3.725 26.466-5.602-8.792.15-17.177-.334-26.633 1.146 12.377-3.366 24.615-4.047 37.106-5.131-.862-.104-1.776-.15-2.767-.178-6.276.588-12.497 1.173-18.619 1.73-9.875 1.55-20.131 3.578-27.005 4.024-3.833.753-7.709 1.53-11.609 2.465-3.852 1.165-7.769 2.367-11.66 4.012-1.489.745-3.456 1.852-5.517 2.498-1.621.764-3.341 1.556-5.124 2.386-1.811 1.675-5.504 2.92-7.212 4.078-1.899 1.325-3.878 2.41-5.907 3.41-2.042.978-3.984 2.129-6.017 3.073-.349.288-.69.541-1.017.817-.827.85-3.293 2.73-5.596 3.602l-1.41 1.13-1.302 1.267-2.626 2.546c-.389.368-.765.757-1.133 1.113l-4.18 4.962c-.182.877-.738 1.6-1.529 2.314-2.975 4.123-4.988 8.921-6.65 13.832-1.369 4.97-2.235 10.166-2.25 15.3-.081 10.326 2.254 20.373 5.678 29.677 2.666 7.395 9.94 14.19 17.59 19.652 2.101 1.506 4.113 2.263 5.858 2.458-4.87-5.806-8.835-12.078-12.06-18.606-3.212-6.506-5.64-13.293-6.932-20.192-2.162-6.425-3.306-13.266-2.846-20.06.404-6.79 2.56-13.475 6.223-19.283z" opacity=".9"/><path fill="#B4BFE3" d="m169.007 41.97.124-.53a168.85 168.85 0 0 1-5.145 1.109 859.31 859.31 0 0 1 5.021-.58zm-42.048 20.381c-2.322.94-4.668 1.837-6.987 2.832l-6.717 3.248c2.006-.843 4.205-1.598 6.233-2.053 3.534-1.668 7.213-3.133 10.867-4.642-1.18.138-2.265.392-3.396.615z"/><path fill="#C8D0EA" d="M194.228 39.519c6.144-.57 12.356-1.121 18.568-1.672l1.995-.465c-8.719-.664-17.749-.232-28.025.92 10.53-1.556 20.858-2.766 31.042-3.779 1.095-.088 2.14-.262 3.147-.156a5.361 5.361 0 0 1 2.767 1.123c1.596 1.226 2.429 3.264 2.21 5.166.198 1.088-.092 2.172-.476 3.195l-1.09 3.321-2.581 7.732-5.065 15.437c-3.364 10.245-6.719 20.457-10.324 30.584 7.691-17.039 15.288-33.794 22.662-50.935.083-.65.068-1.271-.063-1.797-.123-.559-.292-1.149-.576-1.442 1.094-1.777 2.319-3.773 2.691-5.906.415-2.158-.065-4.43-1.203-6.35a9.92 9.92 0 0 0-5.14-4.19c-2.19-.768-4.463-.687-6.91-.162-1.644.377-3.276.775-4.92 1.151l-3.93.981c-2.628.658-5.255 1.316-7.904 1.986-5.301 1.286-10.621 2.44-16.052 3.054-.742-.344.862-.64 1.455-.953-2.072.48-4.109.969-6.181 1.449-3.205 1.392-6.486 3.2-10.709 4.121 1.977-.196 3.964-.427 5.962-.636 6.868-1.102 13.509-1.901 18.65-1.777z"/><path fill="#B4BFE3" d="M186.787 38.289c10.276-1.151 19.285-1.571 28.025-.919a188.35 188.35 0 0 0 2.99-.724c.833-.195 1.684-.457 2.545-.553a5.025 5.025 0 0 1 2.561.468c1.6.737 2.794 2.31 3.033 4.062.219-1.902-.614-3.941-2.21-5.167a5.658 5.658 0 0 0-2.767-1.122c-1.007-.107-2.052.067-3.147.155-10.184 1.013-20.512 2.223-31.03 3.8zm-11.179 2.961c-1.998.209-3.997.418-5.962.636-.23.047-.427.103-.658.15l.006-.089c-1.666.19-3.354.391-5.021.58-5.148 1.054-10.245 1.85-15.391 2.759 6.895-.46 17.164-2.465 27.026-4.036zM102.36 75.752c-1.077.565-2.293 1.038-3.296 1.731l-2.694 2.329-1.343 1.147c-.42.414-.793.859-1.191 1.26l.12-.04c1.19-1.26 2.722-2.23 4.077-3.356l2.091-1.637 2.236-1.434z"/><path fill="#D3D9EE" d="M77.965 127.058c2.338 7.125 5.99 13.749 10.183 19.919 4.21 6.102 9.216 11.944 14.494 16.771.731-.966.972-2.136.588-3.346.428-2.881-1.567-5.394-4.388-8.147-.439.282 2.819 3.641.523 2.046-1.763-.671-4.694-3.417-6.165-6.461-.267-.562-.497-1.059-.724-1.501l-.519-.502c-.498.03-.935-.033-.831-.895-.831-.894-2.628-4.352-3.972-7.871-1.433-3.525-2.402-7.088-2.717-8.08 0 0 .104.627.25 1.574.18.955.498 2.203.787 3.496.255 1.285.697 2.547.932 3.499.268.962.45 1.573.45 1.573-.362-.478-.724-.956-1.111-1.477.144.002.255-.005.4-.002-.28-.583-.572-1.188-.85-1.771-.9-.368-1.74-.284-2.447-1.508.322 1.102.3 1.115.665 2.193-1.568-1.128-2.6-4.454-3.035-6.695 1.24.115 1.718 2.33 2.082 3.408l-.309-1.081c.31 1.081 1.565 3.305 1.855 2.221.252-.804-.753-2.199-1.355-3.34a3.25 3.25 0 0 1-.336-.78.726.726 0 0 0-.069-.218.718.718 0 0 0 .07.218c.08.24.195.488.335.78.223.386.538.634.765.532-.395-1.032-.714-2.079-1.075-3.102a5.451 5.451 0 0 1-.448-.429c.038.265.067.563.087.895l-.254-1.085.167.19c-.351-2.345-1.833-2.778-2.725-4.869.746 1.144 1.019-.616 1.72.152-.047-.23-.128-.47-.166-.734-.493-1.003-.818-2.162-1.045-3.348a482.058 482.058 0 0 0-2.03-4.211c1.017-.272 1.44.658 1.838 1.745.029-1.19-.078-2.417.138-3.63-.77-.787-1.316-.643-1.483-3.61.447.228 1.063.302 1.504.62.048-1.058.219-2.102.334-3.142l.184-1.566.353-1.521c-.001-.4-.028-.843-.042-1.264-.046-.031-.478-.383-.169-1.334.082.439.142.891.169 1.334.152-.432.304-.863.443-1.316.208-.434.427-.847.656-1.295l.876-2.452c.273-.816.762-1.557 1.137-2.346.409-.78.762-1.557 1.183-2.315l1.47-2.166a.81.81 0 0 0-.319.041 1.93 1.93 0 0 1-.319.242c.104-.118.22-.214.32-.242 1.17-1.048.382-2.511 2.12-3.371l-.757.723c2.27-1.625 3.026-3.837 4.43-5.622-3.492 2.732-6.222 6.14-8.605 9.75a43.28 43.28 0 0 0-5.921 16.532c-.815 5.882-.499 12.085.678 18.191z" opacity=".9"/><path fill="#B4BFE3" d="M93.358 81.293c-.19.367-.348.687-.705 1.409l1.183-.483c.385-.423.793-.858 1.19-1.26l1.343-1.147 2.694-2.329-2.911 1.853c-.963.613-1.96 1.218-2.794 1.957z"/><path fill="#C4CDE9" d="m112.454 68.779.065-.037c-.056.003-.077.015-.133.019a6.576 6.576 0 0 1-.086.05 3.827 3.827 0 0 1-.923.533l.923-.534.065-.037c-2.655.76-5.499 1.686-8.26 2.908-2.627 1.402-5.584 2.68-8.074 4.518-5.37 3.3-10.043 7.459-14.621 11.534-3.663 5.809-5.831 12.472-6.257 19.274-.46 6.794.683 13.636 2.846 20.06-1.177-6.106-1.493-12.309-.635-18.215.845-5.928 2.832-11.514 5.92-16.532 2.385-3.61 5.102-7.04 8.606-9.75.615-.87 1.254-1.698 2.06-2.335-.268.527-.418.814-.546 1.088.834-.739 1.819-1.364 2.816-1.969l2.911-1.853c2.024-1.654 4.272-3.067 6.401-4.64l6.922-4.082z"/><path fill="#BFC8E7" d="M96.957 165.856c2.721.348 4.713-.716 5.707-2.12-5.3-4.814-10.306-10.657-14.495-16.771-4.192-6.17-7.844-12.794-10.182-19.919 1.312 6.887 3.72 13.686 6.932 20.192 3.224 6.528 7.177 12.778 12.038 18.618z"/><path fill="#EAEDF7" d="m215.738 37.436-1.783.285 2.254-.213 1.563-.072c.987-.026 1.891-.147 2.723.203a3.63 3.63 0 0 1 1.945 1.683c.434.752.577 1.643.469 2.45-.094.827-.562 1.555-.947 2.178.012.022.059.052.062.107a1.59 1.59 0 0 1-.71.954 938.917 938.917 0 0 1-3.295 6.942c-.072.471-.156.92-.24 1.37-.251 1.004-.634 2.027-1.061 3.075a58.434 58.434 0 0 1-1.474 4.143l5.923-10.577 1.474-2.655.711-1.298.587-.969c.736-1.255 1.862-2.678 1.989-4.441-.238-1.752-1.432-3.325-3.032-4.062a5.207 5.207 0 0 0-2.562-.468c-.873.075-1.712.359-2.544.553-.987.226-1.982.486-2.99.724l.938.088z"/><path fill="#B4BFE3" d="m211.942 38.053 2.025-.31c-.387.023-.762.068-1.159.125l-.866.185zm-52.053 6.775c9.456-1.48 17.841-.995 26.633-1.146 4.748-1.052 9.509-2.083 14.27-3.114-1.048-.425-2.32-.693-3.763-.862-12.526 1.075-24.785 1.768-37.14 5.122z"/><path fill="#BFC8E7" d="M197.129 43.055c-12.842 3.206-27.108 5.086-40.883 7.37-3.455.563-6.864 1.157-10.153 1.91-3.31.766-6.63 1.365-9.698 2.45-3.106 1.02-6.156 2.037-9.003 3.308a86.224 86.224 0 0 0-7.976 4.29c3.724-.346 7.538-1.031 11.499-1.514l8.239-2.695c2.783-.834 5.62-1.527 8.419-2.284 5.564-1.523 11.499-2.802 17.24-4.17a673.319 673.319 0 0 1 20.917-4.746c6.012-1.295 12.023-2.59 18.013-3.872-.512-1.136-1.528-1.952-2.973-2.521-4.761 1.03-9.509 2.083-14.27 3.113 3.464-.052 6.976-.22 10.629-.639z"/><path fill="#D8DEF0" d="M133.574 60.565c2.516-.851 5.013-1.835 7.591-2.579l7.746-2.21c5.168-1.466 10.613-2.749 15.902-4.056-5.741 1.368-11.675 2.647-17.24 4.17-2.799.757-5.636 1.45-8.419 2.284l-8.239 2.695c.882-.108 1.777-.196 2.659-.304z"/><path fill="#B4BFE3" d="m119.476 66.357.021-.013c2.029-1 4.22-1.72 6.336-2.57 2.128-.827 4.265-1.69 6.527-2.336-.661.095-1.335.169-2.017.277-3.654 1.508-7.334 2.974-10.867 4.642z"/><path fill="#D9DFF1" d="M175.608 41.25c6.123-.557 12.344-1.143 18.62-1.731-5.141-.124-11.782.675-18.62 1.73z"/><path fill="#B4BFE3" d="M126.959 62.351c1.143-.202 2.237-.49 3.405-.649l3.244-1.128c-.895.087-1.777.196-2.672.283-1.386.428-2.675.972-3.977 1.494zm87.927-2.232c-.483.85-.996 1.748-1.518 2.68.06.252.159.423.271.617l1.105-1.956c.12-.585.162-1.01.142-1.341zm-.096-22.736-1.994.464c.387-.023.763-.068 1.159-.125l1.783-.285-.948-.054zm-20.562 2.136c.979.008 1.905.074 2.767.178 4.942-.42 9.902-.907 14.934-1.665l.867-.185c-6.212.551-12.411 1.124-18.568 1.672z"/><path fill="#D8DEF0" d="M196.995 39.697c1.443.168 2.727.458 3.763.862 2.587-.578 5.141-1.164 7.708-1.73 1.161-.27 2.302-.527 3.442-.785-5.011.746-9.971 1.233-14.913 1.653z"/><path fill="#B4BFE3" d="M119.416 62.383c2.476-1.515 5.146-2.943 7.976-4.29 2.847-1.272 5.897-2.288 9.003-3.308 3.09-1.097 6.422-1.675 9.698-2.45 3.301-.732 6.697-1.347 10.153-1.91 13.775-2.284 28.041-4.164 40.883-7.37-3.665.398-7.178.565-10.608.627-8.854 1.877-17.666 3.729-26.466 5.602-4.388.931-8.806 1.763-13.12 2.823-4.318 1.004-8.685 1.922-12.907 3.242-2.129.628-4.261 1.2-6.378 1.85l-6.257 2.21-3.111 1.11-3.022 1.314c-2.002.898-4.066 1.689-6.027 2.707-7.88 3.862-15.31 8.753-21.414 14.997 1.44-1.175 2.706-2.507 4.258-3.489l4.54-3.05c1.602-.897 3.22-1.716 4.825-2.557 1.559-.871 3.251-1.562 4.934-2.219 1.683-.656 3.319-1.344 5.006-1.945l5.164-1.522c3.38-1.092 6.933-1.683 10.366-2.434 1.302-.523 2.592-1.067 3.956-1.482-3.935.525-7.75 1.21-11.452 1.544z"/></g></g><path fill="#2849AF" d="M113.57 132.672c2.275-7.47 4.381-14.984 7.235-22.244 2.303-5.883 5.167-10.943 8.626-16.262-.186.222-.395.457-.569.701 1.623-1.853 3.236-3.672 4.858-5.525.083-.105.686-.797.53-.62-.729.82-3.898 4.111-5.431 6.17-8.417 11.216-11.891 25.39-15.858 38.561.039-.28.506-.464.609-.781z" opacity=".109"/><path fill="#2849AF" d="M113.107 142.932c3.57-10.336 6.354-20.991 10.309-31.206 3.323-8.532 7.671-15.338 13.659-22.23-.031.046-.855-.538-.895-.458-5.996 6.927-10.384 13.812-13.694 22.366-3.937 10.147-6.724 20.747-10.251 31.058-.031.046.903.423.872.47z" opacity=".109"/><path fill="#2849AF" d="M117.574 135.886c4.838-15.878 8.655-30.251 20.135-43.207.23-.247.355-.576.584-.823-2.008 2.276-3.748 4.025-5.424 6.28-8.389 11.315-11.881 25.357-15.9 38.586.103-.317.523-.531.605-.836z" opacity=".109"/><path fill="#2849AF" d="M111.506 144.772c3.74-10.29 6.506-20.878 10.461-31.092 3.349-8.634 7.823-15.57 13.767-22.637-.031.046-.851-.482-.934-.377-5.965 7.08-10.448 14.049-13.785 22.704-3.849 9.953-6.594 20.328-9.91 30.46-.085.249.499.714.401.942z" opacity=".109"/><path fill="#2849AF" d="M116.325 137.294c2.59-8.51 4.858-17.579 8.582-25.713 3.176-6.902 7.089-12.625 12.146-18.351-.186.222-.796.059-.995.26-5.067 5.76-9.119 11.192-12.137 18.317-3.536 8.312-5.956 17.067-8.595 25.692.058-.148.941-.057.999-.205z" opacity=".109"/><path fill="#2849AF" d="M117.838 134.159c2.59-8.51 4.858-17.579 8.582-25.713 3.176-6.902 7.101-12.604 12.137-18.317.104-.118-.484-.838-.401-.943-5.066 5.76-9.107 11.214-12.137 18.317-3.523 8.334-5.956 17.068-8.582 25.714-.051.258.486.693.401.942z" opacity=".109"/><path fill="#2849AF" d="M114.893 131.937c2.59-8.511 4.846-17.601 8.583-25.714 3.175-6.901 7.1-12.603 12.136-18.317-.186.222-.796.06-.995.26-5.067 5.76-9.107 11.213-12.146 18.351-3.536 8.312-5.956 17.067-8.583 25.713.067-.181.938-.112 1.005-.293z" opacity=".109"/><path fill="#2849AF" d="M110.649 145.668c3.677-10.398 6.467-21.142 10.474-31.415 3.292-8.486 7.61-15.245 13.579-22.07-.022.012-.793-.63-.824-.584-5.996 6.927-10.397 13.791-13.716 22.378-3.928 10.113-6.675 20.633-10.104 30.916-.092.139.658.593.591.775z" opacity=".109"/><path fill="#2849AF" d="M117.419 135.518c2.59-8.511 4.858-17.58 8.582-25.714 3.176-6.901 7.101-12.603 12.125-18.338.186-.223-.059-.797.128-1.019-5.067 5.76-9.107 11.213-12.125 18.338-3.523 8.334-5.956 17.068-8.582 25.714-.091.339-.025.701-.128 1.019z" opacity=".109"/><path fill="#2849AF" d="M113.301 145.053c3.728-10.112 6.424-20.573 10.321-30.64 3.331-8.566 7.744-15.408 13.707-22.344-.074.071-.87-.414-.952-.31-6.022 6.884-10.366 13.745-13.676 22.299-3.995 10.294-6.828 21.064-10.222 31.556.051-.259.737-.311.822-.561z" opacity=".109"/><path fill="#2849AF" d="M113.018 135.138c2.632-8.735 5.325-17.763 9.082-26.088 3.05-6.772 6.73-12.304 11.603-17.952.187-.222-.071-.817.107-1.006-5.263 5.816-9.607 11.588-12.725 18.886-3.481 8.108-5.465 16.727-8.028 25.135-.082.305.064.708-.039 1.025z" opacity=".109"/><path fill="#2849AF" d="M117.261 133.061c2.59-8.511 4.858-17.579 8.582-25.714 3.176-6.901 7.101-12.603 12.137-18.317l-.763-.676c-5.066 5.76-9.119 11.192-12.158 18.329-3.524 8.334-5.956 17.068-8.583 25.714-.036.136.821.528.785.664zm55.111-20.08c-6.489 5.379-12.77 9.234-20.759 12.014-10.853 3.775-22.11 6.352-33.1 9.69-.273.072-.369.7-.664.785 10.977-3.36 22.256-5.95 33.099-9.69 8.002-2.759 14.283-6.614 20.735-12.057.254-.204.434-.537.689-.742z" opacity=".109"/><path fill="#2849AF" d="M174.21 113.437c-6.243 5.209-12.377 8.922-20.072 11.617-11.002 3.862-22.465 6.529-33.618 9.933.077-.016.432.896.53.868 11.122-3.358 22.555-5.979 33.511-9.871 7.965-2.823 14.104-6.625 20.556-12.068-.107.062-.79-.575-.907-.479zm-3.254 7.262c-14.843 9.114-31.916 12.185-48.439 17.2-.261.094-.344.743-.605.837 16.489-5.025 33.595-8.087 48.427-17.222.279-.161.338-.654.617-.815z" opacity=".109"/><path fill="#2849AF" d="M173.093 114.826c-6.296 5.267-12.346 9.075-20.142 11.744-11.104 3.834-22.607 6.581-33.824 10.022-.076.016.226.987.282.983 11.293-3.456 22.851-6.207 34.008-10.1 7.771-2.711 13.837-6.442 20.086-11.74.086-.05-.474-.871-.41-.909z" opacity=".109"/><path fill="#2849AF" d="M174.1 117.71c-5.517 4.731-10.525 8.31-17.377 10.977-11.738 4.573-24.426 7.202-36.475 10.838.316-.097.673-.074 1.011-.183 9.853-3.026 19.933-5.41 29.745-8.555 9.277-2.98 16.594-6.975 24.126-13.128-.224.158-.819-.128-1.03.051z" opacity=".109"/><path fill="#2849AF" d="M170.819 118.03c-14.844 9.114-31.929 12.163-48.44 17.2.022-.012.346.946.401.943 16.489-5.025 33.583-8.108 48.439-17.201.043-.025-.422-.93-.4-.942z" opacity=".109"/><path fill="#2849AF" d="M167.292 117.031c-14.556 8.919-32.092 12.229-48.452 17.179.317-.097.67-.129.987-.226 16.627-5.133 33.463-8.068 48.414-17.244-.267.183-.682.108-.949.291z" opacity=".109"/><path fill="#2849AF" d="M172.043 115.834c-6.357 5.36-12.525 9.064-20.37 11.846-10.978 3.905-22.456 6.495-33.571 9.963.175-.044.609.708.793.63 11.039-3.253 22.398-5.802 33.231-9.709 7.897-2.841 14.108-6.57 20.542-11.945 0 0-.647-.772-.625-.785z" opacity=".109"/><path fill="#2849AF" d="M176.336 114.787c-6.465 5.422-12.724 9.264-20.747 12.036-10.853 3.774-22.11 6.351-33.121 9.702-.141.053.013.966-.128 1.019 10.99-3.339 22.256-5.95 33.099-9.69 8.002-2.759 14.27-6.636 20.747-12.036.212-.179-.04-.864.15-1.031z" opacity=".109"/><path fill="#2849AF" d="M174.541 116.539c-6.465 4.677-12.656 8.538-20.222 11.16-10.895 3.799-22.238 6.426-33.268 9.844-.141.053-.008.978-.106 1.006 11.242-3.398 22.828-6.05 33.904-9.982a64.64 64.64 0 0 0 9.344-3.906 34.166 34.166 0 0 0 11.105-8.645c-.233.192-.524.331-.757.523z" opacity=".109"/><path fill="#2849AF" d="M171.867 114.389c-6.476 5.4-12.757 9.255-20.746 12.036-10.853 3.774-22.123 6.33-33.1 9.689-.12.041.048.975-.051 1.003 11.002-3.317 22.269-5.927 33.1-9.689 7.989-2.781 14.282-6.614 20.746-12.036.181-.133-.129-.87.051-1.003z" opacity=".109"/><path fill="#2849AF" d="M175.222 113.254c-6.578 4.829-12.932 8.755-20.682 11.454-10.852 3.775-22.11 6.352-33.099 9.69.175-.044.587.72.762.676 10.978-3.36 22.256-5.949 33.121-9.702a54.953 54.953 0 0 0 9.563-3.975c4.328-2.126 8.078-5.007 11.215-8.651-.242.226-.613.326-.88.508z" opacity=".109"/><path fill="#2849AF" d="M176.589 80.053c-29.135 22.261-57.656 46.43-79.918 75.833-15.992 21.115-26.922 44.548-35.585 69.477.086-.249.784-.28.869-.53 6.236-16.284 12.526-32.228 21.594-47.227 5.563-9.167 11.579-17.995 18.243-26.395 21.362-26.793 47.953-48.501 74.099-70.382.276-.217.431-.593.698-.776z" opacity=".109"/><path fill="#2849AF" d="M178.427 80.51c-27.003 21.488-53.987 43.853-75.539 71.013-8.69 10.944-16.29 22.633-22.678 35.083-6.418 12.496-11.49 25.588-16.574 38.659-.049.114.845.571.824.584 9.238-23.487 19.42-46.23 34.33-66.691 22.134-30.417 51.402-54.731 80.535-78.136-.086.05-.781-.609-.898-.513z" opacity=".109"/><path fill="#2849AF" d="M180.58 83.246c-24.477 18.771-48.627 38.554-68.977 61.843-21.162 24.214-36.235 52.129-45.96 82.711-.103.317-.003.689-.127 1.019 6.498-16.179 12.502-32.616 21.343-47.713 22.894-39.072 58.686-68.356 93.137-97.036.242-.225.33-.62.584-.824z" opacity=".109"/><path fill="#2849AF" d="M177.31 81.898c-25.568 20.403-50.964 41.45-72.011 66.658-9.145 10.949-17.28 22.604-24.04 35.154-7.44 13.801-13.158 28.355-18.85 42.951-.058.148.802.596.784.664 8.786-21.937 18.132-43.253 31.608-62.772 22.223-32.1 52.679-57.53 82.898-81.733.086-.05-.453-.884-.389-.921z" opacity=".109"/><path fill="#2849AF" d="M178.345 84.88c-24.002 18.553-48.066 38.088-68.009 61.14-9.611 11.133-18.43 22.895-25.754 35.657-8.766 15.225-15.261 31.459-20.856 48.06.094-.283.712-.354.806-.637 6.864-17.678 13.744-35.079 23.638-51.328 4.643-7.634 9.721-15.06 15.361-22.01 15.943-15.991 31.898-31.96 47.841-47.95a3475.215 3475.215 0 0 1 27.981-23.17c-.267.183-.775.047-1.008.239z" opacity=".109"/><path fill="#2849AF" d="M180.464 80.564c-29.79 23.757-60.519 48.513-82.705 79.933-14.105 19.969-23.978 41.76-32.11 64.78-.067.182.66.65.594.831 3.664-9.875 7.236-19.811 11.686-29.366 9.93-21.195 23.264-40.862 39.119-58.147 19.348-21.106 41.474-39.235 63.783-57.097.086-.05-.44-.862-.367-.934z" opacity=".109"/><path fill="#2849AF" d="M176.916 79.578c-30.027 23.148-60.318 48.367-82.381 79.602-14.135 20.015-24.091 41.912-32.368 64.929.048-.114.96.076 1.008-.038 3.54-9.745 7.094-19.414 11.52-28.812 9.108-19.346 20.914-37.443 35.131-53.497 20.544-23.199 44.227-42.8 68.073-62.465-.233.192-.729.077-.983.281z" opacity=".109"/><path fill="#2849AF" d="M176.26 82.906c-28.463 22.732-56.9 46.251-79.04 75.469-16.013 21.127-26.491 44.499-35.733 69.219-.05.114.811.563.784.664 2.628-6.957 5.188-13.933 8.124-20.753 10.62-24.714 25.585-47.756 43.788-67.571 19.027-20.72 40.763-38.681 62.705-56.188-.004-.055-.628-.84-.628-.84z" opacity=".109"/><path fill="#2849AF" d="M180.553 81.86c-29.896 23.473-60.653 48.331-82.799 79.671-14.31 20.259-24.216 42.241-32.46 65.612.066-.182.882-.108.97-.303 2.451-6.569 4.822-13.177 7.523-19.661 8.76-21.091 20.72-41.053 35.417-58.558 8.731-10.424 18.085-19.174 28.114-28.543a265.835 265.835 0 0 1 22.388-20.256 1172.409 1172.409 0 0 1 20.719-16.944c.19-.167-.062-.852.128-1.019z" opacity=".109"/><path fill="#2849AF" d="M178.693 83.648c-27.121 20.441-54.057 42.692-75.192 69.583-6.67 8.489-12.885 17.317-18.28 26.674-8.788 15.238-15.187 31.588-21.349 48.001-.048.114.855.538.846.572 7.023-18.543 14.432-36.765 24.886-53.68a107.96 107.96 0 0 1 12.596-17.323c10.858-15.374 23.589-29.138 38.14-41.29 12.705-11.429 26.053-22.142 39.163-33.118-.242.225-.543.399-.81.582z" opacity=".109"/><path fill="#2849AF" d="M176.063 81.474c-25.793 20.36-51.269 41.568-72.386 66.902-9.153 10.983-17.298 22.671-24.11 35.28-7.413 13.7-13.147 27.977-18.563 42.556-.058.148.738.634.69.748 7.53-19.896 15.847-39.472 27.672-57.237 23-34.524 54.709-61.306 86.637-87.213.211-.179-.1-.916.06-1.036z" opacity=".109"/><path fill="#2849AF" d="M179.504 79.745c-27.074 21.615-54.166 43.842-75.801 71.107-17.626 22.202-29.393 47.063-38.917 73.578-.027.101.842.516.815.617 8.415-23.126 18.186-45.145 32.64-65.201 22.419-31.067 52.346-55.676 82.047-79.437-.064.037-.741-.69-.784-.664z" opacity=".109"/></svg>