<svg xmlns="http://www.w3.org/2000/svg" width="70" height="70" fill="none"><g clip-path="url(#a)"><path fill="#00E7FF" d="m56.55 44.1 5.748-5.748c8.464-8.463 8.464-22.185 0-30.65-8.465-8.463-22.187-8.463-30.65 0L19.195 20.155l30.65 30.65"/><path fill="#11112D" d="M49.845 52.158c-.346 0-.693-.132-.957-.397l-30.65-30.649a1.356 1.356 0 0 1 0-1.916L30.69 6.745A22.879 22.879 0 0 1 46.973 0a22.877 22.877 0 0 1 16.282 6.745A22.875 22.875 0 0 1 70 23.028a22.874 22.874 0 0 1-6.745 16.282l-5.747 5.748a1.355 1.355 0 0 1-1.915-1.916l5.747-5.748a20.185 20.185 0 0 0 5.95-14.366c0-5.428-2.113-10.53-5.95-14.368a20.184 20.184 0 0 0-14.367-5.951A20.184 20.184 0 0 0 32.606 8.66L21.112 20.154l29.691 29.691a1.354 1.354 0 0 1-.958 2.313z"/><path fill="#FFE600" d="M19.195 20.154 7.702 31.648c-8.464 8.464-8.464 22.186 0 30.65 8.464 8.463 22.186 8.463 30.65 0l11.494-11.494-30.65-30.65z"/><path fill="#11112D" d="M23.028 70a22.875 22.875 0 0 1-16.283-6.745A22.877 22.877 0 0 1 0 46.973 22.879 22.879 0 0 1 6.745 30.69l11.493-11.494a1.356 1.356 0 0 1 1.916 0l30.65 30.65a1.355 1.355 0 0 1 0 1.915L39.31 63.255A22.874 22.874 0 0 1 23.028 70zm-3.832-47.93L8.66 32.606a20.184 20.184 0 0 0-5.951 14.367c0 5.428 2.114 10.53 5.951 14.367a20.186 20.186 0 0 0 14.368 5.951 20.184 20.184 0 0 0 14.366-5.951L47.93 50.804 19.196 22.069z"/><path fill="#EA3457" d="M42.661 49.367a2.031 2.031 0 1 0-2.873 2.872 2.031 2.031 0 0 0 2.873-2.872zm-7.343-7.343a2.031 2.031 0 1 0-2.873 2.872 2.031 2.031 0 0 0 2.873-2.872zm-7.342-7.344a2.032 2.032 0 1 0-2.874 2.874 2.032 2.032 0 0 0 2.873-2.873zm-7.344-7.342a2.031 2.031 0 1 0-2.873 2.872 2.031 2.031 0 0 0 2.873-2.872zM34.999 57.03a2.031 2.031 0 1 0-2.873 2.872 2.031 2.031 0 0 0 2.873-2.873zm-7.344-7.344a2.031 2.031 0 1 0-2.873 2.872 2.031 2.031 0 0 0 2.873-2.872zm-7.342-7.343a2.031 2.031 0 1 0-2.873 2.872 2.031 2.031 0 0 0 2.873-2.872zm-1.277 15.964a2.032 2.032 0 1 0-2.874 2.873 2.032 2.032 0 0 0 2.874-2.873zm-7.344-7.343a2.031 2.031 0 1 0-2.873 2.871 2.031 2.031 0 0 0 2.873-2.871zM12.97 35a2.032 2.032 0 1 0-2.874 2.874A2.032 2.032 0 0 0 12.97 35zm22.348 14.686a2.031 2.031 0 1 0-2.873 2.872 2.031 2.031 0 0 0 2.873-2.872zm-7.343-7.343a2.031 2.031 0 1 0-2.873 2.872 2.031 2.031 0 0 0 2.873-2.872zM20.632 35a2.031 2.031 0 1 0-2.873 2.872A2.031 2.031 0 0 0 20.632 35zm7.023 22.349a2.031 2.031 0 1 0-2.873 2.871 2.031 2.031 0 0 0 2.873-2.871zm-7.342-7.343a2.031 2.031 0 1 0-2.873 2.871 2.031 2.031 0 0 0 2.873-2.871zm-7.343-7.343a2.031 2.031 0 1 0-2.874 2.872 2.031 2.031 0 0 0 2.873-2.872z"/><path fill="#11112D" d="M57.509 34.918a1.353 1.353 0 0 1-.957-2.312c5.282-5.282 5.282-13.875 0-19.157a1.353 1.353 0 1 1 1.915-1.915c6.337 6.338 6.337 16.65 0 22.988a1.354 1.354 0 0 1-.958.396z"/></g><defs><clipPath id="a"><path fill="#fff" d="M0 0h70v70H0z"/></clipPath></defs></svg>